OxygenSans-Regular.ufo
<glyph name="exclam" format="1">
  <advance width="447.892635944"/>
  <unicode hex="0021"/>
  <outline>
    <contour>
      <point x="197.339413185" y="391.38830569" type="line"/>
      <point x="257.116024564" y="391.38830569" type="line"/>
      <point x="305.984673525" y="1255.62318917" type="line"/>
      <point x="305.984673525" y="1366.78619043" type="line"/>
      <point x="143.688405417" y="1366.78619043" type="line"/>
      <point x="143.688405417" y="1255.62318917" type="line"/>
    </contour>
    <contour>
      <point x="226.380642452" y="-12.1744961159" type="curve" smooth="yes"/>
      <point x="307.16300126" y="-12.1744961159"/>
      <point x="339.855238295" y="46.2157253832"/>
      <point x="339.855238295" y="102.039313458" type="curve" smooth="yes"/>
      <point x="339.855238295" y="158.123687802"/>
      <point x="307.16300126" y="215.77469557"/>
      <point x="226.380642452" y="215.77469557" type="curve" smooth="yes"/>
      <point x="147.555138568" y="215.77469557"/>
      <point x="113.384474071" y="158.123687802"/>
      <point x="113.384474071" y="102.039313458" type="curve" smooth="yes"/>
      <point x="113.384474071" y="46.2157253832"/>
      <point x="147.555138568" y="-12.1744961159"/>
    </contour>
  </outline>
</glyph>
<glyph name="quotedbl" format="1">
  <advance width="635.400001258"/>
  <unicode hex="0022"/>
  <outline>
    <contour>
      <point x="132.600000054" y="920.399999171" type="line"/>
      <point x="219.800000787" y="920.399999171" type="line"/>
      <point x="247.200000793" y="1369.59999967" type="line"/>
      <point x="113.199999928" y="1369.59999967" type="line"/>
    </contour>
    <contour>
      <point x="418.800000966" y="917.999999195" type="line"/>
      <point x="507.200001687" y="917.999999195" type="line"/>
      <point x="532.800001711" y="1369.59999967" type="line"/>
      <point x="399.40000084" y="1369.59999967" type="line"/>
    </contour>
  </outline>
</glyph>
<glyph name="numbersign" format="1">
  <advance width="1147.80000064"/>
  <unicode hex="0023"/>
  <outline>
    <contour>
      <point x="240.600000083" y="-20.7999999225" type="line"/>
      <point x="355.000000805" y="-20.7999999225" type="line"/>
      <point x="427.400000781" y="373.199999958" type="line"/>
      <point x="644.800000072" y="373.199999958" type="line"/>
      <point x="568.600000143" y="-20.7999999225" type="line"/>
      <point x="702.600000709" y="-20.7999999225" type="line"/>
      <point x="782.000000626" y="373.199999958" type="line"/>
      <point x="920.400001168" y="373.199999958" type="line"/>
      <point x="929.400001168" y="488.200000584" type="line"/>
      <point x="797.200000763" y="488.200000584" type="line"/>
      <point x="858.800000638" y="846.799999624" type="line"/>
      <point x="990.20000115" y="846.799999624" type="line"/>
      <point x="1002.20000115" y="960.000000298" type="line"/>
      <point x="879.000000775" y="960.000000298" type="line"/>
      <point x="939.000000834" y="1330.00000006" type="line"/>
      <point x="825.400000095" y="1330.00000006" type="line"/>
      <point x="761.600000083" y="960.000000298" type="line"/>
      <point x="545.200000763" y="960.000000298" type="line"/>
      <point x="617.800000697" y="1330.00000006" type="line"/>
      <point x="481.400000155" y="1330.00000006" type="line"/>
      <point x="404.800000221" y="960.000000298" type="line"/>
      <point x="230.999999851" y="960.000000298" type="line"/>
      <point x="222.799999863" y="845.799999624" type="line"/>
      <point x="382.400000125" y="845.799999624" type="line"/>
      <point x="327.200000226" y="488.200000584" type="line"/>
      <point x="161.999999851" y="488.200000584" type="line"/>
      <point x="152.999999851" y="373.199999958" type="line"/>
      <point x="307.600000083" y="373.199999958" type="line"/>
    </contour>
    <contour>
      <point x="448.600000888" y="488.200000584" type="line"/>
      <point x="522.60000065" y="846.799999624" type="line"/>
      <point x="740.199999958" y="846.799999624" type="line"/>
      <point x="667.000000209" y="488.200000584" type="line"/>
    </contour>
  </outline>
</glyph>
<glyph name="dollar" format="1">
  <advance width="1161.4000001"/>
  <unicode hex="0024"/>
  <outline>
    <contour>
      <point x="545.199999988" y="-17.8746000012" type="line"/>
      <point x="333.765200459" y="-13.2039200079"/>
      <point x="210.257800276" y="61.0474596419"/>
      <point x="138.799999893" y="109.799999774" type="curve"/>
      <point x="199.000000119" y="244.200000584" type="line"/>
      <point x="284.400000036" y="182.800000697"/>
      <point x="411.400000393" y="127.200000823"/>
      <point x="575.800000072" y="127.200000823" type="curve" smooth="yes"/>
      <point x="758.799999654" y="127.200000823"/>
      <point x="859.599999338" y="192.400000691"/>
      <point x="864.999999285" y="357.400000274" type="curve" smooth="yes"/>
      <point x="869.199999243" y="483.799999803"/>
      <point x="814.199999243" y="536.999999791"/>
      <point x="654.199999869" y="597.199999511" type="curve" smooth="yes"/>
      <point x="428.999999821" y="679.39999944" type="line" smooth="yes"/>
      <point x="259.199999899" y="741.999999344"/>
      <point x="148.599999964" y="837.399999589"/>
      <point x="153.999999911" y="1020.79999965" type="curve" smooth="yes"/>
      <point x="161.618799835" y="1258.49599959"/>
      <point x="338.392599718" y="1354.12199993"/>
      <point x="545.199999988" y="1368.97999998" type="curve"/>
      <point x="545.199999988" y="1574.39999956" type="line"/>
      <point x="636.600000262" y="1574.39999956" type="line"/>
      <point x="637.602000252" y="1370.64399998" type="line"/>
      <point x="780.81260022" y="1364.70799996"/>
      <point x="910.920600219" y="1312.07800012"/>
      <point x="988.800000519" y="1258.20000005" type="curve"/>
      <point x="924.80000034" y="1129.19999918" type="line"/>
      <point x="871.799999952" y="1156.59999931"/>
      <point x="751.399999887" y="1225.19999915"/>
      <point x="603.600000173" y="1225.19999915" type="curve" smooth="yes"/>
      <point x="458.000000298" y="1225.19999915"/>
      <point x="330.000000834" y="1178.9999992"/>
      <point x="325.200000882" y="1025.79999965" type="curve" smooth="yes"/>
      <point x="321.600000918" y="920.00000006"/>
      <point x="367.600000829" y="873.600000054"/>
      <point x="487.400000244" y="827.200000316" type="curve" smooth="yes"/>
      <point x="700.80000025" y="746.800000399" type="line" smooth="yes"/>
      <point x="902.800000578" y="671.400000364"/>
      <point x="1042.00000024" y="589.000000089"/>
      <point x="1034.20000032" y="358.200000226" type="curve" smooth="yes"/>
      <point x="1025.8750004" y="113.642520331"/>
      <point x="861.999000407" y="3.02951209905"/>
      <point x="636.80340026" y="-15.0746799794" type="curve"/>
      <point x="637.80000025" y="-218.799999416" type="line"/>
      <point x="545.199999988" y="-218.799999416" type="line"/>
    </contour>
  </outline>
</glyph>
<glyph name="percent" format="1">
  <advance width="1711.00000027"/>
  <unicode hex="0025"/>
  <outline>
    <contour>
      <point x="1320.80000028" y="-12.400000006" type="curve" smooth="yes"/>
      <point x="1107.60000023" y="-12.400000006"/>
      <point x="1000.00000015" y="140.599999994"/>
      <point x="1000.00000015" y="337.599999994" type="curve" smooth="yes"/>
      <point x="1000.00000015" y="535.599999994"/>
      <point x="1110.60000023" y="687.599999994"/>
      <point x="1320.80000028" y="687.599999994" type="curve" smooth="yes"/>
      <point x="1535.00000033" y="687.599999994"/>
      <point x="1642.60000041" y="538.599999994"/>
      <point x="1642.60000041" y="337.599999994" type="curve" smooth="yes"/>
      <point x="1642.60000041" y="140.599999994"/>
      <point x="1532.00000033" y="-12.400000006"/>
    </contour>
    <contour>
      <point x="1322.00000027" y="81.2000003159" type="curve" smooth="yes"/>
      <point x="1465.4000001" y="81.2000003159"/>
      <point x="1526.60000002" y="194.400000185"/>
      <point x="1526.60000002" y="339.0" type="curve" smooth="yes"/>
      <point x="1526.60000002" y="488.799999803"/>
      <point x="1464.4000001" y="594.399999678"/>
      <point x="1322.00000027" y="594.399999678" type="curve" smooth="yes"/>
      <point x="1178.00000045" y="594.399999678"/>
      <point x="1114.80000052" y="483.199999809"/>
      <point x="1114.80000052" y="339.0" type="curve" smooth="yes"/>
      <point x="1114.80000052" y="190.200000197"/>
      <point x="1178.60000044" y="81.2000003159"/>
    </contour>
    <contour>
      <point x="390.399999976" y="757.400000334" type="curve" smooth="yes"/>
      <point x="533.799999803" y="757.400000334"/>
      <point x="594.999999732" y="870.600000203"/>
      <point x="594.999999732" y="1015.20000002" type="curve" smooth="yes"/>
      <point x="594.999999732" y="1164.99999982"/>
      <point x="532.799999803" y="1270.5999997"/>
      <point x="390.399999976" y="1270.5999997" type="curve" smooth="yes"/>
      <point x="246.400000155" y="1270.5999997"/>
      <point x="183.200000226" y="1159.39999983"/>
      <point x="183.200000226" y="1015.20000002" type="curve" smooth="yes"/>
      <point x="183.200000226" y="866.400000215"/>
      <point x="247.000000149" y="757.400000334"/>
    </contour>
    <contour>
      <point x="389.199999988" y="663.800000012" type="curve" smooth="yes"/>
      <point x="175.99999994" y="663.800000012"/>
      <point x="68.3999998569" y="816.800000012"/>
      <point x="68.3999998569" y="1013.80000001" type="curve" smooth="yes"/>
      <point x="68.3999998569" y="1211.80000001"/>
      <point x="178.99999994" y="1363.80000001"/>
      <point x="389.199999988" y="1363.80000001" type="curve" smooth="yes"/>
      <point x="603.400000036" y="1363.80000001"/>
      <point x="711.000000119" y="1214.80000001"/>
      <point x="711.000000119" y="1013.80000001" type="curve" smooth="yes"/>
      <point x="711.000000119" y="816.800000012"/>
      <point x="600.400000036" y="663.800000012"/>
    </contour>
    <contour>
      <point x="393.399999708" y="0.0" type="line"/>
      <point x="1173.99999976" y="1353.19999999" type="line"/>
      <point x="1312.40000042" y="1353.19999999" type="line"/>
      <point x="540.400000364" y="0.0" type="line"/>
    </contour>
  </outline>
</glyph>
<glyph name="ampersand" format="1">
  <advance width="1275.55897019"/>
  <unicode hex="0026"/>
  <outline>
    <contour>
      <point x="549.300099727" y="-25.3940531178" type="curve" smooth="yes"/>
      <point x="741.87056477" y="-25.3940531178"/>
      <point x="885.305847155" y="36.4333665757"/>
      <point x="997.348992232" y="128.825503884" type="curve"/>
      <point x="1119.87056477" y="-13.0019158094" type="line"/>
      <point x="1179.74687697" y="4.0"/>
      <point x="1184.46310099" y="11.9079624186"/>
      <point x="1243.60019945" y="32.6059468822" type="curve"/>
      <point x="1087.12560361" y="229.38830569" type="line"/>
      <point x="1145.38638988" y="297.605946882"/>
      <point x="1192.77661138" y="374.996168381"/>
      <point x="1227.60211526" y="454.735382112" type="curve"/>
      <point x="1135.48034327" y="533.427619148" type="line"/>
      <point x="1102.219557" y="456.860985723"/>
      <point x="1059.87248058" y="382.078626916"/>
      <point x="1006.00191581" y="326.860985723" type="curve"/>
      <point x="619.382558262" y="733.87056477" type="line"/>
      <point x="801.735382112" y="815.697984464"/>
      <point x="936.778527189" y="920.176411925"/>
      <point x="936.778527189" y="1077.6097785" type="curve" smooth="yes"/>
      <point x="936.778527189" y="1261.69415284"/>
      <point x="775.347076422" y="1353.82550388"/>
      <point x="584.431450766" y="1353.82550388" type="curve" smooth="yes"/>
      <point x="359.078626916" y="1353.82550388"/>
      <point x="228.082458535" y="1237.12751942"/>
      <point x="228.082458535" y="1061.6097785" type="curve" smooth="yes"/>
      <point x="228.082458535" y="941.913709847"/>
      <point x="289.255038841" y="869.480343271"/>
      <point x="391.25887046" y="760.911794037" type="curve"/>
      <point x="200.558970187" y="667.302015536"/>
      <point x="80.2569546504" y="549.51774092"/>
      <point x="80.2569546504" y="352.039313458" type="curve" smooth="yes"/>
      <point x="80.2569546504" y="128.001915809"/>
      <point x="216.855238295" y="-25.3940531178"/>
    </contour>
    <contour>
      <point x="558.735382112" y="107.035481839" type="curve" smooth="yes"/>
      <point x="342.814009028" y="107.035481839"/>
      <point x="222.465016796" y="205.604031073"/>
      <point x="222.465016796" y="362.039313458" type="curve" smooth="yes"/>
      <point x="222.465016796" y="500.998084191"/>
      <point x="330.337497376" y="594.697984464"/>
      <point x="479.125603611" y="667.699900273" type="curve"/>
      <point x="641.442945623" y="501.860985723"/>
      <point x="739.209977955" y="394.660586815"/>
      <point x="900.570465043" y="229.039313458" type="curve"/>
      <point x="807.872480579" y="156.037397649"/>
      <point x="698.827419693" y="107.035481839"/>
    </contour>
    <contour>
      <point x="532.951107495" y="820.125603611" type="curve"/>
      <point x="446.382558262" y="900.345160613"/>
      <point x="386.16300126" y="966.998084191"/>
      <point x="386.16300126" y="1059.52157254" type="curve" smooth="yes"/>
      <point x="386.16300126" y="1168.48034327"/>
      <point x="467.035481839" y="1231.87439639"/>
      <point x="586.25695465" y="1231.87439639" type="curve" smooth="yes"/>
      <point x="687.651007768" y="1231.87439639"/>
      <point x="779.872480579" y="1176.87248058"/>
      <point x="779.872480579" y="1065.52157254" type="curve" smooth="yes"/>
      <point x="779.872480579" y="945.823588075"/>
      <point x="668.0" y="884.38830569"/>
    </contour>
  </outline>
</glyph>
<glyph name="quotesingle" format="1">
  <advance width="356.200001568"/>
  <unicode hex="0027"/>
  <outline>
    <contour>
      <point x="126.400000572" y="886.999999464" type="line"/>
      <point x="228.400001079" y="886.999999464" type="line"/>
      <point x="246.20000115" y="1351.79999989" type="line"/>
      <point x="107.600000441" y="1351.79999989" type="line"/>
    </contour>
  </outline>
</glyph>
<glyph name="parenleft" format="1">
  <advance width="648.400000721"/>
  <unicode hex="0028"/>
  <outline>
    <contour>
      <point x="391.200000346" y="-204.199999362" type="curve"/>
      <point x="548.800001085" y="-204.199999362" type="line"/>
      <point x="381.400001377" y="61.6000003219"/>
      <point x="310.400000989" y="349.999999911"/>
      <point x="310.400000989" y="647.799999893" type="curve" smooth="yes"/>
      <point x="310.400000989" y="936.200000167"/>
      <point x="392.400001615" y="1208.20000067"/>
      <point x="549.800001085" y="1449.19999978" type="curve"/>
      <point x="389.600000352" y="1449.19999978" type="line"/>
      <point x="237.200000465" y="1230.20000008"/>
      <point x="145.000000238" y="948.600000054"/>
      <point x="145.000000238" y="643.999999911" type="curve" smooth="yes"/>
      <point x="145.000000238" y="315.400000036"/>
      <point x="237.600000352" y="10.6000006497"/>
    </contour>
  </outline>
</glyph>
<glyph name="parenright" format="1">
  <advance width="664.200000674"/>
  <unicode hex="0029"/>
  <outline>
    <contour>
      <point x="113.19999975" y="-204.199999362" type="curve"/>
      <point x="271.600000501" y="-204.199999362" type="line"/>
      <point x="420.400000423" y="-0.199999511242"/>
      <point x="517.400000602" y="321.000000119"/>
      <point x="517.400000602" y="650.800000012" type="curve" smooth="yes"/>
      <point x="517.400000602" y="954.200000137"/>
      <point x="429.600000441" y="1219.39999992"/>
      <point x="272.400000483" y="1449.19999978" type="curve"/>
      <point x="112.999999762" y="1449.19999978" type="line"/>
      <point x="283.999999434" y="1175.00000018"/>
      <point x="351.999999851" y="933.400000125"/>
      <point x="351.999999851" y="652.99999997" type="curve" smooth="yes"/>
      <point x="351.999999851" y="347.199999869"/>
      <point x="266.999999255" y="28.3999998271"/>
    </contour>
  </outline>
</glyph>
<glyph name="asterisk" format="1">
  <advance width="1110.99999982"/>
  <unicode hex="002A"/>
  <outline>
    <contour>
      <point x="492.400002062" y="511.199999452" type="line"/>
      <point x="512.600003809" y="597.399999708" type="line"/>
      <point x="512.600003809" y="597.399999708"/>
      <point x="583.600001365" y="880.999999076"/>
      <point x="568.400001138" y="900.199999362" type="curve"/>
      <point x="482.400005043" y="975.999999285" type="line"/>
      <point x="476.600004494" y="1131.39999986" type="line"/>
      <point x="562.800000638" y="994.199999988" type="line"/>
      <point x="553.400001019" y="1368.39999968" type="line"/>
      <point x="542.999998927" y="1368.39999968" type="line"/>
      <point x="533.799999326" y="994.199999988" type="line"/>
      <point x="621.799995482" y="1131.39999986" type="line"/>
      <point x="615.999994904" y="975.999999285" type="line"/>
      <point x="525.399998844" y="900.199999362" type="line"/>
      <point x="547.599998623" y="868.999999672"/>
      <point x="507.399996907" y="697.599998713"/>
      <point x="585.999996126" y="597.399999708" type="curve"/>
      <point x="537.999996603" y="567.400000006"/>
      <point x="654.999997437" y="542.59999916"/>
      <point x="606.999997914" y="512.599999458" type="curve"/>
      <point x="544.400000006" y="840.599999011" type="line"/>
    </contour>
  </outline>
</glyph>
<glyph name="plus" format="1">
  <advance width="1049.39999986"/>
  <unicode hex="002B"/>
  <outline>
    <contour>
      <point x="466.19999963" y="156.999999732" type="line"/>
      <point x="595.000000268" y="156.999999732" type="line"/>
      <point x="595.000000268" y="531.999999702" type="line"/>
      <point x="947.000000358" y="531.999999702" type="line"/>
      <point x="947.000000358" y="650.600000411" type="line"/>
      <point x="595.400000274" y="650.600000411" type="line"/>
      <point x="595.400000274" y="1021.20000044" type="line"/>
      <point x="466.599999636" y="1021.20000044" type="line"/>
      <point x="466.599999636" y="650.600000411" type="line"/>
      <point x="108.799999595" y="650.600000411" type="line"/>
      <point x="108.799999595" y="531.999999702" type="line"/>
      <point x="466.19999963" y="531.999999702" type="line"/>
    </contour>
  </outline>
</glyph>
<glyph name="comma" format="1">
  <advance width="469.800000578"/>
  <unicode hex="002C"/>
  <outline>
    <contour>
      <point x="135.99999997" y="-252.799999803" type="curve"/>
      <point x="227.800000817" y="-252.799999803" type="line"/>
      <point x="277.600000322" y="-118.400001138"/>
      <point x="324.600001276" y="46.0000014305"/>
      <point x="358.200000942" y="173.200000167" type="curve"/>
      <point x="358.400000989" y="213.200000316" type="line"/>
      <point x="181.400000393" y="213.200000316" type="line"/>
      <point x="173.600000471" y="84.8000015914"/>
      <point x="152.199999809" y="-117.800001144"/>
    </contour>
  </outline>
</glyph>
<glyph name="hyphen" format="1">
  <advance width="670.799999237"/>
  <unicode hex="002D"/>
  <outline>
    <contour>
      <point x="105.599999517" y="451.599999547" type="line"/>
      <point x="558.399999946" y="451.599999547" type="line"/>
      <point x="558.399999946" y="586.200000197" type="line"/>
      <point x="105.599999517" y="586.200000197" type="line"/>
    </contour>
  </outline>
</glyph>
<glyph name="period" format="1">
  <advance width="479.400000691"/>
  <unicode hex="002E"/>
  <outline>
    <contour>
      <point x="242.000000387" y="-10.7999998629" type="curve" smooth="yes"/>
      <point x="322.600000411" y="-10.7999998629"/>
      <point x="361.60000065" y="49.0000002086"/>
      <point x="361.60000065" y="109.000000387" type="curve" smooth="yes"/>
      <point x="361.60000065" y="169.400000572"/>
      <point x="322.600000411" y="229.60000065"/>
      <point x="242.000000387" y="229.60000065" type="curve" smooth="yes"/>
      <point x="161.000000358" y="229.60000065"/>
      <point x="122.200000107" y="169.400000572"/>
      <point x="122.200000107" y="109.000000387" type="curve" smooth="yes"/>
      <point x="122.200000107" y="49.2000001967"/>
      <point x="162.000000358" y="-10.7999998629"/>
    </contour>
  </outline>
</glyph>
<glyph name="slash" format="1">
  <advance width="912.19999969"/>
  <unicode hex="002F"/>
  <outline>
    <contour>
      <point x="82.3999997377" y="-197.599999696" type="line"/>
      <point x="208.800000578" y="-197.599999696" type="line"/>
      <point x="828.99999994" y="1334.0000003" type="line"/>
      <point x="700.199999094" y="1334.0000003" type="line"/>
    </contour>
  </outline>
</glyph>
<glyph name="zero" format="1">
  <advance width="1192.00000063"/>
  <unicode hex="0030"/>
  <outline>
    <contour>
      <point x="599.400000274" y="112.600000739" type="curve" smooth="yes"/>
      <point x="410.200000316" y="112.600000739"/>
      <point x="302.600000888" y="304.600001216"/>
      <point x="302.600000888" y="674.600000024" type="curve"/>
      <point x="302.200000912" y="1027.59999895"/>
      <point x="410.400000334" y="1224.99999928"/>
      <point x="599.400000274" y="1224.99999928" type="curve" smooth="yes"/>
      <point x="788.600000232" y="1224.99999928"/>
      <point x="889.19999972" y="1050.19999871"/>
      <point x="889.19999972" y="674.599999994" type="curve" smooth="yes"/>
      <point x="889.19999972" y="304.400001198"/>
      <point x="788.600000232" y="112.600000739"/>
    </contour>
    <contour>
      <point x="599.400000274" y="-25.7999999225" type="curve" smooth="yes"/>
      <point x="928.800000668" y="-25.7999999225"/>
      <point x="1060.00000063" y="270.200000435"/>
      <point x="1060.00000063" y="668.799999982" type="curve" smooth="yes"/>
      <point x="1060.00000063" y="1086.79999939"/>
      <point x="915.000000775" y="1363.59999993"/>
      <point x="599.400000274" y="1363.59999993" type="curve" smooth="yes"/>
      <point x="283.999999791" y="1363.59999993"/>
      <point x="132.0" y="1086.79999942"/>
      <point x="132.0" y="668.799999982" type="curve" smooth="yes"/>
      <point x="132.0" y="270.200000435"/>
      <point x="270.399999887" y="-25.7999999225"/>
    </contour>
  </outline>
</glyph>
<glyph name="one" format="1">
  <advance width="1118.79999998"/>
  <unicode hex="0031"/>
  <outline>
    <contour>
      <point x="194.200000018" y="0.0" type="line"/>
      <point x="967.000000298" y="0.0" type="line"/>
      <point x="967.000000298" y="132.800000668" type="line"/>
      <point x="623.600000232" y="132.800000668" type="line"/>
      <point x="687.200000525" y="68.8000003695" type="line"/>
      <point x="687.200000525" y="1346.79999989" type="line"/>
      <point x="531.599999875" y="1346.79999989" type="line"/>
      <point x="459.599999815" y="1295.59999985"/>
      <point x="301.000000119" y="1245.79999986"/>
      <point x="216.999999791" y="1227.59999973" type="curve"/>
      <point x="216.999999791" y="1091.39999908" type="line"/>
      <point x="315.800000191" y="1104.99999917"/>
      <point x="487.399999857" y="1159.39999917"/>
      <point x="555.999999732" y="1215.99999914" type="curve"/>
      <point x="516.399999678" y="1239.19999924" type="line"/>
      <point x="516.399999678" y="70.0000003576" type="line"/>
      <point x="578.799999982" y="132.800000668" type="line"/>
      <point x="194.200000018" y="132.800000668" type="line"/>
    </contour>
  </outline>
</glyph>
<glyph name="two" format="1">
  <advance width="1128.40000013"/>
  <unicode hex="0032"/>
  <outline>
    <contour>
      <point x="150.800000161" y="0.0" type="line"/>
      <point x="948.200000048" y="0.0" type="line"/>
      <point x="958.000000119" y="132.800000668" type="line"/>
      <point x="240.000001013" y="132.800000668" type="line"/>
      <point x="263.000001222" y="74.4000004232" type="line"/>
      <point x="712.200000167" y="528.799999595" type="line" smooth="yes"/>
      <point x="888.600000083" y="708.399999619"/>
      <point x="954.000000238" y="810.00000006"/>
      <point x="954.000000238" y="997.199999779" type="curve" smooth="yes"/>
      <point x="954.000000238" y="1268.59999955"/>
      <point x="705.800000817" y="1365.99999991"/>
      <point x="523.600000173" y="1365.99999991" type="curve" smooth="yes"/>
      <point x="369.600000083" y="1365.99999991"/>
      <point x="228.000000179" y="1309.19999984"/>
      <point x="149.200000197" y="1251.79999974" type="curve"/>
      <point x="200.200000435" y="1128.79999912" type="line"/>
      <point x="275.600000054" y="1175.79999894"/>
      <point x="398.400000066" y="1229.99999923"/>
      <point x="518.400000095" y="1229.99999923" type="curve" smooth="yes"/>
      <point x="634.400000036" y="1229.99999923"/>
      <point x="785.599999338" y="1170.59999901"/>
      <point x="785.599999338" y="982.599999815" type="curve" smooth="yes"/>
      <point x="785.599999338" y="838.800000399"/>
      <point x="716.799999416" y="755.000000089"/>
      <point x="604.999999732" y="640.400000334" type="curve" smooth="yes"/>
      <point x="129.80000031" y="149.400000572" type="line"/>
    </contour>
  </outline>
</glyph>
<glyph name="three" format="1">
  <advance width="1137.7334663"/>
  <unicode hex="0033"/>
  <outline>
    <contour>
      <point x="520.823588075" y="-18.0" type="curve" smooth="yes"/>
      <point x="802.696068654" y="-18.0"/>
      <point x="982.692237035" y="125.609778501"/>
      <point x="982.692237035" y="366.260786269" type="curve" smooth="yes"/>
      <point x="982.692237035" y="565.61361012"/>
      <point x="861.77469557" y="688.872480579"/>
      <point x="689.16300126" y="723.262702079" type="curve"/>
      <point x="848.906046609" y="762.217641193"/>
      <point x="947.431450766" y="850.347076422"/>
      <point x="947.431450766" y="1033.91754147" type="curve" smooth="yes"/>
      <point x="947.431450766" y="1249.6567552"/>
      <point x="752.647176149" y="1368.08820596"/>
      <point x="521.909878228" y="1368.08820596" type="curve" smooth="yes"/>
      <point x="383.521572538" y="1368.08820596"/>
      <point x="251.954939114" y="1331.34899223"/>
      <point x="142.562801806" y="1263.91370985" type="curve"/>
      <point x="190.690321226" y="1156.00957905" type="line"/>
      <point x="280.953023305" y="1213.61935755"/>
      <point x="398.476511652" y="1248.35857128"/>
      <point x="512.476511652" y="1248.35857128" type="curve" smooth="yes"/>
      <point x="673.87056477" y="1248.35857128"/>
      <point x="806.399800546" y="1172.9252047"/>
      <point x="806.399800546" y="1020.09203758" type="curve" smooth="yes"/>
      <point x="806.399800546" y="809.25887046"/>
      <point x="606.435282385" y="786.694152845"/>
      <point x="414.260786269" y="780.519656729" type="curve"/>
      <point x="373.480343271" y="780.519656729" type="line"/>
      <point x="373.480343271" y="658.876312198" type="line"/>
      <point x="392.699900273" y="658.876312198"/>
      <point x="392.823588075" y="658.876312198"/>
      <point x="412.782358807" y="658.876312198" type="curve"/>
      <point x="648.176411925" y="653.876312198"/>
      <point x="838.531151585" y="609.005747428"/>
      <point x="838.531151585" y="366.433366576" type="curve" smooth="yes"/>
      <point x="838.531151585" y="187.9041308"/>
      <point x="714.656755196" y="101.990420953"/>
      <point x="521.823588075" y="101.990420953" type="curve" smooth="yes"/>
      <point x="392.735382112" y="101.990420953"/>
      <point x="259.125603611" y="160.209977955"/>
      <point x="207.953023305" y="196.686489607" type="curve"/>
      <point x="157.564717615" y="89.5647176149" type="line"/>
      <point x="192.255038841" y="61.6999002729"/>
      <point x="351.821672265" y="-18.0"/>
    </contour>
  </outline>
</glyph>
<glyph name="four" format="1">
  <advance width="1170.40000075"/>
  <unicode hex="0034"/>
  <outline>
    <contour>
      <point x="742.999999791" y="0.0" type="line"/>
      <point x="907.000000685" y="0.0" type="line"/>
      <point x="907.000000685" y="337.999999583" type="line"/>
      <point x="1062.4000006" y="337.999999583" type="line"/>
      <point x="1074.00000063" y="470.400000274" type="line"/>
      <point x="907.000000685" y="470.400000274" type="line"/>
      <point x="907.000000685" y="1346.79999989" type="line"/>
      <point x="726.599999398" y="1346.79999989" type="line"/>
      <point x="124.800000131" y="477.199999958" type="line"/>
      <point x="124.800000131" y="337.999999583" type="line"/>
      <point x="742.999999791" y="337.999999583" type="line"/>
    </contour>
    <contour>
      <point x="295.000001013" y="470.000000238" type="line"/>
      <point x="742.399999797" y="1140.19999915" type="line"/>
      <point x="742.399999797" y="470.000000238" type="line"/>
    </contour>
  </outline>
</glyph>
<glyph name="five" format="1">
  <advance width="1160.80000061"/>
  <unicode hex="0035"/>
  <outline>
    <contour>
      <point x="545.200000435" y="-18.599999994" type="curve" smooth="yes"/>
      <point x="822.400000781" y="-18.599999994"/>
      <point x="1028.20000049" y="144.000000209"/>
      <point x="1028.20000049" y="430.99999997" type="curve" smooth="yes"/>
      <point x="1028.20000049" y="662.200000167"/>
      <point x="875.80000028" y="846.000000089"/>
      <point x="604.200000435" y="846.000000089" type="curve" smooth="yes"/>
      <point x="525.800000697" y="846.000000089"/>
      <point x="450.000000775" y="820.800000012"/>
      <point x="374.800001025" y="775.000000238" type="curve"/>
      <point x="375.600001037" y="800.200000614"/>
      <point x="405.800000936" y="1191.3999989"/>
      <point x="406.600000948" y="1210.59999919" type="curve"/>
      <point x="958.800000519" y="1210.59999919" type="line"/>
      <point x="971.60000056" y="1346.79999989" type="line"/>
      <point x="258.00000006" y="1346.79999989" type="line"/>
      <point x="215.000000119" y="629.599999607" type="line"/>
      <point x="349.800000608" y="612.599999487" type="line"/>
      <point x="408.000000626" y="675.399999499"/>
      <point x="498.800000429" y="711.599999428"/>
      <point x="587.400000215" y="711.599999428" type="curve" smooth="yes"/>
      <point x="773.599999547" y="711.599999428"/>
      <point x="854.199999601" y="585.799999833"/>
      <point x="854.199999601" y="428.800000012" type="curve" smooth="yes"/>
      <point x="854.199999601" y="232.000000596"/>
      <point x="720.200000167" y="118.800000697"/>
      <point x="528.200000346" y="118.800000697" type="curve" smooth="yes"/>
      <point x="405.400000066" y="118.800000697"/>
      <point x="283.199999928" y="174.800001055"/>
      <point x="215.400000453" y="217.600000739" type="curve"/>
      <point x="157.000000149" y="95.6000001431" type="line"/>
      <point x="234.799999595" y="46.000000447"/>
      <point x="388.599999934" y="-18.599999994"/>
    </contour>
  </outline>
</glyph>
<glyph name="six" format="1">
  <advance width="1220.00000036"/>
  <unicode hex="0036"/>
  <outline>
    <contour>
      <point x="600.400000274" y="-18.0" type="curve" smooth="yes"/>
      <point x="871.200000346" y="-18.0"/>
      <point x="1048.40000069" y="165.399999887"/>
      <point x="1048.40000069" y="405.000000119" type="curve" smooth="yes"/>
      <point x="1048.40000069" y="649.600000173"/>
      <point x="854.800000697" y="811.600000262"/>
      <point x="631.200000376" y="811.600000262" type="curve" smooth="yes"/>
      <point x="429.400001526" y="811.600000262"/>
      <point x="318.000001758" y="649.000001371"/>
      <point x="304.400001675" y="632.800001472" type="curve"/>
      <point x="333.200001866" y="604.800001204" type="line"/>
      <point x="333.200001866" y="604.800001204"/>
      <point x="481.200001955" y="798.200001359"/>
      <point x="550.20000127" y="899.600000352" type="curve"/>
      <point x="867.400001138" y="1346.79999989" type="line"/>
      <point x="670.800000042" y="1346.79999989" type="line"/>
      <point x="354.199999601" y="899.799999535" type="line" smooth="yes"/>
      <point x="234.599999815" y="729.199999928"/>
      <point x="151.799999803" y="605.199999928"/>
      <point x="151.799999803" y="408.800000131" type="curve" smooth="yes"/>
      <point x="151.799999803" y="178.799999774"/>
      <point x="315.600000232" y="-18.0"/>
    </contour>
    <contour>
      <point x="595.200000226" y="115.200000644" type="curve" smooth="yes"/>
      <point x="410.60000059" y="115.200000644"/>
      <point x="318.000000745" y="243.80000028"/>
      <point x="318.000000745" y="398.400000125" type="curve" smooth="yes"/>
      <point x="318.000000745" y="608.999999434"/>
      <point x="472.199999839" y="681.19999969"/>
      <point x="601.200000197" y="681.19999969" type="curve" smooth="yes"/>
      <point x="782.0" y="681.19999969"/>
      <point x="880.399999738" y="565.999999911"/>
      <point x="880.399999738" y="403.400000095" type="curve" smooth="yes"/>
      <point x="880.399999738" y="247.000000268"/>
      <point x="780.199999899" y="115.200000644"/>
    </contour>
  </outline>
</glyph>
<glyph name="seven" format="1">
  <advance width="1094.79999962"/>
  <unicode hex="0037"/>
  <outline>
    <contour>
      <point x="308.199999332" y="0.59999999404" type="line"/>
      <point x="482.800000399" y="0.59999999404" type="line"/>
      <point x="957.399999917" y="1230.79999942" type="line"/>
      <point x="957.399999917" y="1346.79999989" type="line"/>
      <point x="157.599999547" y="1346.79999989" type="line"/>
      <point x="168.399999321" y="1212.3999992" type="line"/>
      <point x="777.599998832" y="1212.3999992" type="line"/>
    </contour>
  </outline>
</glyph>
<glyph name="eight" format="1">
  <advance width="1176.40000084"/>
  <unicode hex="0038"/>
  <outline>
    <contour>
      <point x="589.200000435" y="-18.0" type="curve" smooth="yes"/>
      <point x="832.000000477" y="-18.0"/>
      <point x="1030.00000063" y="102.600000113"/>
      <point x="1030.00000063" y="341.800000191" type="curve" smooth="yes"/>
      <point x="1030.00000063" y="514.800000101"/>
      <point x="925.800000846" y="649.599999905"/>
      <point x="761.600001276" y="706.199999988" type="curve"/>
      <point x="905.4000009" y="761.200000048"/>
      <point x="1001.20000067" y="864.399999976"/>
      <point x="1001.20000067" y="1028.39999983" type="curve" smooth="yes"/>
      <point x="1001.20000067" y="1244.79999998"/>
      <point x="829.400000423" y="1365.99999991"/>
      <point x="589.400000423" y="1365.99999991" type="curve" smooth="yes"/>
      <point x="349.000000447" y="1365.99999991"/>
      <point x="174.400000185" y="1244.79999998"/>
      <point x="174.400000185" y="1028.39999983" type="curve" smooth="yes"/>
      <point x="174.400000185" y="864.399999946"/>
      <point x="279.399999946" y="753.800000101"/>
      <point x="419.799999654" y="704.400000006" type="curve"/>
      <point x="247.000000089" y="641.599999994"/>
      <point x="146.400000215" y="527.0"/>
      <point x="146.400000215" y="342.200000197" type="curve" smooth="yes"/>
      <point x="146.400000215" y="102.800000131"/>
      <point x="347.400000364" y="-18.0"/>
    </contour>
    <contour>
      <point x="589.200000435" y="104.800000489" type="curve" smooth="yes"/>
      <point x="402.200000882" y="104.800000489"/>
      <point x="300.800001055" y="191.000000387"/>
      <point x="300.800001055" y="346.600000083" type="curve" smooth="yes"/>
      <point x="300.800001055" y="506.599999815"/>
      <point x="425.600000769" y="599.399999738"/>
      <point x="589.200000435" y="635.599999726" type="curve"/>
      <point x="753.600000083" y="599.399999738"/>
      <point x="874.399999827" y="500.799999863"/>
      <point x="874.399999827" y="347.000000089" type="curve" smooth="yes"/>
      <point x="874.399999827" y="185.600000441"/>
      <point x="780.799999952" y="104.800000489"/>
    </contour>
    <contour>
      <point x="589.200000435" y="757.600000173" type="curve"/>
      <point x="421.400000781" y="794.600000113"/>
      <point x="331.000000864" y="888.599999964"/>
      <point x="331.000000864" y="1031.59999979" type="curve" smooth="yes"/>
      <point x="331.000000864" y="1160.59999952"/>
      <point x="436.800000727" y="1240.39999938"/>
      <point x="589.200000435" y="1240.39999938" type="curve" smooth="yes"/>
      <point x="742.800000131" y="1240.39999938"/>
      <point x="844.400000006" y="1160.59999952"/>
      <point x="844.400000006" y="1031.59999979" type="curve" smooth="yes"/>
      <point x="844.400000006" y="888.599999964"/>
      <point x="757.800000072" y="794.600000113"/>
    </contour>
  </outline>
</glyph>
<glyph name="nine" format="1">
  <advance width="1160.4000006"/>
  <unicode hex="0039"/>
  <outline>
    <contour>
      <point x="290.599999666" y="0.0" type="line"/>
      <point x="493.800000757" y="0.0" type="line"/>
      <point x="493.800000757" y="0.0"/>
      <point x="823.200000942" y="441.400000274"/>
      <point x="831.600001067" y="452.600000441" type="curve" smooth="yes"/>
      <point x="951.800000757" y="617.00000003"/>
      <point x="1042.40000066" y="744.0"/>
      <point x="1042.40000066" y="938.799999774" type="curve" smooth="yes"/>
      <point x="1042.40000066" y="1169.60000014"/>
      <point x="878.600000232" y="1365.99999991"/>
      <point x="593.800000191" y="1365.99999991" type="curve" smooth="yes"/>
      <point x="322.600000113" y="1365.99999991"/>
      <point x="145.799999774" y="1182.20000002"/>
      <point x="145.799999774" y="941.399999768" type="curve" smooth="yes"/>
      <point x="145.799999774" y="695.599999696"/>
      <point x="338.999999762" y="534.399999619"/>
      <point x="562.600000083" y="534.399999619" type="curve" smooth="yes"/>
      <point x="757.199998826" y="534.399999619"/>
      <point x="877.79999873" y="695.399998486"/>
      <point x="890.199998796" y="713.599998415" type="curve"/>
      <point x="860.599998593" y="738.399998635" type="line"/>
      <point x="860.599998593" y="738.399998635"/>
      <point x="713.199998766" y="557.999998748"/>
      <point x="639.999999493" y="459.599999726" type="curve"/>
    </contour>
    <contour>
      <point x="593.400000274" y="663.600000173" type="curve" smooth="yes"/>
      <point x="412.600000471" y="663.600000173"/>
      <point x="313.400000721" y="779.99999997"/>
      <point x="313.400000721" y="943.799999803" type="curve" smooth="yes"/>
      <point x="313.400000721" y="1100.99999964"/>
      <point x="414.800000578" y="1233.19999927"/>
      <point x="599.80000025" y="1233.19999927" type="curve" smooth="yes"/>
      <point x="784.399999887" y="1233.19999927"/>
      <point x="876.599999726" y="1104.59999964"/>
      <point x="876.599999726" y="949.599999785" type="curve" smooth="yes"/>
      <point x="876.599999726" y="737.400000453"/>
      <point x="722.000000626" y="663.600000173"/>
    </contour>
  </outline>
</glyph>
<glyph name="colon" format="1">
  <advance width="531.800001055"/>
  <unicode hex="003A"/>
  <outline>
    <contour>
      <point x="170.600000203" y="-20.3999997973" type="line"/>
      <point x="354.000000924" y="-20.3999997973" type="line"/>
      <point x="354.000000924" y="191.600000739" type="line"/>
      <point x="170.600000203" y="191.600000739" type="line"/>
    </contour>
    <contour>
      <point x="170.600000203" y="810.199999511" type="line"/>
      <point x="354.000000924" y="810.199999511" type="line"/>
      <point x="354.000000924" y="1020.19999996" type="line"/>
      <point x="170.600000203" y="1020.19999996" type="line"/>
    </contour>
  </outline>
</glyph>
<glyph name="semicolon" format="1">
  <advance width="523.800001115"/>
  <unicode hex="003B"/>
  <outline>
    <contour>
      <point x="149.600000411" y="-282.200000048" type="line"/>
      <point x="249.400000989" y="-282.200000048" type="line"/>
      <point x="363.600001007" y="179.600000679" type="line"/>
      <point x="200.800000399" y="179.600000679" type="line"/>
    </contour>
    <contour>
      <point x="183.600000232" y="812.599999547" type="line"/>
      <point x="366.600000948" y="812.599999547" type="line"/>
      <point x="366.600000948" y="1023.19999999" type="line"/>
      <point x="183.600000232" y="1023.19999999" type="line"/>
    </contour>
  </outline>
</glyph>
<glyph name="less" format="1">
  <advance width="1122.74112954"/>
  <unicode hex="003C"/>
  <outline>
    <contour>
      <point x="975.652923578" y="124.647176149" type="line"/>
      <point x="975.652923578" y="124.647176149"/>
      <point x="976.131351039" y="252.898383372"/>
      <point x="975.87056477" y="253.159169641" type="curve" smooth="yes"/>
      <point x="242.029734411" y="586.731550493" type="line"/>
      <point x="977.87056477" y="942.390221499" type="line"/>
      <point x="977.87056477" y="1071.25120722" type="line"/>
      <point x="104.131351039" y="622.772779761" type="line"/>
      <point x="104.131351039" y="542.907962419" type="line"/>
    </contour>
  </outline>
</glyph>
<glyph name="greater" format="1">
  <advance width="1132.35090804"/>
  <unicode hex="003E"/>
  <outline>
    <contour>
      <point x="136.739213731" y="130.343244804" type="line"/>
      <point x="1011.21764119" y="541.429534957" type="line"/>
      <point x="1011.21764119" y="621.772779761" type="line"/>
      <point x="138.956854923" y="1077.42570334" type="line"/>
      <point x="138.956854923" y="949.303931346" type="line"/>
      <point x="870.101616628" y="586.731550493" type="line"/>
      <point x="136.739213731" y="259.594452026" type="line"/>
    </contour>
  </outline>
</glyph>
<glyph name="question" format="1">
  <advance width="883.990420953"/>
  <unicode hex="003F"/>
  <outline>
    <contour>
      <point x="374.54939114" y="386.778527189" type="curve"/>
      <point x="409.233964938" y="456.669247323"/>
      <point x="502.351905312" y="495.875393659"/>
      <point x="502.351905312" y="553.248372874" type="curve" smooth="yes"/>
      <point x="604.363400168" y="853.257951921"/>
      <point x="690.350908041" y="986.000997271"/>
      <point x="648.103532438" y="1183.37106341" type="curve" smooth="yes"/>
      <point x="610.02873714" y="1310.51582511"/>
      <point x="512.246378333" y="1383.18024354"/>
      <point x="331.323089439" y="1367.53306739" type="curve"/>
      <point x="281.795769473" y="1367.53306739"/>
      <point x="202.996168381" y="1313.67591329"/>
      <point x="146.815924837" y="1263.40937959" type="curve"/>
      <point x="160.376810834" y="1271.75454021"/>
      <point x="192.720055637" y="1211.74304535"/>
      <point x="222.71047659" y="1211.74304535" type="curve" smooth="yes"/>
      <point x="278.704729162" y="1229.48417489"/>
      <point x="360.663499895" y="1249.05847155"/>
      <point x="437.802514172" y="1223.76220344" type="curve"/>
      <point x="535.378726643" y="1182.55797292"/>
      <point x="552.056555742" y="1106.39497166"/>
      <point x="544.929036322" y="939.057474281" type="curve"/>
      <point x="544.929036322" y="796.389224228"/>
      <point x="356.069047869" y="520.576212471"/>
    </contour>
    <contour>
      <point x="396.64526034" y="-12.1744961159" type="curve" smooth="yes"/>
      <point x="478.123687802" y="-12.1744961159"/>
      <point x="512.251207222" y="46.2157253832"/>
      <point x="512.251207222" y="102.039313458" type="curve" smooth="yes"/>
      <point x="512.251207222" y="158.123687802"/>
      <point x="478.123687802" y="215.77469557"/>
      <point x="396.64526034" y="215.77469557" type="curve" smooth="yes"/>
      <point x="316.862901533" y="215.77469557"/>
      <point x="282.909878228" y="158.123687802"/>
      <point x="282.909878228" y="102.039313458" type="curve" smooth="yes"/>
      <point x="282.909878228" y="46.6941528448"/>
      <point x="317.123687802" y="-12.1744961159"/>
    </contour>
  </outline>
</glyph>
<glyph name="at" format="1">
  <advance width="1864.39999878"/>
  <unicode hex="0040"/>
  <outline>
    <contour>
      <point x="911.999999434" y="-177.199999422" type="curve" smooth="yes"/>
      <point x="1094.39999932" y="-177.199999422"/>
      <point x="1269.9999994" y="-134.599999458"/>
      <point x="1392.79999933" y="-52.1999995112" type="curve"/>
      <point x="1354.39999929" y="43.6000007391" type="line"/>
      <point x="1227.59999937" y="-29.1999992132"/>
      <point x="1070.19999933" y="-68.3999991715"/>
      <point x="912.999999434" y="-68.3999991715" type="curve" smooth="yes"/>
      <point x="530.199999511" y="-68.3999991715"/>
      <point x="291.600000083" y="186.400001109"/>
      <point x="291.600000083" y="571.400000185" type="curve" smooth="yes"/>
      <point x="291.600000083" y="961.999999404"/>
      <point x="563.999999434" y="1274.19999951"/>
      <point x="971.799999356" y="1274.19999951" type="curve" smooth="yes"/>
      <point x="1357.1999996" y="1274.19999951"/>
      <point x="1583.39999878" y="1024.79999936"/>
      <point x="1583.39999878" y="710.800000101" type="curve" smooth="yes"/>
      <point x="1583.39999878" y="467.399999976"/>
      <point x="1486.39999866" y="315.200000525"/>
      <point x="1331.99999934" y="315.200000525" type="curve" smooth="yes"/>
      <point x="1252.79999956" y="315.200000525"/>
      <point x="1217.19999945" y="377.600000322"/>
      <point x="1217.19999945" y="462.800000131" type="curve" smooth="yes"/>
      <point x="1217.19999945" y="580.00000006"/>
      <point x="1252.99999943" y="755.99999994"/>
      <point x="1279.79999942" y="947.399999827" type="curve"/>
      <point x="1197.99999946" y="982.799999923"/>
      <point x="1078.39999926" y="1008.99999991"/>
      <point x="986.399999321" y="1008.99999991" type="curve" smooth="yes"/>
      <point x="718.999999404" y="1008.99999991"/>
      <point x="569.799999446" y="782.199999809"/>
      <point x="569.799999446" y="538.400000155" type="curve" smooth="yes"/>
      <point x="569.799999446" y="342.600000471"/>
      <point x="668.999999344" y="208.000000358"/>
      <point x="851.199999452" y="208.000000358" type="curve" smooth="yes"/>
      <point x="996.19999966" y="208.000000358"/>
      <point x="1109.99999937" y="335.60000065"/>
      <point x="1148.39999923" y="478.600000113" type="curve"/>
      <point x="1103.59999934" y="478.600000113" type="line"/>
      <point x="1114.79999936" y="284.600000739"/>
      <point x="1228.25799898" y="216.000000268"/>
      <point x="1333.99999931" y="216.000000268" type="curve" smooth="yes"/>
      <point x="1520.799999" y="216.000000268"/>
      <point x="1704.79999906" y="381.400000185"/>
      <point x="1704.79999906" y="703.400000095" type="curve" smooth="yes"/>
      <point x="1704.79999906" y="1122.19999984"/>
      <point x="1390.99999914" y="1384.39999974"/>
      <point x="976.199999392" y="1384.39999974" type="curve" smooth="yes"/>
      <point x="497.19999969" y="1384.39999974"/>
      <point x="161.399999708" y="1039.99999994"/>
      <point x="161.399999708" y="573.200000226" type="curve" smooth="yes"/>
      <point x="161.399999708" y="105.400000513"/>
      <point x="462.799999714" y="-177.199999422"/>
    </contour>
    <contour>
      <point x="865.799999475" y="309.000000507" type="curve" smooth="yes"/>
      <point x="759.999999583" y="309.000000507"/>
      <point x="699.599999756" y="384.800000608"/>
      <point x="699.599999756" y="537.600000113" type="curve" smooth="yes"/>
      <point x="699.599999756" y="728.99999994"/>
      <point x="810.19999966" y="912.799999774"/>
      <point x="991.799999505" y="912.799999774" type="curve" smooth="yes"/>
      <point x="1041.59999952" y="912.799999774"/>
      <point x="1155.99999911" y="891.399999827"/>
      <point x="1192.79999909" y="878.799999833" type="curve"/>
      <point x="1141.59999922" y="953.999999791" type="line"/>
      <point x="1137.99999925" y="918.600000143"/>
      <point x="1098.19999918" y="685.599999785"/>
      <point x="1093.39999923" y="650.800000131" type="curve" smooth="yes"/>
      <point x="1065.9999992" y="463.200000256"/>
      <point x="1010.79999939" y="309.000000507"/>
    </contour>
  </outline>
</glyph>
<glyph name="A" format="1">
  <advance width="1293.00000113"/>
  <unicode hex="0041"/>
  <outline>
    <contour>
      <point x="46.8000000119" y="0.0" type="line"/>
      <point x="234.800001115" y="0.0" type="line"/>
      <point x="408.800000876" y="472.599999607" type="line"/>
      <point x="339.800000638" y="422.599999428" type="line"/>
      <point x="960.000000417" y="422.599999428" type="line"/>
      <point x="889.200000167" y="469.799999595" type="line"/>
      <point x="1063.59999999" y="0.0" type="line"/>
      <point x="1246.20000112" y="0.0" type="line"/>
      <point x="748.200001329" y="1353.19999999" type="line"/>
      <point x="545.599999815" y="1353.19999999" type="line"/>
    </contour>
    <contour>
      <point x="414.000000924" y="493.999999791" type="line"/>
      <point x="670.60000059" y="1243.99999934" type="line"/>
      <point x="626.000000596" y="1245.19999933" type="line"/>
      <point x="883.000000119" y="494.399999797" type="line"/>
      <point x="922.800000221" y="548.400000066" type="line"/>
      <point x="377.000000805" y="548.400000066" type="line"/>
    </contour>
  </outline>
</glyph>
<glyph name="B" format="1">
  <advance width="1295.39999998"/>
  <unicode hex="0042"/>
  <outline>
    <contour>
      <point x="190.799999654" y="0.0" type="line"/>
      <point x="707.399999976" y="0.0" type="line" smooth="yes"/>
      <point x="1029.39999977" y="0.0"/>
      <point x="1189.80000013" y="146.999999911"/>
      <point x="1189.80000013" y="384.800000131" type="curve" smooth="yes"/>
      <point x="1189.80000013" y="591.600000143"/>
      <point x="1052.40000007" y="699.600000083"/>
      <point x="842.60000053" y="736.600000173" type="curve"/>
      <point x="842.60000053" y="690.800000012" type="line"/>
      <point x="1066.59999996" y="750.200000077"/>
      <point x="1136.40000018" y="860.200000018"/>
      <point x="1136.40000018" y="1019.79999992" type="curve" smooth="yes"/>
      <point x="1136.40000018" y="1254.00000012"/>
      <point x="970.799999952" y="1353.19999999"/>
      <point x="628.800000072" y="1353.19999999" type="curve" smooth="yes"/>
      <point x="190.799999654" y="1353.19999999" type="line"/>
    </contour>
    <contour>
      <point x="324.60000059" y="139.200000763" type="line"/>
      <point x="374.400000691" y="87.6000006497" type="line"/>
      <point x="374.400000691" y="697.799999923" type="line"/>
      <point x="324.000000596" y="647.19999969" type="line"/>
      <point x="633.200000137" y="647.19999969" type="line" smooth="yes"/>
      <point x="886.599999458" y="647.19999969"/>
      <point x="1006.19999909" y="582.999999762"/>
      <point x="1006.19999909" y="391.200000256" type="curve" smooth="yes"/>
      <point x="1006.19999909" y="211.400000632"/>
      <point x="905.599999249" y="139.200000763"/>
      <point x="676.999999762" y="139.200000763" type="curve" smooth="yes"/>
    </contour>
    <contour>
      <point x="323.400000602" y="775.600000292" type="line"/>
      <point x="374.400000691" y="732.800000161" type="line"/>
      <point x="374.400000691" y="1265.99999937" type="line"/>
      <point x="325.200000584" y="1216.39999926" type="line"/>
      <point x="622.399999797" y="1216.39999926" type="line" smooth="yes"/>
      <point x="851.599999368" y="1216.39999926"/>
      <point x="960.799999148" y="1173.79999936"/>
      <point x="960.799999148" y="997.19999975" type="curve" smooth="yes"/>
      <point x="960.799999148" y="820.600000292"/>
      <point x="850.799999505" y="775.600000292"/>
      <point x="675.799999744" y="775.600000292" type="curve" smooth="yes"/>
    </contour>
  </outline>
</glyph>
<glyph name="C" format="1">
  <advance width="1229.86864896"/>
  <unicode hex="0043"/>
  <outline>
    <contour>
      <point x="636.739213731" y="997.199322906" type="move" name="top"/>
    </contour>
    <contour>
      <point x="636.739213731" y="2.95685492337" type="move" name="bottom"/>
    </contour>
    <contour>
      <point x="774.827419693" y="-18.0" type="curve" smooth="yes"/>
      <point x="944.960686542" y="-18.0"/>
      <point x="1082.83508293" y="31.480343271"/>
      <point x="1128.47842746" y="66.1294352299" type="curve"/>
      <point x="1090.48034327" y="185.074795297" type="line"/>
      <point x="996.394053118" y="140.641428721"/>
      <point x="912.786190426" y="107.988505144"/>
      <point x="796.045060886" y="108.770863951" type="curve" smooth="yes"/>
      <point x="458.294352299" y="110.596367835"/>
      <point x="291.553222759" y="350.431450766"/>
      <point x="291.553222759" y="673.956854923" type="curve" smooth="yes"/>
      <point x="291.553222759" y="997.74304535"/>
      <point x="465.814009028" y="1237.1447617"/>
      <point x="770.307762965" y="1240.5349832" type="curve" smooth="yes"/>
      <point x="888.307762965" y="1242.88205963"/>
      <point x="1005.0469767" y="1206.27419693"/>
      <point x="1089.95877073" y="1152.7526244" type="curve"/>
      <point x="1145.60786269" y="1261.78427462" type="line"/>
      <point x="1056.13326685" y="1324.65292358"/>
      <point x="924.786190426" y="1368.08820596"/>
      <point x="764.348992232" y="1368.08820596" type="curve" smooth="yes"/>
      <point x="361.25887046" y="1368.08820596"/>
      <point x="132.176411925" y="1077.03931346"/>
      <point x="132.176411925" y="679.956854923" type="curve" smooth="yes"/>
      <point x="132.176411925" y="257.437198194"/>
      <point x="389.131351039" y="-18.0"/>
    </contour>
  </outline>
</glyph>
<glyph name="D" format="1">
  <advance width="1452.00000003"/>
  <unicode hex="0044"/>
  <outline>
    <contour>
      <point x="374.400000691" y="81.000000596" type="line"/>
      <point x="374.400000691" y="1271.79999939" type="line"/>
      <point x="318.400000572" y="1216.39999926" type="line"/>
      <point x="579.800000042" y="1216.39999926" type="line" smooth="yes"/>
      <point x="936.999999553" y="1216.39999926"/>
      <point x="1141.59999919" y="1063.79999936"/>
      <point x="1141.59999919" y="676.200000018" type="curve" smooth="yes"/>
      <point x="1141.59999919" y="322.800000608"/>
      <point x="961.199999392" y="139.200000763"/>
      <point x="605.200000048" y="139.200000763" type="curve" smooth="yes"/>
      <point x="318.800000578" y="139.200000763" type="line"/>
    </contour>
    <contour>
      <point x="190.799999654" y="0.0" type="line"/>
      <point x="610.999999851" y="0.0" type="line" smooth="yes"/>
      <point x="1046.19999993" y="0.0"/>
      <point x="1324.80000022" y="235.400000095"/>
      <point x="1324.80000022" y="680.600000024" type="curve" smooth="yes"/>
      <point x="1324.80000022" y="1148.39999989"/>
      <point x="1021.40000001" y="1353.19999999"/>
      <point x="584.399999887" y="1353.19999999" type="curve" smooth="yes"/>
      <point x="190.799999654" y="1353.19999999" type="line"/>
    </contour>
  </outline>
</glyph>
<glyph name="E" format="1">
  <advance width="1153.6000002"/>
  <unicode hex="0045"/>
  <outline>
    <contour>
      <point x="190.799999654" y="0.0" type="line"/>
      <point x="1021.00000015" y="0.0" type="line"/>
      <point x="1033.2000002" y="139.200000763" type="line"/>
      <point x="319.800000489" y="139.200000763" type="line"/>
      <point x="374.400000691" y="84.8000005782" type="line"/>
      <point x="374.400000691" y="685.400000006" type="line"/>
      <point x="319.400000483" y="633.19999972" type="line"/>
      <point x="969.000000358" y="633.19999972" type="line"/>
      <point x="969.000000358" y="770.000000447" type="line"/>
      <point x="319.800000489" y="770.000000447" type="line"/>
      <point x="374.400000691" y="717.600000232" type="line"/>
      <point x="374.400000691" y="1268.3999995" type="line"/>
      <point x="320.600000471" y="1216.39999926" type="line"/>
      <point x="1022.4000001" y="1216.39999926" type="line"/>
      <point x="1029.20000014" y="1353.19999999" type="line"/>
      <point x="190.799999654" y="1353.19999999" type="line"/>
    </contour>
  </outline>
</glyph>
<glyph name="F" format="1">
  <advance width="1052.80000055"/>
  <unicode hex="0046"/>
  <outline>
    <contour>
      <point x="190.799999654" y="0.0" type="line"/>
      <point x="376.800000668" y="0.0" type="line"/>
      <point x="376.800000668" y="669.199999988" type="line"/>
      <point x="309.600000381" y="612.199999601" type="line"/>
      <point x="939.000000596" y="612.199999601" type="line"/>
      <point x="939.000000596" y="745.600000352" type="line"/>
      <point x="304.400000393" y="745.600000352" type="line"/>
      <point x="376.800000668" y="693.400000125" type="line"/>
      <point x="376.800000668" y="1276.99999943" type="line"/>
      <point x="302.400000364" y="1212.3999992" type="line"/>
      <point x="986.600000679" y="1212.3999992" type="line"/>
      <point x="996.800000697" y="1353.19999999" type="line"/>
      <point x="190.799999654" y="1353.19999999" type="line"/>
    </contour>
  </outline>
</glyph>
<glyph name="G" format="1">
  <advance width="1387.79999983"/>
  <unicode hex="0047"/>
  <outline>
    <contour>
      <point x="772.399999857" y="-18.0" type="curve" smooth="yes"/>
      <point x="956.599999845" y="-18.0"/>
      <point x="1102.59999987" y="13.4000000358"/>
      <point x="1242.19999996" y="68.8000001311" type="curve"/>
      <point x="1242.19999996" y="696.400000304" type="line"/>
      <point x="778.199999273" y="696.400000304" type="line"/>
      <point x="772.799999326" y="553.799999654" type="line"/>
      <point x="1130.99999928" y="553.799999654" type="line"/>
      <point x="1074.99999917" y="609.799999774" type="line"/>
      <point x="1074.99999917" y="105.60000053" type="line"/>
      <point x="1128.9999994" y="189.200000972" type="line"/>
      <point x="1073.39999935" y="164.600000888"/>
      <point x="964.799999923" y="128.40000084"/>
      <point x="798.999999702" y="128.40000084" type="curve" smooth="yes"/>
      <point x="452.800000608" y="128.40000084"/>
      <point x="310.40000084" y="346.200000495"/>
      <point x="310.40000084" y="677.00000006" type="curve" smooth="yes"/>
      <point x="310.40000084" y="996.199999809"/>
      <point x="492.400000662" y="1226.79999918"/>
      <point x="795.600000083" y="1226.79999918" type="curve" smooth="yes"/>
      <point x="979.999999255" y="1226.79999918"/>
      <point x="1084.19999936" y="1170.19999945"/>
      <point x="1162.19999981" y="1128.19999927" type="curve"/>
      <point x="1206.80000004" y="1265.40000001" type="line"/>
      <point x="1091.59999979" y="1340.79999995"/>
      <point x="950.200000048" y="1371.19999999"/>
      <point x="790.99999997" y="1371.19999999" type="curve" smooth="yes"/>
      <point x="384.200000316" y="1371.19999999"/>
      <point x="126.799999803" y="1084.00000036"/>
      <point x="126.799999803" y="675.200000048" type="curve" smooth="yes"/>
      <point x="126.799999803" y="273.999999821"/>
      <point x="353.200000048" y="-18.0"/>
    </contour>
  </outline>
</glyph>
<glyph name="H" format="1">
  <advance width="1436.40000018"/>
  <unicode hex="0048"/>
  <outline>
    <contour>
      <point x="188.399999678" y="0.0" type="line"/>
      <point x="372.000000715" y="0.0" type="line"/>
      <point x="372.000000715" y="679.199999869" type="line"/>
      <point x="309.800000548" y="628.199999601" type="line"/>
      <point x="1130.39999962" y="628.199999601" type="line"/>
      <point x="1064.39999947" y="679.199999869" type="line"/>
      <point x="1064.39999947" y="0.0" type="line"/>
      <point x="1248.00000051" y="0.0" type="line"/>
      <point x="1248.00000051" y="1353.19999999" type="line"/>
      <point x="1064.39999947" y="1353.19999999" type="line"/>
      <point x="1064.39999947" y="711.800000131" type="line"/>
      <point x="1126.79999959" y="762.800000399" type="line"/>
      <point x="309.400000542" y="762.800000399" type="line"/>
      <point x="372.000000715" y="711.800000131" type="line"/>
      <point x="372.000000715" y="1353.19999999" type="line"/>
      <point x="188.399999678" y="1353.19999999" type="line"/>
    </contour>
  </outline>
</glyph>
<glyph name="I" format="1">
  <advance width="755.600000799"/>
  <unicode hex="0049"/>
  <outline>
    <contour>
      <point x="110.400000095" y="1353.19999999" type="line"/>
      <point x="110.400000095" y="1241.9999994" type="line"/>
      <point x="338.600000143" y="1241.9999994" type="line"/>
      <point x="286.799999893" y="1288.39999953" type="line"/>
      <point x="286.799999893" y="60.2000004649" type="line"/>
      <point x="341.200000107" y="111.200000584" type="line"/>
      <point x="110.400000095" y="111.200000584" type="line"/>
      <point x="110.400000095" y="0.0" type="line"/>
      <point x="645.200000703" y="0.0" type="line"/>
      <point x="645.200000703" y="111.200000584" type="line"/>
      <point x="412.60000065" y="111.200000584" type="line"/>
      <point x="470.40000093" y="61.000000447" type="line"/>
      <point x="470.40000093" y="1288.39999956" type="line"/>
      <point x="415.000000626" y="1241.9999994" type="line"/>
      <point x="645.200000703" y="1241.9999994" type="line"/>
      <point x="645.200000703" y="1353.19999999" type="line"/>
    </contour>
  </outline>
</glyph>
<glyph name="J" format="1">
  <advance width="738.400001079"/>
  <unicode hex="004A"/>
  <outline>
    <contour>
      <point x="130.800000906" y="-167.400000542" type="line"/>
      <point x="425.400000721" y="-167.400000542"/>
      <point x="547.600001425" y="-5.60000008345"/>
      <point x="547.600001425" y="281.200000197" type="curve" smooth="yes"/>
      <point x="547.600001425" y="1353.19999999" type="line"/>
      <point x="364.000000387" y="1353.19999999" type="line"/>
      <point x="364.000000387" y="260.000000328" type="line" smooth="yes"/>
      <point x="364.000000387" y="90.4000009894"/>
      <point x="302.000000447" y="-19.3999997377"/>
      <point x="115.200000674" y="-19.3999997377" type="curve" smooth="yes"/>
      <point x="10.6000001132" y="-19.3999997377" type="line"/>
      <point x="10.6000001132" y="-167.400000542" type="line"/>
    </contour>
  </outline>
</glyph>
<glyph name="K" format="1">
  <advance width="1258.60000071"/>
  <unicode hex="004B"/>
  <outline>
    <contour>
      <point x="190.799999654" y="0.0" type="line"/>
      <point x="374.400000691" y="0.0" type="line"/>
      <point x="374.400000691" y="614.599999905" type="line"/>
      <point x="327.800000638" y="507.799999654" type="line"/>
      <point x="544.000000805" y="703.599999666" type="line"/>
      <point x="467.200000525" y="709.599999726" type="line"/>
      <point x="1003.5999999" y="0.0" type="line"/>
      <point x="1218.20000106" y="0.0" type="line"/>
      <point x="591.200001389" y="808.000000149" type="line"/>
      <point x="595.400001347" y="712.999999642" type="line"/>
      <point x="1188.60000104" y="1353.19999999" type="line"/>
      <point x="974.799999863" y="1353.19999999" type="line"/>
      <point x="325.400000542" y="665.000000179" type="line"/>
      <point x="374.400000691" y="656.000000179" type="line"/>
      <point x="374.400000691" y="1353.19999999" type="line"/>
      <point x="190.799999654" y="1353.19999999" type="line"/>
    </contour>
  </outline>
</glyph>
<glyph name="L" format="1">
  <advance width="1061.20000029"/>
  <unicode hex="004C"/>
  <outline>
    <contour>
      <point x="190.799999654" y="0.0" type="line"/>
      <point x="998.400000364" y="0.0" type="line"/>
      <point x="1004.00000045" y="139.200000763" type="line"/>
      <point x="305.000000447" y="139.200000763" type="line"/>
      <point x="374.400000691" y="68.6000005305" type="line"/>
      <point x="374.400000691" y="1353.19999999" type="line"/>
      <point x="190.799999654" y="1353.19999999" type="line"/>
    </contour>
  </outline>
</glyph>
<glyph name="M" format="1">
  <advance width="1730.0000006"/>
  <unicode hex="004D"/>
  <outline>
    <contour>
      <point x="190.799999654" y="0.0" type="line"/>
      <point x="364.60000065" y="0.0" type="line"/>
      <point x="368.600000709" y="793.599996924" type="line"/>
      <point x="357.000000656" y="1191.19999802" type="line"/>
      <point x="323.200000495" y="1191.19999802" type="line"/>
      <point x="788.799999982" y="155.800000399" type="line"/>
      <point x="940.60000053" y="155.800000399" type="line"/>
      <point x="1414.60000005" y="1191.19999802" type="line"/>
      <point x="1375.59999993" y="1191.19999802" type="line"/>
      <point x="1362.99999988" y="797.199996918" type="line"/>
      <point x="1366.99999994" y="0.0" type="line"/>
      <point x="1539.20000094" y="0.0" type="line"/>
      <point x="1531.20000082" y="1353.19999999" type="line"/>
      <point x="1322.40000013" y="1353.19999999" type="line"/>
      <point x="831.400000155" y="275.200001419" type="line"/>
      <point x="902.800000399" y="275.200001419" type="line"/>
      <point x="413.800000459" y="1353.19999999" type="line"/>
      <point x="198.799999774" y="1353.19999999" type="line"/>
    </contour>
  </outline>
</glyph>
<glyph name="N" format="1">
  <advance width="1486.80000013"/>
  <unicode hex="004E"/>
  <outline>
    <contour>
      <point x="190.799999654" y="0.0" type="line"/>
      <point x="363.600000769" y="0.0" type="line"/>
      <point x="363.600000769" y="669.999997407" type="line"/>
      <point x="346.800000697" y="1195.59999871" type="line"/>
      <point x="304.200000554" y="1183.59999883" type="line"/>
      <point x="1103.99999923" y="0.0" type="line"/>
      <point x="1296.00000048" y="0.0" type="line"/>
      <point x="1296.00000048" y="1353.19999999" type="line"/>
      <point x="1123.19999936" y="1353.19999999" type="line"/>
      <point x="1123.19999936" y="622.600001872" type="line"/>
      <point x="1135.99999943" y="156.400001138" type="line"/>
      <point x="1178.19999951" y="159.400001109" type="line"/>
      <point x="376.000000864" y="1353.19999999" type="line"/>
      <point x="190.799999654" y="1353.19999999" type="line"/>
    </contour>
  </outline>
</glyph>
<glyph name="O" format="1">
  <advance width="1555.00000003"/>
  <unicode hex="004F"/>
  <outline>
    <contour>
      <point x="778.800000012" y="127.200000823" type="curve" smooth="yes"/>
      <point x="465.000000864" y="127.200000823"/>
      <point x="310.800000846" y="351.000000477"/>
      <point x="310.800000846" y="668.800000042" type="curve" smooth="yes"/>
      <point x="310.800000846" y="999.399999529"/>
      <point x="473.200000793" y="1225.19999915"/>
      <point x="779.400000006" y="1225.19999915" type="curve" smooth="yes"/>
      <point x="1086.19999921" y="1225.19999915"/>
      <point x="1244.19999918" y="998.199999541"/>
      <point x="1244.19999918" y="668.800000042" type="curve" smooth="yes"/>
      <point x="1244.19999918" y="351.000000477"/>
      <point x="1092.59999916" y="127.200000823"/>
    </contour>
    <contour>
      <point x="779.400000006" y="-18.0" type="curve" smooth="yes"/>
      <point x="1190.99999982" y="-18.0"/>
      <point x="1427.80000022" y="257.999999851"/>
      <point x="1427.80000022" y="668.400000066" type="curve" smooth="yes"/>
      <point x="1427.80000022" y="1094.20000017"/>
      <point x="1181.1999999" y="1371.19999999"/>
      <point x="780.0" y="1371.19999999" type="curve" smooth="yes"/>
      <point x="371.000000179" y="1371.19999999"/>
      <point x="127.199999809" y="1096.60000014"/>
      <point x="127.199999809" y="669.600000054" type="curve" smooth="yes"/>
      <point x="127.199999809" y="252.599999905"/>
      <point x="363.000000238" y="-18.0"/>
    </contour>
  </outline>
</glyph>
<glyph name="P" format="1">
  <advance width="1201.20000055"/>
  <unicode hex="0050"/>
  <outline>
    <contour>
      <point x="190.799999654" y="0.0" type="line"/>
      <point x="374.400000691" y="0.0" type="line"/>
      <point x="374.400000691" y="691.399999768" type="line"/>
      <point x="316.200000614" y="636.399999529" type="line"/>
      <point x="662.000000179" y="636.399999529" type="line" smooth="yes"/>
      <point x="990.400000781" y="636.399999529"/>
      <point x="1118.80000082" y="775.19999975"/>
      <point x="1118.80000082" y="1014.19999978" type="curve" smooth="yes"/>
      <point x="1118.80000082" y="1267.8000001"/>
      <point x="926.200000525" y="1353.19999999"/>
      <point x="665.000000149" y="1353.19999999" type="curve" smooth="yes"/>
      <point x="190.799999654" y="1353.19999999" type="line"/>
    </contour>
    <contour>
      <point x="652.800000012" y="776.80000031" type="curve" smooth="yes"/>
      <point x="316.800000638" y="776.80000031" type="line"/>
      <point x="374.400000691" y="727.400000095" type="line"/>
      <point x="374.400000691" y="1271.79999933" type="line"/>
      <point x="316.800000638" y="1216.39999926" type="line"/>
      <point x="661.200000197" y="1216.39999926" type="line" smooth="yes"/>
      <point x="829.400000125" y="1216.39999926"/>
      <point x="935.199999779" y="1166.99999934"/>
      <point x="935.199999779" y="1011.59999973" type="curve" smooth="yes"/>
      <point x="935.199999779" y="840.400000304"/>
      <point x="854.600000113" y="776.80000031"/>
    </contour>
  </outline>
</glyph>
<glyph name="Q" format="1">
  <advance width="1555.00000003"/>
  <unicode hex="0051"/>
  <outline>
    <contour>
      <point x="1174.99999985" y="-413.200000465" type="curve"/>
      <point x="1280.40000048" y="-317.799999952" type="line"/>
      <point x="1191.00000027" y="-226.599999756"/>
      <point x="1075.80000046" y="-63.7999996841"/>
      <point x="1028.40000048" y="29.2000001371" type="curve"/>
      <point x="878.799999595" y="-1.60000014305" type="line"/>
      <point x="960.599999547" y="-158.599999994"/>
      <point x="1102.19999948" y="-349.600000322"/>
    </contour>
    <component base="O"/>
  </outline>
</glyph>
<glyph name="R" format="1">
  <advance width="1334.1999999"/>
  <unicode hex="0052"/>
  <outline>
    <contour>
      <point x="190.799999654" y="0.0" type="line"/>
      <point x="374.400000691" y="0.0" type="line"/>
      <point x="374.400000691" y="675.39999941" type="line"/>
      <point x="317.000000626" y="632.199999362" type="line"/>
      <point x="838.599999696" y="632.199999362" type="line"/>
      <point x="747.799999446" y="684.999999374" type="line"/>
      <point x="862.39999944" y="415.59999916" type="line"/>
      <point x="1039.39999911" y="0.0" type="line"/>
      <point x="1230.20000023" y="0.0" type="line"/>
      <point x="1020.40000054" y="468.399999231" type="line"/>
      <point x="909.400000304" y="729.599999666" type="line"/>
      <point x="898.400000215" y="646.39999941" type="line"/>
      <point x="1069.59999999" y="686.199999541"/>
      <point x="1176.00000027" y="781.799999416"/>
      <point x="1176.00000027" y="998.399999648" type="curve" smooth="yes"/>
      <point x="1176.00000027" y="1248.80000025"/>
      <point x="1028.79999965" y="1353.19999999"/>
      <point x="740.199999481" y="1353.19999999" type="curve" smooth="yes"/>
      <point x="190.799999654" y="1353.19999999" type="line"/>
    </contour>
    <contour>
      <point x="374.400000691" y="710.999999791" type="line"/>
      <point x="374.400000691" y="1270.19999933" type="line"/>
      <point x="317.400000662" y="1216.39999926" type="line"/>
      <point x="744.199999571" y="1216.39999926" type="line" smooth="yes"/>
      <point x="938.199999273" y="1216.39999926"/>
      <point x="995.399999201" y="1138.19999942"/>
      <point x="995.399999201" y="996.19999963" type="curve" smooth="yes"/>
      <point x="995.399999201" y="828.399999917"/>
      <point x="946.999999255" y="761.799999952"/>
      <point x="717.999999732" y="761.799999952" type="curve" smooth="yes"/>
      <point x="316.200000614" y="761.799999952" type="line"/>
    </contour>
  </outline>
</glyph>
<glyph name="S" format="1">
  <advance width="1143.40000027"/>
  <unicode hex="0053"/>
  <outline>
    <contour>
      <point x="568.800000042" y="-18.0" type="curve" smooth="yes"/>
      <point x="829.000000328" y="-18.0"/>
      <point x="1025.20000041" y="90.2000002861"/>
      <point x="1034.20000032" y="358.200000226" type="curve" smooth="yes"/>
      <point x="1042.00000024" y="589.000000089"/>
      <point x="902.800000578" y="671.400000364"/>
      <point x="700.80000025" y="746.800000399" type="curve" smooth="yes"/>
      <point x="487.400000244" y="827.200000316" type="line" smooth="yes"/>
      <point x="367.600000829" y="873.600000054"/>
      <point x="321.600000918" y="920.00000006"/>
      <point x="325.200000882" y="1025.79999965" type="curve" smooth="yes"/>
      <point x="330.000000834" y="1178.9999992"/>
      <point x="458.000000298" y="1225.19999915"/>
      <point x="603.600000173" y="1225.19999915" type="curve" smooth="yes"/>
      <point x="751.399999887" y="1225.19999915"/>
      <point x="871.799999952" y="1156.59999931"/>
      <point x="924.80000034" y="1129.19999918" type="curve"/>
      <point x="988.800000519" y="1258.20000005" type="line"/>
      <point x="904.400000155" y="1316.40000015"/>
      <point x="761.600000083" y="1371.19999999"/>
      <point x="606.400000036" y="1371.19999999" type="curve" smooth="yes"/>
      <point x="374.999999672" y="1371.19999999"/>
      <point x="162.399999827" y="1281.79999956"/>
      <point x="153.999999911" y="1020.79999965" type="curve" smooth="yes"/>
      <point x="148.599999964" y="837.399999589"/>
      <point x="259.199999899" y="741.999999344"/>
      <point x="428.999999821" y="679.39999944" type="curve" smooth="yes"/>
      <point x="654.199999869" y="597.199999511" type="line" smooth="yes"/>
      <point x="814.199999243" y="536.999999791"/>
      <point x="869.199999243" y="483.799999803"/>
      <point x="864.999999285" y="357.400000274" type="curve" smooth="yes"/>
      <point x="859.599999338" y="192.400000691"/>
      <point x="758.799999654" y="127.200000823"/>
      <point x="575.800000072" y="127.200000823" type="curve" smooth="yes"/>
      <point x="411.400000393" y="127.200000823"/>
      <point x="284.400000036" y="182.800000697"/>
      <point x="199.000000119" y="244.200000584" type="curve"/>
      <point x="138.799999893" y="109.799999774" type="line"/>
      <point x="213.400000304" y="58.7999996245"/>
      <point x="344.200000525" y="-18.0"/>
    </contour>
  </outline>
</glyph>
<glyph name="T" format="1">
  <advance width="1097.40000048"/>
  <unicode hex="0054"/>
  <outline>
    <contour>
      <point x="455.399999738" y="0.0" type="line"/>
      <point x="639.000000775" y="0.0" type="line"/>
      <point x="639.000000775" y="1274.5999994" type="line"/>
      <point x="585.800000578" y="1211.99999911" type="line"/>
      <point x="1045.80000052" y="1211.99999911" type="line"/>
      <point x="1045.80000052" y="1353.19999999" type="line"/>
      <point x="51.5999999642" y="1353.19999999" type="line"/>
      <point x="51.5999999642" y="1211.99999911" type="line"/>
      <point x="508.599999934" y="1211.99999911" type="line"/>
      <point x="455.399999738" y="1273.79999942" type="line"/>
    </contour>
  </outline>
</glyph>
<glyph name="U" format="1">
  <advance width="1398.0000003"/>
  <unicode hex="0055"/>
  <outline>
    <contour>
      <point x="698.400000155" y="-18.0" type="curve" smooth="yes"/>
      <point x="1057.40000004" y="-18.0"/>
      <point x="1242.00000042" y="194.799999774"/>
      <point x="1242.00000042" y="492.999999911" type="curve" smooth="yes"/>
      <point x="1242.00000042" y="1353.19999999" type="line"/>
      <point x="1058.39999938" y="1353.19999999" type="line"/>
      <point x="1058.39999938" y="500.800000042" type="line" smooth="yes"/>
      <point x="1058.39999938" y="257.200000525"/>
      <point x="936.199999601" y="128.40000084"/>
      <point x="698.400000155" y="128.40000084" type="curve" smooth="yes"/>
      <point x="454.000000834" y="128.40000084"/>
      <point x="339.600000918" y="257.400000513"/>
      <point x="339.600000918" y="501.00000003" type="curve" smooth="yes"/>
      <point x="339.600000918" y="1353.19999999" type="line"/>
      <point x="155.999999881" y="1353.19999999" type="line"/>
      <point x="155.999999881" y="495.199999899" type="line" smooth="yes"/>
      <point x="155.999999881" y="195.799999744"/>
      <point x="340.200000256" y="-18.0"/>
    </contour>
  </outline>
</glyph>
<glyph name="V" format="1">
  <advance width="1302.0000006"/>
  <unicode hex="0056"/>
  <outline>
    <contour>
      <point x="564.599999517" y="0.0" type="line"/>
      <point x="737.200001061" y="0.0" type="line"/>
      <point x="1235.60000062" y="1353.19999999" type="line"/>
      <point x="1045.39999947" y="1353.19999999" type="line"/>
      <point x="752.400000125" y="507.800000787" type="line"/>
      <point x="623.200000286" y="130.400000602" type="line"/>
      <point x="682.400000364" y="130.400000602" type="line"/>
      <point x="552.600000501" y="504.400000811" type="line"/>
      <point x="258.000001132" y="1353.19999999" type="line"/>
      <point x="66.3999999762" y="1353.19999999" type="line"/>
    </contour>
  </outline>
</glyph>
<glyph name="W" format="1">
  <advance width="1935.9999997"/>
  <unicode hex="0057"/>
  <outline>
    <contour>
      <point x="456.799999416" y="0.0" type="line"/>
      <point x="631.400000364" y="0.0" type="line"/>
      <point x="993.599999845" y="1179.19999862" type="line"/>
      <point x="947.399999857" y="1179.19999862" type="line"/>
      <point x="1298.79999921" y="0.0" type="line"/>
      <point x="1476.00000015" y="0.0" type="line"/>
      <point x="1884.79999989" y="1352.59999999" type="line"/>
      <point x="1706.99999887" y="1352.59999999" type="line"/>
      <point x="1367.39999965" y="168.800001383" type="line"/>
      <point x="1405.39999962" y="168.800001383" type="line"/>
      <point x="1055.40000027" y="1327.40000018" type="line"/>
      <point x="881.599999428" y="1327.40000018" type="line"/>
      <point x="526.599999964" y="170.000001371" type="line"/>
      <point x="565.199999958" y="170.000001371" type="line"/>
      <point x="227.000000864" y="1352.59999999" type="line"/>
      <point x="51.1999998093" y="1352.59999999" type="line"/>
    </contour>
  </outline>
</glyph>
<glyph name="X" format="1">
  <advance width="1286.0000003"/>
  <unicode hex="0058"/>
  <outline>
    <contour>
      <point x="105.999999344" y="0.0" type="line"/>
      <point x="287.400000483" y="0.0" type="line"/>
      <point x="659.000000149" y="568.599999249" type="line"/>
      <point x="737.800000697" y="657.600000113" type="line"/>
      <point x="1180.80000073" y="1353.19999999" type="line"/>
      <point x="997.19999966" y="1353.19999999" type="line"/>
      <point x="649.800000161" y="794.400001019" type="line"/>
      <point x="558.599999607" y="703.000000209" type="line"/>
    </contour>
    <contour>
      <point x="1004.79999959" y="0.0" type="line"/>
      <point x="1189.60000086" y="0.0" type="line"/>
      <point x="293.000000834" y="1353.19999999" type="line"/>
      <point x="109.19999963" y="1353.19999999" type="line"/>
    </contour>
  </outline>
</glyph>
<glyph name="Y" format="1">
  <advance width="1174.94727588"/>
  <unicode hex="0059"/>
  <outline>
    <contour>
      <point x="597.213809574" y="997.199322906" type="move" name="top"/>
    </contour>
    <contour>
      <point x="521.74304535" y="0.0" type="line"/>
      <point x="679.555138568" y="0.0" type="line"/>
      <point x="679.555138568" y="618.784274617" type="line"/>
      <point x="636.643344531" y="473.878228008" type="line"/>
      <point x="1117.64142872" y="1349.30584716" type="line"/>
      <point x="961.570465043" y="1349.30584716" type="line"/>
      <point x="572.651007768" y="618.082458535" type="line"/>
      <point x="628.082458535" y="618.082458535" type="line"/>
      <point x="213.941528448" y="1349.30584716" type="line"/>
      <point x="57.3058471552" y="1349.30584716" type="line"/>
      <point x="569.915625656" y="465.531151585" type="line"/>
      <point x="521.74304535" y="617.958770733" type="line"/>
    </contour>
  </outline>
</glyph>
<glyph name="Z" format="1">
  <advance width="1157.8000004"/>
  <unicode hex="005A"/>
  <outline>
    <contour>
      <point x="140.00000006" y="0.0" type="line"/>
      <point x="1038.40000045" y="0.0" type="line"/>
      <point x="1045.00000039" y="139.200000763" type="line"/>
      <point x="292.800001353" y="139.200000763" type="line"/>
      <point x="319.00000146" y="79.6000005305" type="line"/>
      <point x="1037.80000037" y="1228.99999937" type="line"/>
      <point x="1032.40000042" y="1353.19999999" type="line"/>
      <point x="167.999999851" y="1353.19999999" type="line"/>
      <point x="167.999999851" y="1216.39999926" type="line"/>
      <point x="896.599999338" y="1216.39999926" type="line"/>
      <point x="863.199999243" y="1269.39999959" type="line"/>
      <point x="140.00000006" y="124.600000471" type="line"/>
    </contour>
  </outline>
</glyph>
<glyph name="bracketleft" format="1">
  <advance width="639.943444258"/>
  <unicode hex="005B"/>
  <outline>
    <contour>
      <point x="130.731550493" y="-240.319257821" type="line"/>
      <point x="538.337497376" y="-240.319257821" type="line"/>
      <point x="538.337497376" y="-133.979844636" type="line"/>
      <point x="263.371063405" y="-133.979844636" type="line"/>
      <point x="263.371063405" y="1267.30584716" type="line"/>
      <point x="538.337497376" y="1267.30584716" type="line"/>
      <point x="538.337497376" y="1374.86290153" type="line"/>
      <point x="130.731550493" y="1374.86290153" type="line"/>
    </contour>
  </outline>
</glyph>
<glyph name="backslash" format="1">
  <advance width="875.399999678"/>
  <unicode hex="005C"/>
  <outline>
    <contour>
      <point x="615.799999237" y="-33.5999996662" type="line"/>
      <point x="115.399999827" y="1346.79999989" type="line"/>
      <point x="254.600000739" y="1346.79999989" type="line"/>
      <point x="753.600000113" y="-33.5999996662" type="line"/>
    </contour>
  </outline>
</glyph>
<glyph name="bracketright" format="1">
  <advance width="663.000000924"/>
  <unicode hex="005D"/>
  <outline>
    <contour>
      <point x="108.000000179" y="-215.399998933" type="line"/>
      <point x="108.000000179" y="-95.399998337" type="line"/>
      <point x="366.39999947" y="-95.399998337" type="line"/>
      <point x="366.39999947" y="1264.39999989" type="line"/>
      <point x="108.000000179" y="1264.39999989" type="line"/>
      <point x="108.000000179" y="1386.00000048" type="line"/>
      <point x="519.600000381" y="1386.00000048" type="line"/>
      <point x="519.600000381" y="-215.399998933" type="line"/>
    </contour>
  </outline>
</glyph>
<glyph name="asciicircum" format="1">
  <advance width="1177.59999904"/>
  <unicode hex="005E"/>
  <outline>
    <contour>
      <point x="123.399999231" y="535.999999553" type="line"/>
      <point x="527.39999938" y="1379.99999967" type="line"/>
      <point x="618.799999714" y="1379.99999967" type="line"/>
      <point x="1045.79999989" y="535.999999553" type="line"/>
      <point x="920.199999064" y="535.999999553" type="line"/>
      <point x="573.399999559" y="1214.19999862" type="line"/>
      <point x="251.400000036" y="535.999999553" type="line"/>
    </contour>
  </outline>
</glyph>
<glyph name="underscore" format="1">
  <advance width="1008.30393135"/>
  <unicode hex="005F"/>
  <outline>
    <contour>
      <point x="80.7861904262" y="-252.617441738" type="line"/>
      <point x="918.647176149" y="-252.617441738" type="line"/>
      <point x="918.647176149" y="-142.668250052" type="line"/>
      <point x="80.7861904262" y="-142.668250052" type="line"/>
    </contour>
  </outline>
</glyph>
<glyph name="grave" format="1">
  <advance width="592.199998558"/>
  <unicode hex="0060"/>
  <outline>
    <contour>
      <point x="374.999999166" y="1137.99999943" type="line"/>
      <point x="473.999999821" y="1137.99999943" type="line"/>
      <point x="306.599999726" y="1490.59999952" type="line"/>
      <point x="81.9999989867" y="1490.59999952" type="line"/>
    </contour>
  </outline>
</glyph>
<glyph name="a" format="1">
  <advance width="1074.43528239"/>
  <unicode hex="0061"/>
  <outline>
    <contour>
      <point x="520.303931346" y="728.86473861" type="move" name="top"/>
    </contour>
    <contour>
      <point x="946.692237035" y="10.0" type="move" name="ogonek"/>
    </contour>
    <contour>
      <point x="426.564717615" y="-15.0431450766" type="curve" smooth="yes"/>
      <point x="553.302015536" y="-15.0431450766"/>
      <point x="704.739213731" y="32.6903212261"/>
      <point x="812.092037581" y="191.480343271" type="curve"/>
      <point x="774.397884737" y="198.0" type="line"/>
      <point x="803.395968927" y="2.95685492337" type="line"/>
      <point x="912.082458535" y="2.95685492337" type="line"/>
      <point x="912.082458535" y="657.043145077" type="line"/>
      <point x="912.082458535" y="920.347076422"/>
      <point x="764.427619148" y="1014.38830569"/>
      <point x="530.474595843" y="1014.38830569" type="curve" smooth="yes"/>
      <point x="408.607862692" y="1014.38830569"/>
      <point x="260.390221499" y="978.170664497"/>
      <point x="173.654839387" y="933.431450766" type="curve"/>
      <point x="179.568549234" y="916.429534957"/>
      <point x="206.392137308" y="843.658671006"/>
      <point x="213.784274617" y="827.395968927" type="curve"/>
      <point x="303.827419693" y="872.744961159"/>
      <point x="439.825503884" y="901.527319966"/>
      <point x="537.174496116" y="901.527319966" type="curve" smooth="yes"/>
      <point x="690.180243544" y="901.527319966"/>
      <point x="763.529235776" y="822.523488348"/>
      <point x="763.529235776" y="679.390221499" type="curve" smooth="yes"/>
      <point x="763.529235776" y="559.38638988" type="line"/>
      <point x="796.137098467" y="593.690321226" type="line"/>
      <point x="784.662502624" y="592.647176149"/>
      <point x="592.348992232" y="590.300099727"/>
      <point x="576.701816082" y="588.474595843" type="curve" smooth="yes"/>
      <point x="259.390221499" y="581.694152845"/>
      <point x="116.435282385" y="476.213809574"/>
      <point x="116.435282385" y="263.302015536" type="curve" smooth="yes"/>
      <point x="116.435282385" y="79.9568549234"/>
      <point x="247.607862692" y="-15.0431450766"/>
    </contour>
    <contour>
      <point x="434.037397649" y="95.4707642242" type="curve" smooth="yes"/>
      <point x="345.602115263" y="95.4707642242"/>
      <point x="264.684573798" y="147.384474071"/>
      <point x="264.684573798" y="264.823588075" type="curve" smooth="yes"/>
      <point x="264.684573798" y="409.913709847"/>
      <point x="333.378726643" y="490.350908041"/>
      <point x="617.0" y="494.262702079" type="curve"/>
      <point x="617.0" y="494.262702079"/>
      <point x="787.270365316" y="496.088205963"/>
      <point x="792.486090699" y="496.609778501" type="curve"/>
      <point x="763.268449507" y="527.827419693" type="line"/>
      <point x="763.268449507" y="222.564717615" type="line"/>
      <point x="795.876312198" y="321.176411925" type="line"/>
      <point x="716.043145077" y="167.119856183"/>
      <point x="581.954939114" y="95.4707642242"/>
    </contour>
  </outline>
</glyph>
<glyph name="b" format="1">
  <advance width="1172.59999982"/>
  <unicode hex="0062"/>
  <outline>
    <contour>
      <point x="640.800000161" y="-18.0" type="curve" smooth="yes"/>
      <point x="914.199999958" y="-18.0"/>
      <point x="1067.00000003" y="188.800000131"/>
      <point x="1067.00000003" y="499.200000197" type="curve" smooth="yes"/>
      <point x="1067.00000003" y="807.600000113"/>
      <point x="925.399999946" y="1018.80000022"/>
      <point x="647.200000137" y="1018.80000022" type="curve" smooth="yes"/>
      <point x="487.600000292" y="1018.80000022"/>
      <point x="360.200000495" y="921.600000381"/>
      <point x="299.400000483" y="799.400000781" type="curve"/>
      <point x="329.400000483" y="792.200000674" type="line"/>
      <point x="331.800000519" y="1022.60000056" type="line"/>
      <point x="331.800000519" y="1382.39999986" type="line"/>
      <point x="159.19999969" y="1369.99999982" type="line"/>
      <point x="159.19999969" y="0.40000000596" type="line"/>
      <point x="300.400000483" y="0.40000000596" type="line"/>
      <point x="321.800000548" y="244.199999273" type="line"/>
      <point x="278.000000566" y="235.799999177" type="line"/>
      <point x="323.800000697" y="125.399999321"/>
      <point x="448.400000751" y="-18.0"/>
    </contour>
    <contour>
      <point x="618.599999756" y="112.400000662" type="curve" smooth="yes"/>
      <point x="440.80000025" y="112.400000662"/>
      <point x="328.000000507" y="244.600000322"/>
      <point x="328.000000507" y="514.400000125" type="curve"/>
      <point x="328.200000525" y="746.200000107"/>
      <point x="425.400000483" y="888.799999565"/>
      <point x="625.399999738" y="888.799999565" type="curve" smooth="yes"/>
      <point x="816.399999082" y="888.799999565"/>
      <point x="896.199999183" y="734.800000161"/>
      <point x="896.199999183" y="499.200000167" type="curve" smooth="yes"/>
      <point x="896.199999183" y="256.400000244"/>
      <point x="807.199999124" y="112.400000662"/>
    </contour>
  </outline>
</glyph>
<glyph name="c" format="1">
  <advance width="939.086290153"/>
  <unicode hex="0063"/>
  <outline>
    <contour>
      <point x="472.825503884" y="728.86473861" type="move" name="top"/>
    </contour>
    <contour>
      <point x="472.825503884" y="0.0" type="move" name="bottom"/>
    </contour>
    <contour>
      <point x="578.739213731" y="-18.0" type="curve" smooth="yes"/>
      <point x="709.037397649" y="-18.0"/>
      <point x="806.735382112" y="21.7804429981"/>
      <point x="842.431450766" y="50.6941528448" type="curve"/>
      <point x="813.127519421" y="151.641428721" type="line"/>
      <point x="763.564717615" y="123.468848415"/>
      <point x="680.694152845" y="96.6864896074"/>
      <point x="597.347076422" y="97.9904209532" type="curve" smooth="yes"/>
      <point x="372.511993491" y="99.8159248373"/>
      <point x="260.164917069" y="272.041229267"/>
      <point x="260.164917069" y="490.823588075" type="curve" smooth="yes"/>
      <point x="260.164917069" y="732.782358807"/>
      <point x="386.425703338" y="897.658671006"/>
      <point x="609.521572538" y="897.658671006" type="curve" smooth="yes"/>
      <point x="649.035481839" y="897.658671006"/>
      <point x="723.253123032" y="889.184075163"/>
      <point x="801.302015536" y="846.050808314" type="curve"/>
      <point x="845.039313458" y="946.433366576" type="line"/>
      <point x="782.25887046" y="985.431450766"/>
      <point x="691.433366576" y="1013.64909196"/>
      <point x="589.131351039" y="1013.64909196" type="curve" smooth="yes"/>
      <point x="307.696068654" y="1013.64909196"/>
      <point x="110.61169431" y="802.776611379"/>
      <point x="110.61169431" y="491.605946882" type="curve" smooth="yes"/>
      <point x="110.61169431" y="195.133266849"/>
      <point x="294.088205963" y="-18.0"/>
    </contour>
  </outline>
</glyph>
<glyph name="d" format="1">
  <advance width="1171.00191581"/>
  <unicode hex="0064"/>
  <outline>
    <contour>
      <point x="570.694152845" y="363.693155574" type="move" name="center"/>
    </contour>
    <contour>
      <point x="539.003831619" y="-17.7392137308" type="curve" smooth="yes"/>
      <point x="753.527319966" y="-17.7392137308"/>
      <point x="850.22530443" y="122.003831619"/>
      <point x="897.399800546" y="258.097785009" type="curve"/>
      <point x="859.96643397" y="261.054639933" type="line"/>
      <point x="879.921373084" y="0.0" type="line"/>
      <point x="1004.56280181" y="0.0" type="line"/>
      <point x="1004.56280181" y="1392.26078627" type="line"/>
      <point x="853.531151585" y="1380.43528239" type="line"/>
      <point x="853.531151585" y="1063.08820596" type="line" smooth="yes"/>
      <point x="864.270365316" y="752.204230527" type="line"/>
      <point x="895.617441738" y="761.376810834" type="line"/>
      <point x="835.660586815" y="892.598283645"/>
      <point x="752.358571279" y="1013.64909196"/>
      <point x="536.786190426" y="1013.64909196" type="curve" smooth="yes"/>
      <point x="270.350908041" y="1013.64909196"/>
      <point x="110.61169431" y="804.562801806"/>
      <point x="110.61169431" y="503.694152845" type="curve" smooth="yes"/>
      <point x="110.61169431" y="188.911794037"/>
      <point x="258.784274617" y="-17.7392137308"/>
    </contour>
    <contour>
      <point x="550.651007768" y="96.9472758765" type="curve" smooth="yes"/>
      <point x="343.686489607" y="96.9472758765"/>
      <point x="261.643344531" y="264.651007768"/>
      <point x="261.643344531" y="500.911794037" type="curve" smooth="yes"/>
      <point x="261.643344531" y="747.347076422"/>
      <point x="357.555138568" y="898.441029813"/>
      <point x="558.694152845" y="898.441029813" type="curve" smooth="yes"/>
      <point x="746.874396389" y="898.441029813"/>
      <point x="858.617441738" y="754.564717615"/>
      <point x="858.617441738" y="485.911794037" type="curve"/>
      <point x="858.0958692" y="253.694152845"/>
      <point x="768.703731892" y="96.9472758765"/>
    </contour>
  </outline>
</glyph>
<glyph name="e" format="1">
  <advance width="1085.99616838"/>
  <unicode hex="0065"/>
  <outline>
    <contour>
      <point x="538.866733151" y="728.86473861" type="move" name="top"/>
    </contour>
    <contour>
      <point x="962.164917069" y="10.0" type="move" name="ogonek"/>
    </contour>
    <contour>
      <point x="538.866733151" y="0.0" type="move" name="bottom"/>
    </contour>
    <contour>
      <point x="591.953023305" y="-18.0" type="curve" smooth="yes"/>
      <point x="739.082458535" y="-18.0"/>
      <point x="854.51582511" y="14.9137098467"/>
      <point x="949.037397649" y="69.2607862692" type="curve"/>
      <point x="914.776611379" y="170.9041308" type="line"/>
      <point x="818.074795297" y="123.814009028"/>
      <point x="719.076711106" y="97.1217719924"/>
      <point x="604.864817342" y="97.1217719924" type="curve" smooth="yes"/>
      <point x="409.688405417" y="97.1217719924"/>
      <point x="257.729634684" y="214.602115263"/>
      <point x="257.990420953" y="506.045060886" type="curve"/>
      <point x="217.121771992" y="476.829335503" type="line"/>
      <point x="966.819756456" y="476.829335503" type="line"/>
      <point x="966.819756456" y="476.829335503"/>
      <point x="972.341328994" y="526.737297921"/>
      <point x="972.341328994" y="552.086290153" type="curve" smooth="yes"/>
      <point x="972.341328994" y="830.390221499"/>
      <point x="828.51774092" y="1013.64909196"/>
      <point x="578.347076422" y="1013.64909196" type="curve" smooth="yes"/>
      <point x="323.350908041" y="1013.38830569"/>
      <point x="110.61169431" y="816.694152845"/>
      <point x="110.61169431" y="492.041229267" type="curve" smooth="yes"/>
      <point x="110.61169431" y="174.12943523"/>
      <point x="310.956854923" y="-18.0"/>
    </contour>
    <contour>
      <point x="261.772779761" y="538.213809574" type="line"/>
      <point x="269.9041308" y="757.911794037"/>
      <point x="403.425703338" y="901.309678774"/>
      <point x="582.564717615" y="901.309678774" type="curve" smooth="yes"/>
      <point x="756.48417489" y="901.309678774"/>
      <point x="839.962602351" y="774.088205963"/>
      <point x="841.005747428" y="532.343244804" type="curve"/>
      <point x="885.180243544" y="572.343244804" type="line"/>
      <point x="217.643344531" y="572.343244804" type="line"/>
    </contour>
  </outline>
</glyph>
<glyph name="f" format="1">
  <advance width="720.200000286"/>
  <unicode hex="0066"/>
  <outline>
    <contour>
      <point x="247.799999714" y="0.0" type="line"/>
      <point x="418.60000056" y="0.0" type="line"/>
      <point x="418.60000056" y="927.399999708" type="line"/>
      <point x="378.60000056" y="886.999999523" type="line"/>
      <point x="655.000000566" y="886.999999523" type="line"/>
      <point x="655.000000566" y="998.000000179" type="line"/>
      <point x="375.800000489" y="998.000000179" type="line"/>
      <point x="418.60000056" y="963.800000012" type="line"/>
      <point x="418.60000056" y="1065.80000001" type="line" smooth="yes"/>
      <point x="418.60000056" y="1244.99999949"/>
      <point x="476.000000477" y="1267.19999945"/>
      <point x="568.80000037" y="1267.19999945" type="curve" smooth="yes"/>
      <point x="611.200000346" y="1267.19999945"/>
      <point x="668.000000268" y="1258.79999948"/>
      <point x="680.000000447" y="1256.79999945" type="curve"/>
      <point x="693.400000542" y="1377.00000009" type="line"/>
      <point x="666.600000143" y="1382.20000017"/>
      <point x="605.200000137" y="1393.00000012"/>
      <point x="537.200000226" y="1393.00000012" type="curve" smooth="yes"/>
      <point x="360.200000048" y="1393.00000012"/>
      <point x="247.799999714" y="1312.20000023"/>
      <point x="247.799999714" y="1054.99999991" type="curve" smooth="yes"/>
      <point x="247.799999714" y="963.0" type="line"/>
      <point x="289.799999744" y="1001.40000018" type="line"/>
      <point x="77.400000006" y="981.200000167" type="line"/>
      <point x="72.400000006" y="886.999999523" type="line"/>
      <point x="281.799999774" y="886.999999523" type="line"/>
      <point x="247.799999714" y="930.19999972" type="line"/>
    </contour>
  </outline>
</glyph>
<glyph name="g" format="1">
  <advance width="1179.5999997"/>
  <unicode hex="0067"/>
  <outline>
    <contour>
      <point x="563.999999911" y="130.200000644" type="curve" smooth="yes"/>
      <point x="345.000000387" y="130.200000644"/>
      <point x="268.800000519" y="328.800000042"/>
      <point x="268.800000519" y="504.400000215" type="curve" smooth="yes"/>
      <point x="268.800000519" y="692.600000232"/>
      <point x="350.000000477" y="887.999999553"/>
      <point x="569.399999946" y="887.999999553" type="curve"/>
      <point x="784.599999368" y="887.999999553"/>
      <point x="862.399999201" y="741.999999911"/>
      <point x="862.399999201" y="543.199999928" type="curve" smooth="yes"/>
      <point x="862.399999201" y="467.200000405" type="line"/>
      <point x="861.599999189" y="289.400000334"/>
      <point x="780.199999452" y="130.200000644"/>
    </contour>
    <contour>
      <point x="476.19999972" y="-442.600000411" type="curve" smooth="yes"/>
      <point x="866.599999487" y="-442.600000411"/>
      <point x="1028.79999998" y="-216.600000471"/>
      <point x="1028.79999998" y="98.2000001371" type="curve" smooth="yes"/>
      <point x="1028.79999998" y="998.000000179" type="line"/>
      <point x="873.799999267" y="998.000000179" type="line"/>
      <point x="858.799999237" y="795.400000483" type="line"/>
      <point x="891.399999261" y="799.000000536" type="line"/>
      <point x="840.399999201" y="937.400000572"/>
      <point x="724.199999243" y="1018.80000022"/>
      <point x="554.399999619" y="1018.80000022" type="curve" smooth="yes"/>
      <point x="251.600000292" y="1018.80000022"/>
      <point x="97.9999996722" y="780.200000733"/>
      <point x="97.9999996722" y="496.200000226" type="curve" smooth="yes"/>
      <point x="97.9999996722" y="248.999999642"/>
      <point x="245.00000003" y="0.0"/>
      <point x="542.799999654" y="0.0" type="curve" smooth="yes"/>
      <point x="731.799999148" y="0.0"/>
      <point x="860.399999171" y="100.799999386"/>
      <point x="900.799999267" y="256.999999821" type="curve"/>
      <point x="861.199999183" y="259.799999893" type="line"/>
      <point x="861.199999183" y="57.3999995291" type="line" smooth="yes"/>
      <point x="861.199999183" y="-176.599999815"/>
      <point x="745.999999106" y="-308.999999732"/>
      <point x="468.199999779" y="-308.999999732" type="curve" smooth="yes"/>
      <point x="455.399999857" y="-308.999999732"/>
      <point x="430.599328934" y="-309.051795825"/>
      <point x="255.999999523" y="-302.799999744" type="curve"/>
      <point x="255.999999523" y="-436.400000423" type="line"/>
      <point x="453.999263612" y="-442.664203711"/>
      <point x="465.599999756" y="-442.600000411"/>
    </contour>
  </outline>
</glyph>
<glyph name="h" format="1">
  <advance width="1135.04314508"/>
  <unicode hex="0068"/>
  <outline>
    <contour>
      <point x="552.043145077" y="728.86473861" type="move" name="top"/>
    </contour>
    <contour>
      <point x="552.043145077" y="365.171583036" type="move" name="center"/>
    </contour>
    <contour>
      <point x="166.439114004" y="0.0" type="line"/>
      <point x="316.688405417" y="0.0" type="line"/>
      <point x="316.688405417" y="547.180243544" type="line" smooth="yes"/>
      <point x="316.688405417" y="718.219557002"/>
      <point x="376.907962419" y="898.701816082"/>
      <point x="618.392137308" y="898.701816082" type="curve" smooth="yes"/>
      <point x="772.570465043" y="898.701816082"/>
      <point x="827.572380852" y="802.350908041"/>
      <point x="827.572380852" y="609.12943523" type="curve" smooth="yes"/>
      <point x="827.572380852" y="0.0" type="line"/>
      <point x="978.604031073" y="0.0" type="line"/>
      <point x="978.604031073" y="614.38830569" type="line" smooth="yes"/>
      <point x="978.604031073" y="868.472680034"/>
      <point x="863.25887046" y="1013.64909196"/>
      <point x="644.823588075" y="1013.64909196" type="curve" smooth="yes"/>
      <point x="471.994252572" y="1013.64909196"/>
      <point x="335.602115263" y="931.25695465"/>
      <point x="273.255038841" y="780.382558262" type="curve"/>
      <point x="310.427619148" y="767.77469557" type="line"/>
      <point x="317.470764224" y="1048.03739765" type="line"/>
      <point x="317.470764224" y="1392.26078627" type="line"/>
      <point x="166.439114004" y="1380.43528239" type="line"/>
    </contour>
  </outline>
</glyph>
<glyph name="i" format="1">
  <advance width="490.400000304"/>
  <unicode hex="0069"/>
  <outline>
    <contour>
      <point x="162.799999744" y="0.0" type="line"/>
      <point x="333.60000059" y="0.0" type="line"/>
      <point x="333.60000059" y="998.000000179" type="line"/>
      <point x="162.799999744" y="998.000000179" type="line"/>
    </contour>
    <contour>
      <point x="162.799999744" y="1188.19999969" type="line"/>
      <point x="333.60000059" y="1188.19999969" type="line"/>
      <point x="333.60000059" y="1353.19999999" type="line"/>
      <point x="162.799999744" y="1353.19999999" type="line"/>
    </contour>
  </outline>
</glyph>
<glyph name="j" format="1">
  <advance width="525.400000364"/>
  <unicode hex="006A"/>
  <outline>
    <contour>
      <point x="26.599999696" y="-398.199999809" type="line"/>
      <point x="73.9999998212" y="-398.199999809" type="line" smooth="yes"/>
      <point x="318.200000554" y="-398.199999809"/>
      <point x="373.000000626" y="-311.399999291"/>
      <point x="373.000000626" y="-67.3999989331" type="curve" smooth="yes"/>
      <point x="373.000000626" y="998.400000185" type="line"/>
      <point x="202.199999809" y="998.400000185" type="line"/>
      <point x="202.199999809" y="-51.9999995232" type="line" smooth="yes"/>
      <point x="202.199999809" y="-221.599999279"/>
      <point x="196.399999738" y="-256.599999309"/>
      <point x="54.1999997497" y="-256.599999309" type="curve" smooth="yes"/>
      <point x="7.19999960065" y="-256.599999309" type="line"/>
    </contour>
    <contour>
      <point x="202.199999809" y="1188.19999969" type="line"/>
      <point x="373.000000626" y="1188.19999969" type="line"/>
      <point x="373.000000626" y="1353.19999999" type="line"/>
      <point x="202.199999809" y="1353.19999999" type="line"/>
    </contour>
  </outline>
</glyph>
<glyph name="k" format="1">
  <advance width="1051.80000046"/>
  <unicode hex="006B"/>
  <outline>
    <contour>
      <point x="159.19999969" y="0.0" type="line"/>
      <point x="330.000000536" y="0.0" type="line"/>
      <point x="330.000000536" y="404.200000167" type="line"/>
      <point x="286.80000037" y="314.399999797" type="line"/>
      <point x="474.200000376" y="486.799999863" type="line"/>
      <point x="412.000000268" y="486.799999863" type="line"/>
      <point x="825.399999619" y="0.0" type="line"/>
      <point x="1025.00000063" y="0.0" type="line"/>
      <point x="529.000001013" y="579.600000352" type="line"/>
      <point x="529.000001013" y="502.799999982" type="line"/>
      <point x="1011.80000052" y="998.000000179" type="line"/>
      <point x="802.799999386" y="998.000000179" type="line"/>
      <point x="287.800000459" y="472.60000056" type="line"/>
      <point x="323.60000053" y="472.60000056" type="line"/>
      <point x="330.000000536" y="708.200000763" type="line"/>
      <point x="330.000000536" y="1382.39999986" type="line"/>
      <point x="159.19999969" y="1369.99999982" type="line"/>
    </contour>
  </outline>
</glyph>
<glyph name="l" format="1">
  <advance width="606.800000727"/>
  <unicode hex="006C"/>
  <outline>
    <contour>
      <point x="464.800000489" y="-11.2000000179" type="curve" smooth="yes"/>
      <point x="533.200000554" y="-11.2000000179"/>
      <point x="590.000000656" y="0.200000047684"/>
      <point x="604.800000578" y="3.20000004768" type="curve"/>
      <point x="604.800000578" y="122.000000656" type="line"/>
      <point x="591.000000507" y="120.60000065"/>
      <point x="536.200000465" y="113.800000638"/>
      <point x="492.800000608" y="113.800000638" type="curve" smooth="yes"/>
      <point x="384.40000084" y="113.800000638"/>
      <point x="330.800000548" y="151.600000471"/>
      <point x="330.800000548" y="297.40000093" type="curve" smooth="yes"/>
      <point x="330.800000548" y="1382.39999986" type="line"/>
      <point x="159.999999702" y="1369.99999982" type="line"/>
      <point x="159.999999702" y="305.600000948" type="line" smooth="yes"/>
      <point x="159.999999702" y="66.4000005722"/>
      <point x="280.799999565" y="-11.2000000179"/>
    </contour>
  </outline>
</glyph>
<glyph name="m" format="1">
  <advance width="1680.80000016"/>
  <unicode hex="006D"/>
  <outline>
    <contour>
      <point x="159.19999969" y="0.0" type="line"/>
      <point x="330.000000536" y="0.0" type="line"/>
      <point x="330.000000536" y="589.399999052" type="line" smooth="yes"/>
      <point x="351.000000328" y="758.799999356"/>
      <point x="426.199999809" y="888.399999559"/>
      <point x="589.800000012" y="888.399999559" type="curve" smooth="yes"/>
      <point x="728.999999791" y="888.399999559"/>
      <point x="765.19999963" y="786.999999672"/>
      <point x="765.19999963" y="563.000000268" type="curve" smooth="yes"/>
      <point x="765.19999963" y="0.0" type="line"/>
      <point x="936.000000477" y="0.0" type="line"/>
      <point x="936.000000477" y="523.400000721" type="line"/>
      <point x="938.275814114" y="597.00973762"/>
      <point x="940.436912952" y="645.703135348"/>
      <point x="948.784088259" y="674.140751447" type="curve" smooth="yes"/>
      <point x="983.611963746" y="816.831523762"/>
      <point x="1080.47586583" y="888.399999559"/>
      <point x="1191.79999989" y="888.399999559" type="curve" smooth="yes"/>
      <point x="1361.39999935" y="888.399999559"/>
      <point x="1360.79999962" y="721.200000405"/>
      <point x="1360.79999962" y="568.200000107" type="curve" smooth="yes"/>
      <point x="1360.79999962" y="0.0" type="line"/>
      <point x="1531.60000047" y="0.0" type="line"/>
      <point x="1531.60000047" y="641.800000042" type="line" smooth="yes"/>
      <point x="1531.60000047" y="886.200000107"/>
      <point x="1432.40000042" y="1018.80000022"/>
      <point x="1221.80000019" y="1018.80000022" type="curve" smooth="yes"/>
      <point x="1055.80000055" y="1018.80000022"/>
      <point x="941.200000495" y="924.60000056"/>
      <point x="873.400000364" y="779.200000674" type="curve"/>
      <point x="914.200000525" y="779.200000674" type="line"/>
      <point x="871.400000334" y="911.000000685"/>
      <point x="803.000000179" y="1018.80000022"/>
      <point x="622.200000435" y="1018.80000022" type="curve" smooth="yes"/>
      <point x="457.000000298" y="1018.80000022"/>
      <point x="345.600000322" y="923.600000262"/>
      <point x="280.400000393" y="797.60000053" type="curve"/>
      <point x="325.000000477" y="788.60000056" type="line"/>
      <point x="297.600000381" y="998.000000179" type="line"/>
      <point x="159.19999969" y="998.000000179" type="line"/>
    </contour>
  </outline>
</glyph>
<glyph name="n" format="1">
  <advance width="1146.80000028"/>
  <unicode hex="006E"/>
  <outline>
    <contour>
      <point x="159.19999969" y="0.0" type="line"/>
      <point x="330.000000536" y="0.0" type="line"/>
      <point x="330.000000536" y="545.799999505" type="line" smooth="yes"/>
      <point x="330.000000536" y="730.599999785"/>
      <point x="396.200000525" y="888.399999559"/>
      <point x="630.200000137" y="888.399999559" type="curve" smooth="yes"/>
      <point x="784.999999851" y="888.399999559"/>
      <point x="826.999999732" y="787.999999732"/>
      <point x="826.799999744" y="622.799999893" type="curve"/>
      <point x="826.799999744" y="0.0" type="line"/>
      <point x="997.60000059" y="0.0" type="line"/>
      <point x="997.60000059" y="612.400000274" type="line" smooth="yes"/>
      <point x="997.60000059" y="880.200000107"/>
      <point x="892.400000513" y="1018.80000022"/>
      <point x="662.800000459" y="1018.80000022" type="curve" smooth="yes"/>
      <point x="475.000000566" y="1018.80000022"/>
      <point x="357.600000501" y="933.600000292"/>
      <point x="290.000000298" y="808.000000328" type="curve"/>
      <point x="331.200000405" y="808.000000328" type="line"/>
      <point x="305.400000304" y="998.000000179" type="line"/>
      <point x="159.19999969" y="998.000000179" type="line"/>
    </contour>
  </outline>
</glyph>
<glyph name="o" format="1">
  <advance width="1157.20000011"/>
  <unicode hex="006F"/>
  <outline>
    <contour>
      <point x="578.600000054" y="112.000000656" type="curve" smooth="yes"/>
      <point x="379.60000053" y="112.000000656"/>
      <point x="275.200000644" y="271.800000191"/>
      <point x="275.200000644" y="497.600000143" type="curve" smooth="yes"/>
      <point x="275.200000644" y="727.600000024"/>
      <point x="380.400000542" y="888.399999559"/>
      <point x="578.600000054" y="888.399999559" type="curve" smooth="yes"/>
      <point x="781.199999541" y="888.399999559"/>
      <point x="881.999999464" y="727.00000003"/>
      <point x="881.999999464" y="497.000000149" type="curve" smooth="yes"/>
      <point x="881.999999464" y="271.000000179"/>
      <point x="782.599999517" y="112.000000656"/>
    </contour>
    <contour>
      <point x="578.600000054" y="-18.0" type="curve" smooth="yes"/>
      <point x="862.600000292" y="-18.0"/>
      <point x="1051.60000032" y="195.799999893"/>
      <point x="1051.60000032" y="498.800000131" type="curve" smooth="yes"/>
      <point x="1051.60000032" y="808.000000268"/>
      <point x="873.200000077" y="1018.80000022"/>
      <point x="578.600000054" y="1018.80000022" type="curve" smooth="yes"/>
      <point x="284.399999917" y="1018.80000022"/>
      <point x="105.599999785" y="808.200000346"/>
      <point x="105.599999785" y="498.800000131" type="curve" smooth="yes"/>
      <point x="105.599999785" y="195.99999994"/>
      <point x="289.599999994" y="-18.0"/>
    </contour>
  </outline>
</glyph>
<glyph name="p" format="1">
  <advance width="1168.99999988"/>
  <unicode hex="0070"/>
  <outline>
    <contour>
      <point x="160.399999708" y="-432.599999756" type="line"/>
      <point x="331.200000554" y="-422.599999726" type="line"/>
      <point x="331.200000554" y="-54.5999996066" type="line"/>
      <point x="321.60000059" y="267.59999916" type="line"/>
      <point x="282.200000495" y="239.999999195" type="line"/>
      <point x="327.000000417" y="121.799999744"/>
      <point x="444.600000352" y="-18.0"/>
      <point x="644.200000107" y="-18.0" type="curve" smooth="yes"/>
      <point x="909.00000006" y="-18.0"/>
      <point x="1063.4000001" y="195.600000113"/>
      <point x="1063.4000001" y="496.800000161" type="curve" smooth="yes"/>
      <point x="1063.4000001" y="802.400000036"/>
      <point x="919.200000048" y="1018.80000022"/>
      <point x="647.80000028" y="1018.80000022" type="curve" smooth="yes"/>
      <point x="484.400000632" y="1018.80000022"/>
      <point x="353.800000548" y="924.800000578"/>
      <point x="288.600000352" y="774.000000685" type="curve"/>
      <point x="327.000000596" y="771.000000715" type="line"/>
      <point x="303.400000483" y="998.000000179" type="line"/>
      <point x="160.399999708" y="998.000000179" type="line"/>
    </contour>
    <contour>
      <point x="616.599999905" y="112.400000662" type="curve" smooth="yes"/>
      <point x="434.200000286" y="112.400000662"/>
      <point x="328.60000056" y="256.000000209"/>
      <point x="328.60000056" y="515.000000149" type="curve"/>
      <point x="329.400000572" y="743.600000113"/>
      <point x="420.200000465" y="888.399999559"/>
      <point x="622.199999809" y="888.399999559" type="curve" smooth="yes"/>
      <point x="812.199999183" y="888.399999559"/>
      <point x="892.599999249" y="732.800000131"/>
      <point x="892.599999249" y="498.800000161" type="curve" smooth="yes"/>
      <point x="892.599999249" y="260.400000304"/>
      <point x="803.799999297" y="112.400000662"/>
    </contour>
  </outline>
</glyph>
<glyph name="q" format="1">
  <advance width="1202.0488925"/>
  <unicode hex="0071"/>
  <outline>
    <contour>
      <point x="886.056555742" y="-438.307762965" type="line"/>
      <point x="1035.6097785" y="-429.960686542" type="line"/>
      <point x="1035.6097785" y="993.823588075" type="line"/>
      <point x="898.576212471" y="993.823588075" type="line"/>
      <point x="876.533067394" y="770.035481839" type="line"/>
      <point x="907.313510393" y="776.686489607" type="line"/>
      <point x="850.399800546" y="910.692237035"/>
      <point x="740.744961159" y="1013.64909196"/>
      <point x="550.61361012" y="1013.64909196" type="curve" smooth="yes"/>
      <point x="269.74304535" y="1013.64909196"/>
      <point x="110.61169431" y="796.302015536"/>
      <point x="110.61169431" y="489.345160613" type="curve" smooth="yes"/>
      <point x="110.61169431" y="194.607862692"/>
      <point x="287.48225908" y="-18.0"/>
      <point x="547.960686542" y="-18.0" type="curve" smooth="yes"/>
      <point x="773.056555742" y="-18.0"/>
      <point x="879.491838127" y="116.311594583"/>
      <point x="929.097785009" y="259.052724123" type="curve"/>
      <point x="892.795769473" y="276.835082931" type="line"/>
      <point x="886.056555742" y="-71.2272202393" type="line"/>
    </contour>
    <contour>
      <point x="571.045060886" y="96.4257033382" type="curve" smooth="yes"/>
      <point x="362.64526034" y="96.4257033382"/>
      <point x="260.164917069" y="256.38830569"/>
      <point x="260.164917069" y="497.694152845" type="curve" smooth="yes"/>
      <point x="260.164917069" y="731.433366576"/>
      <point x="357.513909301" y="898.441029813"/>
      <point x="571.74112954" y="898.441029813" type="curve" smooth="yes"/>
      <point x="795.83699874" y="898.441029813"/>
      <point x="882.750708587" y="746.0"/>
      <point x="882.750708587" y="520.872480579" type="curve"/>
      <point x="884.185990972" y="255.607862692"/>
      <point x="808.360487088" y="96.4257033382"/>
    </contour>
  </outline>
</glyph>
<glyph name="r" format="1">
  <advance width="767.600000173"/>
  <unicode hex="0072"/>
  <outline>
    <contour>
      <point x="159.999999702" y="0.0" type="line"/>
      <point x="330.800000548" y="0.0" type="line"/>
      <point x="330.800000548" y="561.199999899" type="line" smooth="yes"/>
      <point x="330.800000548" y="731.599999756"/>
      <point x="453.600000352" y="868.799999386"/>
      <point x="627.400000334" y="868.799999386" type="curve" smooth="yes"/>
      <point x="649.200000376" y="868.799999386"/>
      <point x="673.600000381" y="866.799999386"/>
      <point x="698.800000459" y="861.39999938" type="curve"/>
      <point x="705.200000435" y="1001.80000013" type="line"/>
      <point x="682.400000393" y="1006.00000015"/>
      <point x="657.200000435" y="1007.20000014"/>
      <point x="630.000000477" y="1007.20000014" type="curve" smooth="yes"/>
      <point x="505.400000542" y="1007.20000014"/>
      <point x="368.400000542" y="930.600000232"/>
      <point x="284.800000429" y="747.400000572" type="curve"/>
      <point x="323.60000062" y="740.60000053" type="line"/>
      <point x="298.000000477" y="998.000000179" type="line"/>
      <point x="159.999999702" y="998.000000179" type="line"/>
    </contour>
  </outline>
</glyph>
<glyph name="s" format="1">
  <advance width="914.400000274"/>
  <unicode hex="0073"/>
  <outline>
    <contour>
      <point x="462.400000185" y="-17.599999994" type="curve" smooth="yes"/>
      <point x="683.000000358" y="-17.599999994"/>
      <point x="814.600000411" y="82.1566201673"/>
      <point x="814.600000411" y="268.80000037" type="curve" smooth="yes"/>
      <point x="814.600000411" y="419.800000459"/>
      <point x="743.800000101" y="496.400000393"/>
      <point x="536.200000495" y="570.000000417" type="curve" smooth="yes"/>
      <point x="451.800000787" y="599.200000376" type="line" smooth="yes"/>
      <point x="321.593400829" y="647.350600463"/>
      <point x="283.000000745" y="677.80000031"/>
      <point x="283.000000745" y="761.400000066" type="curve" smooth="yes"/>
      <point x="283.000000745" y="839.599999875"/>
      <point x="355.60000056" y="892.399999619"/>
      <point x="487.200000107" y="892.399999619" type="curve" smooth="yes"/>
      <point x="585.800000012" y="892.399999619"/>
      <point x="664.400000274" y="864.799999535"/>
      <point x="729.400000364" y="834.39999947" type="curve"/>
      <point x="770.60000053" y="954.199999988" type="line"/>
      <point x="680.800000399" y="996.000000089"/>
      <point x="596.000000149" y="1018.80000022"/>
      <point x="476.400000125" y="1018.80000022" type="curve" smooth="yes"/>
      <point x="256.000000089" y="1018.80000022"/>
      <point x="132.199999988" y="908.200000316"/>
      <point x="132.199999988" y="745.00000003" type="curve"/>
      <point x="132.599999994" y="617.19699969"/>
      <point x="190.400000185" y="539.799999863"/>
      <point x="370.400000066" y="473.999999732" type="curve"/>
      <point x="452.399999768" y="444.999999762" type="line" smooth="yes"/>
      <point x="614.44139935" y="386.339799748"/>
      <point x="659.599999547" y="345.399999946"/>
      <point x="659.599999547" y="257.000000179" type="curve"/>
      <point x="658.799999535" y="159.600000441"/>
      <point x="602.799999744" y="108.800000608"/>
      <point x="466.600000143" y="107.60000059" type="curve" smooth="yes"/>
      <point x="342.600000381" y="106.400000572"/>
      <point x="237.400000036" y="149.600000769"/>
      <point x="176.799999893" y="180.40000096" type="curve"/>
      <point x="140.799999803" y="61.2000003755" type="line"/>
      <point x="172.19999969" y="43.4000003934"/>
      <point x="303.999999821" y="-17.599999994"/>
    </contour>
  </outline>
</glyph>
<glyph name="t" format="1">
  <advance width="767.470764224"/>
  <unicode hex="0074"/>
  <outline>
    <contour>
      <point x="361.345160613" y="365.171583036" type="move" name="center"/>
    </contour>
    <contour>
      <point x="361.345160613" y="0.0" type="move" name="bottom"/>
    </contour>
    <contour>
      <point x="508.166832878" y="-10.7823588075" type="curve" smooth="yes"/>
      <point x="606.992336763" y="-10.7823588075"/>
      <point x="675.902214991" y="8.1294352299"/>
      <point x="677.988505144" y="8.91179403737" type="curve"/>
      <point x="677.988505144" y="107.468848415" type="line"/>
      <point x="676.684573798" y="106.686489607"/>
      <point x="600.208062146" y="95.1217719924"/>
      <point x="536.03356603" y="95.1217719924" type="curve" smooth="yes"/>
      <point x="437.772779761" y="95.1217719924"/>
      <point x="373.555138568" y="136.251207222"/>
      <point x="373.555138568" y="296.555138568" type="curve" smooth="yes"/>
      <point x="373.555138568" y="934.264617888" type="line"/>
      <point x="340.947275877" y="901.527319966" type="line"/>
      <point x="669.253123032" y="901.527319966" type="line"/>
      <point x="669.253123032" y="993.823588075" type="line"/>
      <point x="340.686489607" y="993.823588075" type="line"/>
      <point x="373.555138568" y="958.303931346" type="line"/>
      <point x="373.555138568" y="1247.30201554" type="line"/>
      <point x="270.651007768" y="1243.60594688" type="line"/>
      <point x="231.437198194" y="959.12943523" type="line"/>
      <point x="270.694152845" y="995.345160613" type="line"/>
      <point x="82.1764119253" y="984.041229267" type="line"/>
      <point x="78.525404157" y="901.788106236" type="line"/>
      <point x="255.131351039" y="901.788106236" type="line"/>
      <point x="222.523488348" y="935.264617888" type="line"/>
      <point x="222.523488348" y="295.16300126" type="line"/>
      <point x="222.784274617" y="83.1256036112"/>
      <point x="327.654839387" y="-10.7823588075"/>
    </contour>
  </outline>
</glyph>
<glyph name="u" format="1">
  <advance width="1140.25695465"/>
  <unicode hex="0075"/>
  <outline>
    <contour>
      <point x="551.043145077" y="728.86473861" type="move" name="top"/>
    </contour>
    <contour>
      <point x="992.602115263" y="10.0" type="move" name="ogonek"/>
    </contour>
    <component base="n" xScale="-1.0" yScale="-1.0" xOffset="1140.25695465" yOffset="993.823588075"/>
  </outline>
</glyph>
<glyph name="v" format="1">
  <advance width="1027.40000042"/>
  <unicode hex="0076"/>
  <outline>
    <contour>
      <point x="433.199999899" y="0.0" type="line"/>
      <point x="604.200000644" y="0.0" type="line"/>
      <point x="979.800000638" y="998.000000179" type="line"/>
      <point x="804.799999714" y="998.000000179" type="line"/>
      <point x="607.799999923" y="433.80000037" type="line"/>
      <point x="500.200000286" y="116.4000009" type="line"/>
      <point x="540.200000316" y="116.4000009" type="line"/>
      <point x="427.60000059" y="432.400000393" type="line"/>
      <point x="223.800000727" y="998.000000179" type="line"/>
      <point x="47.5999997854" y="998.000000179" type="line"/>
    </contour>
  </outline>
</glyph>
<glyph name="w" format="1">
  <advance width="1476.12177199"/>
  <unicode hex="0077"/>
  <outline>
    <contour>
      <point x="737.821672265" y="728.86473861" type="move" name="top"/>
    </contour>
    <contour>
      <point x="333.262702079" y="0.0" type="line"/>
      <point x="478.208062146" y="0.0" type="line"/>
      <point x="755.38638988" y="917.184075163" type="line"/>
      <point x="725.170664497" y="917.184075163" type="line"/>
      <point x="1020.87439639" y="0.0" type="line"/>
      <point x="1153.77469557" y="0.0" type="line"/>
      <point x="1420.55322276" y="993.823588075" type="line"/>
      <point x="1282.47842746" y="993.823588075" type="line"/>
      <point x="1068.86864896" y="103.41995591" type="line"/>
      <point x="1103.17258031" y="103.41995591" type="line"/>
      <point x="821.251207222" y="993.823588075" type="line"/>
      <point x="658.913709847" y="993.823588075" type="line"/>
      <point x="392.125603611" y="103.41995591" type="line"/>
      <point x="423.907962419" y="103.41995591" type="line"/>
      <point x="197.382558262" y="993.823588075" type="line"/>
      <point x="55.5685492337" y="993.823588075" type="line"/>
    </contour>
  </outline>
</glyph>
<glyph name="x" format="1">
  <advance width="1029.0000006"/>
  <unicode hex="0078"/>
  <outline>
    <contour>
      <point x="39.9999999404" y="0.0" type="line"/>
      <point x="230.000000894" y="0.0" type="line"/>
      <point x="531.600000322" y="411.599999607" type="line"/>
      <point x="595.000000715" y="467.400000006" type="line"/>
      <point x="973.200000674" y="998.000000179" type="line"/>
      <point x="783.19999972" y="998.000000179" type="line"/>
      <point x="496.200000256" y="590.400000751" type="line"/>
      <point x="433.199999809" y="538.80000025" type="line"/>
    </contour>
    <contour>
      <point x="787.399999768" y="0.0" type="line"/>
      <point x="978.200000763" y="0.0" type="line"/>
      <point x="254.200000823" y="998.000000179" type="line"/>
      <point x="63.3999998569" y="998.000000179" type="line"/>
    </contour>
  </outline>
</glyph>
<glyph name="y" format="1">
  <advance width="1025.4000003"/>
  <unicode hex="0079"/>
  <outline>
    <contour>
      <point x="463.400000572" y="-374.800000012" type="line"/>
      <point x="985.000000447" y="998.000000179" type="line"/>
      <point x="814.399999499" y="998.000000179" type="line"/>
      <point x="519.200000107" y="163.600000799" type="line"/>
      <point x="559.000000209" y="163.600000799" type="line"/>
      <point x="238.200000703" y="998.000000179" type="line"/>
      <point x="63.1999998093" y="998.000000179" type="line"/>
      <point x="482.399999768" y="-36.4000000954" type="line"/>
      <point x="482.399999768" y="85.400000155" type="line"/>
      <point x="313.599999726" y="-353.999999911" type="line"/>
    </contour>
  </outline>
</glyph>
<glyph name="z" format="1">
  <advance width="900.000000626"/>
  <unicode hex="007A"/>
  <outline>
    <contour>
      <point x="109.99999994" y="0.0" type="line"/>
      <point x="800.800000727" y="0.0" type="line"/>
      <point x="800.800000727" y="123.600000679" type="line"/>
      <point x="238.800001085" y="123.600000679" type="line"/>
      <point x="259.800001055" y="64.6000005603" type="line"/>
      <point x="791.400000662" y="880.799999595" type="line"/>
      <point x="791.400000662" y="998.000000179" type="line"/>
      <point x="130.799999952" y="998.000000179" type="line"/>
      <point x="130.799999952" y="877.599999547" type="line"/>
      <point x="670.999999702" y="877.599999547" type="line"/>
      <point x="647.999999672" y="930.999999642" type="line"/>
      <point x="109.99999994" y="109.400000483" type="line"/>
    </contour>
  </outline>
</glyph>
<glyph name="braceleft" format="1">
  <advance width="727.599999636"/>
  <unicode hex="007B"/>
  <outline>
    <contour>
      <point x="602.400000274" y="-255.799999893" type="line" smooth="yes"/>
      <point x="376.599999964" y="-255.799999893"/>
      <point x="285.599999547" y="-152.400000334"/>
      <point x="285.599999547" y="55.1999997497" type="curve" smooth="yes"/>
      <point x="285.599999547" y="241.000000358" type="line" smooth="yes"/>
      <point x="285.599999547" y="398.000000149"/>
      <point x="263.999999404" y="500.599999577"/>
      <point x="89.7999995947" y="502.399999559" type="curve" smooth="yes"/>
      <point x="89.7999995947" y="634.400000364" type="line"/>
      <point x="263.199999481" y="634.80000037"/>
      <point x="285.599999547" y="738.599999726"/>
      <point x="285.599999547" y="893.999999553" type="curve" smooth="yes"/>
      <point x="285.599999547" y="1117.39999995" type="line" smooth="yes"/>
      <point x="285.599999547" y="1305.2000002"/>
      <point x="394.399999827" y="1399.19999984"/>
      <point x="602.400000274" y="1399.79999983" type="curve" smooth="yes"/>
      <point x="602.400000274" y="1272.99999911" type="line"/>
      <point x="470.400000334" y="1270.99999911"/>
      <point x="431.000000536" y="1219.59999931"/>
      <point x="431.000000536" y="1066.39999971" type="curve" smooth="yes"/>
      <point x="431.000000536" y="824.799999714" type="line"/>
      <point x="430.200000525" y="709.599999666"/>
      <point x="391.800000399" y="653.799999595"/>
      <point x="263.400000542" y="565.199999988" type="curve"/>
      <point x="383.800000399" y="531.200000018"/>
      <point x="431.60000053" y="425.600000352"/>
      <point x="431.000000536" y="317.200000226" type="curve" smooth="yes"/>
      <point x="431.000000536" y="75.4000002146" type="line" smooth="yes"/>
      <point x="431.000000536" y="-73.5999994278"/>
      <point x="468.200000346" y="-129.59999916"/>
      <point x="602.400000274" y="-131.59999916" type="curve"/>
    </contour>
  </outline>
</glyph>
<glyph name="bar" format="1">
  <advance width="312.271362587"/>
  <unicode hex="007C"/>
  <outline>
    <contour>
      <point x="99.1610854503" y="-348.401716355" type="line"/>
      <point x="210.716224018" y="-348.401716355" type="line"/>
      <point x="210.716224018" y="1456.73921373" type="line"/>
      <point x="99.1610854503" y="1456.73921373" type="line"/>
    </contour>
  </outline>
</glyph>
<glyph name="braceright" format="1">
  <advance width="727.599999636"/>
  <unicode hex="007D"/>
  <outline>
    <contour>
      <point x="102.199999779" y="-255.799999893" type="curve"/>
      <point x="102.199999779" y="-129.799999177" type="line"/>
      <point x="234.19999972" y="-127.799999177"/>
      <point x="273.199999511" y="-77.599999398"/>
      <point x="273.199999511" y="76.0000002086" type="curve" smooth="yes"/>
      <point x="273.199999511" y="318.400000215" type="line" smooth="yes"/>
      <point x="273.199999511" y="434.400000274"/>
      <point x="314.399999678" y="490.200000346"/>
      <point x="441.199999511" y="574.799999893" type="curve"/>
      <point x="318.799999624" y="612.799999923"/>
      <point x="273.399999529" y="717.599999577"/>
      <point x="273.199999511" y="825.999999702" type="curve"/>
      <point x="273.199999511" y="1066.9999997" type="line" smooth="yes"/>
      <point x="273.199999511" y="1216.39999935"/>
      <point x="236.399999708" y="1272.79999909"/>
      <point x="102.199999779" y="1274.79999909" type="curve"/>
      <point x="102.199999779" y="1399.79999983" type="line"/>
      <point x="327.600000083" y="1399.79999983"/>
      <point x="418.600000501" y="1297.20000029"/>
      <point x="418.600000501" y="1087.20000017" type="curve" smooth="yes"/>
      <point x="418.600000501" y="897.799999505" type="line" smooth="yes"/>
      <point x="418.600000501" y="740.799999714"/>
      <point x="438.200000614" y="640.200000316"/>
      <point x="614.800000459" y="638.000000328" type="curve"/>
      <point x="614.800000459" y="505.999999523" type="line"/>
      <point x="444.200000614" y="505.999999523"/>
      <point x="418.600000501" y="401.000000149"/>
      <point x="418.600000501" y="245.200000316" type="curve" smooth="yes"/>
      <point x="418.600000501" y="24.9999999702" type="line" smooth="yes"/>
      <point x="418.600000501" y="-162.000000268"/>
      <point x="312.600000262" y="-255.199999899"/>
    </contour>
  </outline>
</glyph>
<glyph name="asciitilde" format="1">
  <advance width="1131.80000007"/>
  <unicode hex="007E"/>
  <outline>
    <contour>
      <point x="144.400000513" y="457.599999756" type="curve"/>
      <point x="99.4000001252" y="553.000000179" type="line"/>
      <point x="142.200000167" y="653.800000131"/>
      <point x="223.200000137" y="733.200000167"/>
      <point x="345.600000292" y="733.200000167" type="curve" smooth="yes"/>
      <point x="420.600000322" y="733.200000167"/>
      <point x="478.200000554" y="712.000000119"/>
      <point x="569.200000405" y="671.800000191" type="curve" smooth="yes"/>
      <point x="656.600000322" y="634.400000215"/>
      <point x="729.000000179" y="600.200000346"/>
      <point x="784.400000125" y="600.200000346" type="curve" smooth="yes"/>
      <point x="859.800000042" y="600.200000346"/>
      <point x="932.199999928" y="662.800000072"/>
      <point x="973.80000025" y="742.200000107" type="curve"/>
      <point x="1023.60000053" y="653.599999666" type="line"/>
      <point x="977.400000513" y="543.199999869"/>
      <point x="898.200000167" y="469.999999732"/>
      <point x="780.600000024" y="469.999999732" type="curve" smooth="yes"/>
      <point x="712.799999833" y="469.999999732"/>
      <point x="645.799999863" y="495.799999744"/>
      <point x="567.999999791" y="530.799999774" type="curve"/>
      <point x="474.800000072" y="572.599999666"/>
      <point x="407.000000238" y="602.999999583"/>
      <point x="341.80000025" y="602.999999583" type="curve" smooth="yes"/>
      <point x="259.600000292" y="602.999999583"/>
      <point x="187.000000447" y="536.599999636"/>
    </contour>
  </outline>
</glyph>
<glyph name="sterling" format="1">
  <advance width="1075.59999931"/>
  <unicode hex="00A3"/>
  <outline>
    <contour>
      <point x="109.999999613" y="-0.199999809265" type="line"/>
      <point x="99.7999996245" y="126.400000811" type="line"/>
      <point x="268.399999499" y="142.600000858" type="line" smooth="yes"/>
      <point x="268.399999499" y="619.999999851" type="line"/>
      <point x="97.999999553" y="619.999999851" type="line"/>
      <point x="97.999999553" y="742.400000423" type="line"/>
      <point x="268.399999499" y="742.400000423" type="line"/>
      <point x="268.399999499" y="837.200000316" type="line"/>
      <point x="268.399999499" y="1115.80000037"/>
      <point x="329.0" y="1368.19999993"/>
      <point x="655.399999678" y="1368.19999993" type="curve" smooth="yes"/>
      <point x="791.19999972" y="1368.19999993"/>
      <point x="897.999999821" y="1318.19999993"/>
      <point x="979.399999917" y="1248.99999985" type="curve"/>
      <point x="910.199999571" y="1139.7999993" type="line"/>
      <point x="830.199999601" y="1200.59999922"/>
      <point x="750.599999696" y="1234.79999921"/>
      <point x="656.399999768" y="1234.79999921" type="curve" smooth="yes"/>
      <point x="476.400000304" y="1234.79999921"/>
      <point x="420.400000364" y="1103.79999971"/>
      <point x="420.400000364" y="904.000000298" type="curve" smooth="yes"/>
      <point x="420.400000364" y="742.400000423" type="line"/>
      <point x="794.600000054" y="742.400000423" type="line"/>
      <point x="794.600000054" y="619.799999863" type="line"/>
      <point x="420.400000364" y="619.799999863" type="line"/>
      <point x="420.400000364" y="144.200000852" type="line"/>
      <point x="993.199999958" y="144.200000852" type="line"/>
      <point x="981.800000012" y="-0.199999809265" type="line"/>
    </contour>
  </outline>
</glyph>
<glyph name="currency" format="1">
  <advance width="1228.41512702"/>
  <unicode hex="00A4"/>
  <outline>
    <contour>
      <point x="1026.49183813" y="211.478427462" type="line"/>
      <point x="1080.31351039" y="271.039313458" type="line"/>
      <point x="913.617441738" y="433.692237035" type="line"/>
      <point x="963.488006509" y="498.431450766"/>
      <point x="992.140930086" y="576.302015536"/>
      <point x="992.140930086" y="663.911794037" type="curve" smooth="yes"/>
      <point x="992.140930086" y="745.607862692"/>
      <point x="963.444861432" y="824.521572538"/>
      <point x="912.617441738" y="894.392137308" type="curve"/>
      <point x="1081.31351039" y="1056.08820596" type="line"/>
      <point x="1026.49183813" y="1116.12751942" type="line"/>
      <point x="855.795769473" y="955.431450766" type="line"/>
      <point x="788.83891455" y="1011.82358807"/>
      <point x="705.011494856" y="1042.99808419"/>
      <point x="612.140930086" y="1042.99808419" type="curve" smooth="yes"/>
      <point x="519.791937854" y="1042.99808419"/>
      <point x="434.399800546" y="1013.51965673"/>
      <point x="366.746876968" y="956.692237035" type="curve"/>
      <point x="198.093953391" y="1116.12751942" type="line"/>
      <point x="139.011494856" y="1058.56663342" type="line"/>
      <point x="310.925204703" y="894.392137308" type="line"/>
      <point x="260.315426202" y="827.913709847"/>
      <point x="230.662502624" y="748.303931346"/>
      <point x="230.662502624" y="663.911794037" type="curve" smooth="yes"/>
      <point x="230.662502624" y="578.519656729"/>
      <point x="260.097785009" y="500.605946882"/>
      <point x="310.925204703" y="433.692237035" type="curve"/>
      <point x="140.011494856" y="271.996168381" type="line"/>
      <point x="198.093953391" y="212.478427462" type="line"/>
      <point x="366.964518161" y="372.392137308" type="line"/>
      <point x="434.399800546" y="315.521572538"/>
      <point x="518.270365316" y="285.825503884"/>
      <point x="612.140930086" y="285.825503884" type="curve" smooth="yes"/>
      <point x="705.489922318" y="285.825503884"/>
      <point x="788.621273357" y="316.303931346"/>
      <point x="855.795769473" y="371.913709847" type="curve"/>
    </contour>
    <contour>
      <point x="612.140930086" y="374.123687802" type="curve" smooth="yes"/>
      <point x="448.876312198" y="374.123687802"/>
      <point x="317.003831619" y="503.300099727"/>
      <point x="317.003831619" y="663.911794037" type="curve" smooth="yes"/>
      <point x="317.003831619" y="824.262702079"/>
      <point x="448.876312198" y="954.699900273"/>
      <point x="612.140930086" y="954.699900273" type="curve" smooth="yes"/>
      <point x="775.666334243" y="954.699900273"/>
      <point x="907.060387361" y="823.784274617"/>
      <point x="907.060387361" y="663.911794037" type="curve" smooth="yes"/>
      <point x="907.060387361" y="504.039313458"/>
      <point x="776.666334243" y="374.123687802"/>
    </contour>
  </outline>
</glyph>
<glyph name="yen" format="1">
  <advance width="1223.4112954"/>
  <unicode hex="00A5"/>
  <outline>
    <contour>
      <point x="551.972181398" y="0.0" type="line"/>
      <point x="662.303931346" y="0.0" type="line"/>
      <point x="662.303931346" y="275.480343271" type="line"/>
      <point x="980.174496116" y="275.480343271" type="line"/>
      <point x="980.174496116" y="376.907962419" type="line"/>
      <point x="662.303931346" y="376.907962419" type="line"/>
      <point x="662.303931346" y="556.568549234" type="line"/>
      <point x="978.696068654" y="556.568549234" type="line"/>
      <point x="978.696068654" y="658.605946882" type="line"/>
      <point x="688.472680034" y="658.605946882" type="line"/>
      <point x="1074.64717615" y="1348.56663342" type="line"/>
      <point x="951.96834978" y="1348.56663342" type="line"/>
      <point x="607.964518161" y="721.166832878" type="line"/>
      <point x="271.092037581" y="1348.56663342" type="line"/>
      <point x="143.413211211" y="1348.56663342" type="line"/>
      <point x="517.368150325" y="658.605946882" type="line"/>
      <point x="226.274196935" y="658.605946882" type="line"/>
      <point x="226.274196935" y="556.568549234" type="line"/>
      <point x="551.972181398" y="556.568549234" type="line"/>
      <point x="551.972181398" y="376.907962419" type="line"/>
      <point x="224.795769473" y="376.907962419" type="line"/>
      <point x="224.795769473" y="275.480343271" type="line"/>
      <point x="551.972181398" y="275.480343271" type="line"/>
    </contour>
  </outline>
</glyph>
<glyph name="brokenbar" format="1">
  <advance width="382.600003332"/>
  <unicode hex="00A6"/>
  <outline>
    <contour>
      <point x="127.400001377" y="-362.799999744" type="line"/>
      <point x="127.400001377" y="282.400000483" type="line"/>
      <point x="256.400002092" y="282.400000483" type="line"/>
      <point x="256.400002092" y="-362.799999744" type="line"/>
    </contour>
    <contour>
      <point x="127.400001377" y="793.599999458" type="line"/>
      <point x="127.400001377" y="1436.5999997" type="line"/>
      <point x="256.400002092" y="1436.5999997" type="line"/>
      <point x="256.400002092" y="793.599999458" type="line"/>
    </contour>
  </outline>
</glyph>
<glyph name="dieresis" format="1">
  <advance width="701.199999779"/>
  <unicode hex="00A8"/>
  <outline>
    <contour>
      <point x="109.199999541" y="1140.59999979" type="line"/>
      <point x="247.400000095" y="1140.59999979" type="line"/>
      <point x="247.400000095" y="1334.0000003" type="line"/>
      <point x="109.199999541" y="1334.0000003" type="line"/>
    </contour>
    <contour>
      <point x="462.999999762" y="1140.59999979" type="line"/>
      <point x="601.400000304" y="1140.59999979" type="line"/>
      <point x="601.400000304" y="1334.0000003" type="line"/>
      <point x="462.999999762" y="1334.0000003" type="line"/>
    </contour>
  </outline>
</glyph>
<glyph name="copyright" format="1">
  <advance width="1678.79999855"/>
  <unicode hex="00A9"/>
  <outline>
    <contour>
      <point x="854.399999052" y="222.800000131" type="curve" smooth="yes"/>
      <point x="951.999999166" y="222.800000131"/>
      <point x="1045.19999918" y="249.200000137"/>
      <point x="1126.79999909" y="301.600000083" type="curve"/>
      <point x="1091.59999895" y="387.200000316" type="line"/>
      <point x="1012.39999911" y="339.000000417"/>
      <point x="933.399999052" y="320.800000399"/>
      <point x="858.999999136" y="320.800000399" type="curve" smooth="yes"/>
      <point x="668.399999321" y="320.800000399"/>
      <point x="522.799999684" y="464.800000221"/>
      <point x="522.799999684" y="699.399999797" type="curve" smooth="yes"/>
      <point x="522.799999684" y="917.199999571"/>
      <point x="667.999999315" y="1068.99999934"/>
      <point x="852.399999171" y="1068.99999934" type="curve" smooth="yes"/>
      <point x="921.399999142" y="1068.99999934"/>
      <point x="1011.79999906" y="1046.39999938"/>
      <point x="1081.199999" y="995.199999511" type="curve"/>
      <point x="1123.99999911" y="1083.39999971" type="line"/>
      <point x="1040.3999992" y="1141.19999963"/>
      <point x="946.199999213" y="1167.99999961"/>
      <point x="847.399999112" y="1167.99999961" type="curve" smooth="yes"/>
      <point x="599.799999118" y="1167.99999961"/>
      <point x="400.799999416" y="964.399999648"/>
      <point x="400.799999416" y="695.199999839" type="curve" smooth="yes"/>
      <point x="400.799999416" y="419.600000024"/>
      <point x="606.59999913" y="222.800000131"/>
    </contour>
    <contour>
      <point x="839.999999315" y="63.6000004411" type="curve" smooth="yes"/>
      <point x="516.999999225" y="63.6000004411"/>
      <point x="218.399999768" y="293.200000733"/>
      <point x="218.399999768" y="699.399999887" type="curve" smooth="yes"/>
      <point x="218.399999768" y="1104.79999903"/>
      <point x="516.999999225" y="1335.19999933"/>
      <point x="839.599999309" y="1335.19999933" type="curve" smooth="yes"/>
      <point x="1164.19999942" y="1335.19999933"/>
      <point x="1465.19999886" y="1104.19999903"/>
      <point x="1465.19999886" y="698.999999881" type="curve" smooth="yes"/>
      <point x="1465.19999886" y="293.800000727"/>
      <point x="1164.59999943" y="63.6000004411"/>
    </contour>
    <contour>
      <point x="839.999999315" y="-22.1999997795" type="curve" smooth="yes"/>
      <point x="1208.19999942" y="-22.1999997795"/>
      <point x="1569.19999903" y="232.200000525"/>
      <point x="1569.19999903" y="699.399999887" type="curve" smooth="yes"/>
      <point x="1569.19999903" y="1166.19999924"/>
      <point x="1207.39999941" y="1421.99999955"/>
      <point x="839.599999309" y="1421.99999955" type="curve" smooth="yes"/>
      <point x="472.999999225" y="1421.99999955"/>
      <point x="113.999999583" y="1166.59999925"/>
      <point x="113.999999583" y="699.399999887" type="curve" smooth="yes"/>
      <point x="113.999999583" y="232.200000525"/>
      <point x="473.399999231" y="-22.1999997795"/>
    </contour>
  </outline>
</glyph>
<glyph name="ordfeminine" format="1">
  <advance width="777.099700819"/>
  <unicode hex="00AA"/>
  <outline>
    <contour>
      <point x="345.139014277" y="766.574296662" type="curve" smooth="yes"/>
      <point x="428.662502624" y="766.574296662"/>
      <point x="482.050808314" y="804.227220239"/>
      <point x="515.919457275" y="861.054639933" type="curve"/>
      <point x="516.352823851" y="787.444861432" type="line"/>
      <point x="613.956854923" y="787.444861432" type="line"/>
      <point x="607.303931346" y="889.456356288"/>
      <point x="607.521572538" y="897.96643397"/>
      <point x="607.521572538" y="912.054639933" type="curve" smooth="yes"/>
      <point x="610.478427462" y="1222.52923578" type="line" smooth="yes"/>
      <point x="610.478427462" y="1392.26844951"/>
      <point x="512.219557002" y="1460.87822801"/>
      <point x="399.395968927" y="1460.87822801" type="curve" smooth="yes"/>
      <point x="296.525404157" y="1460.87822801"/>
      <point x="213.266533697" y="1433.66058682"/>
      <point x="149.964518161" y="1334.95877073" type="curve"/>
      <point x="207.791937854" y="1273.92137308" type="line"/>
      <point x="267.701816082" y="1357.23105186"/>
      <point x="328.874396389" y="1360.1428459"/>
      <point x="397.701816082" y="1360.1428459" type="curve" smooth="yes"/>
      <point x="492.0958692" y="1360.1428459"/>
      <point x="517.399800546" y="1311.44486143"/>
      <point x="520.617441738" y="1201.26844951" type="curve"/>
      <point x="520.617441738" y="1186.44294562" type="line"/>
      <point x="288.87056477" y="1172.87822801"/>
      <point x="145.748792778" y="1142.57238085"/>
      <point x="145.748792778" y="972.227220239" type="curve" smooth="yes"/>
      <point x="145.748792778" y="848.619357548"/>
      <point x="227.964518161" y="766.574296662"/>
    </contour>
    <contour>
      <point x="142.048892505" y="599.099700819" type="line"/>
      <point x="631.480343271" y="599.099700819" type="line"/>
      <point x="631.480343271" y="687.878228008" type="line"/>
      <point x="142.048892505" y="687.878228008" type="line"/>
    </contour>
    <contour>
      <point x="362.139014277" y="861.788106236" type="curve" smooth="yes"/>
      <point x="287.917541465" y="861.788106236"/>
      <point x="238.219557002" y="891.658671006"/>
      <point x="238.219557002" y="970.227220239" type="curve" smooth="yes"/>
      <point x="238.219557002" y="1107.32117363"/>
      <point x="415.83891455" y="1097.49183813"/>
      <point x="520.617441738" y="1107.62127336" type="curve"/>
      <point x="520.617441738" y="1097.49950136" type="line"/>
      <point x="527.623189166" y="976.840830359"/>
      <point x="485.885891245" y="861.788106236"/>
    </contour>
  </outline>
</glyph>
<glyph name="guillemotleft" format="1">
  <advance width="939.12943523"/>
  <unicode hex="00AB"/>
  <outline>
    <contour>
      <point x="367.654839387" y="139.958770733" type="line"/>
      <point x="473.77469557" y="167.086290153" type="line"/>
      <point x="230.253123032" y="509.390221499" type="line"/>
      <point x="479.731550493" y="847.519656729" type="line"/>
      <point x="370.654839387" y="875.125603611" type="line"/>
      <point x="106.221472811" y="509.300099727" type="line"/>
      <point x="132.921373084" y="466.300099727" type="line"/>
    </contour>
    <contour>
      <point x="706.868648961" y="139.958770733" type="line"/>
      <point x="797.204230527" y="167.086290153" type="line"/>
      <point x="569.206146336" y="509.390221499" type="line"/>
      <point x="799.725803065" y="847.519656729" type="line"/>
      <point x="708.868648961" y="875.125603611" type="line"/>
      <point x="437.305847155" y="516.0" type="line"/>
    </contour>
  </outline>
</glyph>
<glyph name="logicalnot" format="1">
  <advance width="1127.80000001"/>
  <unicode hex="00AC"/>
  <outline>
    <contour>
      <point x="887.199999541" y="236.799999923" type="line"/>
      <point x="1007.00000024" y="236.799999923" type="line"/>
      <point x="1007.00000024" y="751.200000197" type="line"/>
      <point x="105.400000066" y="751.200000197" type="line"/>
      <point x="105.400000066" y="619.599999607" type="line"/>
      <point x="887.199999541" y="619.599999607" type="line"/>
    </contour>
  </outline>
</glyph>
<glyph name="uni00AD" format="1">
  <advance width="921.813011757"/>
  <unicode hex="00AD"/>
  <outline>
    <contour>
      <point x="109.048892505" y="184.894551753" type="line"/>
      <point x="814.240630905" y="184.894551753" type="line"/>
      <point x="814.240630905" y="305.58104136" type="line"/>
      <point x="109.048892505" y="305.58104136" type="line"/>
    </contour>
  </outline>
</glyph>
<glyph name="registered" format="1">
  <advance width="1713.76028763"/>
  <unicode hex="00AE"/>
  <outline>
    <contour>
      <point x="571.270365316" y="279.090121772" type="line"/>
      <point x="682.092037581" y="279.090121772" type="line"/>
      <point x="682.092037581" y="659.178327735" type="line"/>
      <point x="862.96834978" y="659.178327735" type="line"/>
      <point x="960.236799286" y="588.521572538"/>
      <point x="1029.22530443" y="410.670165862"/>
      <point x="1106.84274617" y="279.090121772" type="curve"/>
      <point x="1231.48992232" y="279.090121772" type="line"/>
      <point x="1068.1236878" y="535.597286374"/>
      <point x="1061.48992232" y="610.395968927"/>
      <point x="969.050808314" y="675.003831619" type="curve"/>
      <point x="1161.44869305" y="694.958770733"/>
      <point x="1220.53689901" y="809.137098467"/>
      <point x="1220.53689901" y="925.048892505" type="curve" smooth="yes"/>
      <point x="1220.53689901" y="1082.30776296"/>
      <point x="1112.49566975" y="1171.48417489"/>
      <point x="856.791937854" y="1171.48417489" type="curve" smooth="yes"/>
      <point x="571.270365316" y="1171.48417489" type="line"/>
    </contour>
    <contour>
      <point x="682.570465043" y="770.480343271" type="line"/>
      <point x="682.570465043" y="1058.96451816" type="line"/>
      <point x="856.491838127" y="1058.96451816" type="line" smooth="yes"/>
      <point x="1014.18982259" y="1058.96451816"/>
      <point x="1079.14667751" y="1039.44102981"/>
      <point x="1079.14667751" y="916.395968927" type="curve" smooth="yes"/>
      <point x="1079.14667751" y="798.307762965"/>
      <point x="1004.01532647" y="770.480343271"/>
      <point x="865.970265589" y="770.480343271" type="curve" smooth="yes"/>
    </contour>
    <contour>
      <point x="845.399800546" y="50.3413289943" type="curve" smooth="yes"/>
      <point x="432.347076422" y="50.3413289943"/>
      <point x="223.829335503" y="350.737297921"/>
      <point x="223.829335503" y="718.307762965" type="curve" smooth="yes"/>
      <point x="223.829335503" y="1077.22530443"/>
      <point x="432.825503884" y="1379.62127336"/>
      <point x="839.964518161" y="1379.62127336" type="curve" smooth="yes"/>
      <point x="1274.75837182" y="1379.62127336"/>
      <point x="1483.49375394" y="1075.74687697"/>
      <point x="1483.49375394" y="712.872480579" type="curve" smooth="yes"/>
      <point x="1483.49375394" y="348.519656729"/>
      <point x="1277.71522675" y="50.3413289943"/>
    </contour>
    <contour>
      <point x="845.399800546" y="-29.5685492337" type="curve" smooth="yes"/>
      <point x="1223.13901428" y="-29.5685492337"/>
      <point x="1580.62127336" y="206.643344531"/>
      <point x="1580.62127336" y="716.090121772" type="curve" smooth="yes"/>
      <point x="1580.62127336" y="1222.31925782"/>
      <point x="1218.44294562" y="1457.57429666"/>
      <point x="839.964518161" y="1457.57429666" type="curve" smooth="yes"/>
      <point x="488.619357548" y="1457.57429666"/>
      <point x="126.701816082" y="1224.79768528"/>
      <point x="126.701816082" y="716.090121772" type="curve" smooth="yes"/>
      <point x="126.701816082" y="206.643344531"/>
      <point x="493.315426202" y="-29.5685492337"/>
    </contour>
  </outline>
</glyph>
<glyph name="degree" format="1">
  <advance width="767.199999809"/>
  <unicode hex="00B0"/>
  <outline>
    <contour>
      <point x="381.600000024" y="918.799999893" type="curve" smooth="yes"/>
      <point x="286.400000274" y="918.799999893"/>
      <point x="208.000000387" y="997.599999636"/>
      <point x="208.000000387" y="1096.99999955" type="curve" smooth="yes"/>
      <point x="208.000000387" y="1195.59999946"/>
      <point x="287.600000262" y="1272.59999919"/>
      <point x="382.00000003" y="1272.59999919" type="curve" smooth="yes"/>
      <point x="477.399999768" y="1272.59999919"/>
      <point x="555.599999636" y="1195.59999946"/>
      <point x="555.599999636" y="1096.99999955" type="curve" smooth="yes"/>
      <point x="555.599999636" y="998.799999624"/>
      <point x="477.399999768" y="918.799999893"/>
    </contour>
    <contour>
      <point x="381.00000003" y="808.799999654" type="curve" smooth="yes"/>
      <point x="539.400000304" y="808.799999654"/>
      <point x="664.600000083" y="943.999999702"/>
      <point x="664.600000083" y="1096.59999961" type="curve" smooth="yes"/>
      <point x="664.600000083" y="1253.79999951"/>
      <point x="535.600000292" y="1381.79999951"/>
      <point x="381.00000003" y="1381.79999951" type="curve" smooth="yes"/>
      <point x="227.599999726" y="1381.79999951"/>
      <point x="98.3999999464" y="1253.79999951"/>
      <point x="98.3999999464" y="1096.59999961" type="curve" smooth="yes"/>
      <point x="98.3999999464" y="938.799999744"/>
      <point x="227.599999696" y="808.799999654"/>
    </contour>
  </outline>
</glyph>
<glyph name="plusminus" format="1">
  <advance width="1105.80000025"/>
  <unicode hex="00B1"/>
  <outline>
    <contour>
      <point x="120.400000215" y="0.0" type="line"/>
      <point x="120.400000215" y="118.200000584" type="line"/>
      <point x="992.200000137" y="118.200000584" type="line"/>
      <point x="992.200000137" y="0.0" type="line"/>
    </contour>
    <contour>
      <point x="484.799999923" y="201.400000393" type="line"/>
      <point x="614.000000566" y="201.400000393" type="line"/>
      <point x="614.000000566" y="561.200000137" type="line"/>
      <point x="955.600000501" y="561.200000137" type="line"/>
      <point x="955.600000501" y="683.800000906" type="line"/>
      <point x="613.60000056" y="683.800000906" type="line"/>
      <point x="613.60000056" y="1035.60000065" type="line"/>
      <point x="484.799999923" y="1035.60000065" type="line"/>
      <point x="484.799999923" y="683.800000906" type="line"/>
      <point x="137.800000042" y="683.800000906" type="line"/>
      <point x="137.800000042" y="561.200000137" type="line"/>
      <point x="484.799999923" y="561.200000137" type="line"/>
    </contour>
  </outline>
</glyph>
<glyph name="uni00B2" format="1">
  <advance width="683"/>
  <unicode hex="00B2"/>
  <outline>
    <contour>
      <point x="581" y="607" type="line"/>
      <point x="100" y="607" type="line"/>
      <point x="100" y="691" type="line"/>
      <point x="324" y="916"/>
      <point x="487" y="1058"/>
      <point x="487" y="1172" type="curve" smooth="yes"/>
      <point x="487" y="1271"/>
      <point x="423" y="1314"/>
      <point x="351" y="1314" type="curve" smooth="yes"/>
      <point x="274" y="1314"/>
      <point x="200" y="1280"/>
      <point x="140" y="1200" type="curve"/>
      <point x="74" y="1255" type="line"/>
      <point x="122" y="1345"/>
      <point x="234" y="1406"/>
      <point x="340" y="1406" type="curve" smooth="yes"/>
      <point x="485" y="1406"/>
      <point x="592" y="1329"/>
      <point x="592" y="1180" type="curve" smooth="yes"/>
      <point x="592" y="1003"/>
      <point x="432" y="878"/>
      <point x="234" y="697" type="curve"/>
      <point x="581" y="697" type="line"/>
    </contour>
  </outline>
</glyph>
<glyph name="acute" format="1">
  <advance width="582.999999583"/>
  <unicode hex="00B4"/>
  <outline>
    <contour>
      <point x="113.800000489" y="1137.99999943" type="line"/>
      <point x="215.000001043" y="1137.99999943" type="line"/>
      <point x="498.600001156" y="1490.59999952" type="line"/>
      <point x="284.000000387" y="1490.59999952" type="line"/>
    </contour>
  </outline>
</glyph>
<glyph name="paragraph" format="1">
  <advance width="1042.60000011"/>
  <unicode hex="00B6"/>
  <outline>
    <contour>
      <point x="446.799999207" y="-144.199999899" type="line"/>
      <point x="557.399999976" y="-144.199999899" type="line"/>
      <point x="557.399999976" y="1300.19999889" type="line"/>
      <point x="759.999999195" y="1300.19999889" type="line"/>
      <point x="759.999999195" y="-144.199999899" type="line"/>
      <point x="861.999999851" y="-144.199999899" type="line"/>
      <point x="861.999999851" y="1300.19999889" type="line"/>
      <point x="929.599999905" y="1300.19999889" type="line"/>
      <point x="929.599999905" y="1420.5999994" type="line"/>
      <point x="503.200000376" y="1420.5999994" type="line" smooth="yes"/>
      <point x="207.800000697" y="1420.5999994"/>
      <point x="98.7999996543" y="1262.80000013"/>
      <point x="98.7999996543" y="1102.59999934" type="curve" smooth="yes"/>
      <point x="98.7999996543" y="939.599999219"/>
      <point x="243.599999428" y="774.999999493"/>
      <point x="446.799999207" y="770.39999935" type="curve"/>
    </contour>
  </outline>
</glyph>
<glyph name="cedilla" format="1">
  <advance width="543.399999708"/>
  <unicode hex="00B8"/>
  <outline>
    <contour>
      <point x="107.199999392" y="-372.599999249" type="line"/>
      <point x="243.600000113" y="-372.599999249" type="line"/>
      <point x="282.600000262" y="15.000000447" type="line"/>
      <point x="208.199999541" y="15.000000447" type="line"/>
    </contour>
  </outline>
</glyph>
<glyph name="guillemotright" format="1">
  <advance width="956.600000679"/>
  <unicode hex="00BB"/>
  <outline>
    <contour>
      <point x="229.200000614" y="136.199999839" type="line"/>
      <point x="505.400000781" y="504.000000179" type="line"/>
      <point x="230.200000614" y="883.200000346" type="line"/>
      <point x="118.19999975" y="851.000000149" type="line"/>
      <point x="351.399999887" y="511.200000077" type="line"/>
      <point x="117.399999738" y="168.200000048" type="line"/>
    </contour>
    <contour>
      <point x="584.600000858" y="136.199999839" type="line"/>
      <point x="849.000001162" y="504.000000179" type="line"/>
      <point x="587.600000858" y="883.200000346" type="line"/>
      <point x="466.200000107" y="851.000000149" type="line"/>
      <point x="707.600000113" y="511.200000077" type="line"/>
      <point x="461.600000113" y="168.200000048" type="line"/>
    </contour>
  </outline>
</glyph>
<glyph name="threequarters" format="1">
  <advance width="1544.09395339"/>
  <unicode hex="00BE"/>
  <outline>
    <contour>
      <point x="318.131351039" y="576.784274617" type="curve" smooth="yes"/>
      <point x="445.651007768" y="576.784274617"/>
      <point x="571.823588075" y="672.090121772"/>
      <point x="571.823588075" y="820.566633424" type="curve" smooth="yes"/>
      <point x="571.823588075" y="918.568549234"/>
      <point x="528.694152845" y="980.61169431"/>
      <point x="448.25695465" y="1017.78619043" type="curve"/>
      <point x="508.602115263" y="1052.87248058"/>
      <point x="553.823588075" y="1111.78235881"/>
      <point x="553.823588075" y="1200.74687697" type="curve" smooth="yes"/>
      <point x="553.823588075" y="1341.35473966"/>
      <point x="428.780442998" y="1428.05272412"/>
      <point x="319.521572538" y="1428.05272412" type="curve" smooth="yes"/>
      <point x="247.219557002" y="1428.05272412"/>
      <point x="177.092037581" y="1382.74687697"/>
      <point x="132.572380852" y="1323.83316712" type="curve"/>
      <point x="172.221472811" y="1233.05272412" type="line"/>
      <point x="221.527319966" y="1283.44677724"/>
      <point x="265.697984464" y="1317.79576947"/>
      <point x="322.045060886" y="1317.79576947" type="curve" smooth="yes"/>
      <point x="388.045060886" y="1317.79576947"/>
      <point x="441.917541465" y="1283.09970082"/>
      <point x="441.917541465" y="1199.92137308" type="curve" smooth="yes"/>
      <point x="441.917541465" y="1102.87248058"/>
      <point x="365.825503884" y="1073.30776296"/>
      <point x="275.956854923" y="1073.30776296" type="curve" smooth="yes"/>
      <point x="247.701816082" y="1073.30776296" type="line"/>
      <point x="247.701816082" y="963.35473966" type="line"/>
      <point x="280.87056477" y="962.876312198" type="line"/>
      <point x="389.480343271" y="962.876312198"/>
      <point x="462.178327735" y="927.962602351"/>
      <point x="462.178327735" y="824.784274617" type="curve" smooth="yes"/>
      <point x="462.178327735" y="737.521572538"/>
      <point x="390.305847155" y="680.127519421"/>
      <point x="313.348992232" y="680.127519421" type="curve" smooth="yes"/>
      <point x="264.001915809" y="680.127519421"/>
      <point x="224.223388621" y="708.737297921"/>
      <point x="175.874396389" y="764.174496116" type="curve"/>
      <point x="130.223388621" y="676.656755196" type="line"/>
      <point x="178.003831619" y="611.394053118"/>
      <point x="243.045060886" y="576.784274617"/>
    </contour>
    <contour>
      <point x="1241.09395339" y="44.8724805795" type="line"/>
      <point x="1319.51965673" y="44.8724805795" type="line"/>
      <point x="1319.780443" y="232.962602351" type="line"/>
      <point x="1412.9530233" y="232.962602351" type="line"/>
      <point x="1402.82167227" y="331.305847155" type="line"/>
      <point x="1320.780443" y="331.305847155" type="line"/>
      <point x="1320.780443" y="822.217641193" type="line"/>
      <point x="1228.8763122" y="822.217641193" type="line"/>
      <point x="883.615525929" y="311.086290153" type="line"/>
      <point x="883.615525929" y="232.962602351" type="line"/>
      <point x="1241.09395339" y="232.962602351" type="line"/>
    </contour>
    <contour>
      <point x="337.011494856" y="-4.65483938694" type="line"/>
      <point x="435.303931346" y="-4.65483938694" type="line"/>
      <point x="1260.51199349" y="1421.66058682" type="line"/>
      <point x="1149.0" y="1421.66058682" type="line"/>
    </contour>
    <contour>
      <point x="994.605946882" y="331.305847155" type="line"/>
      <point x="1242.05080831" y="674.054639933" type="line"/>
      <point x="1239.83316712" y="572.043145077"/>
      <point x="1238.35473966" y="496.150509133"/>
      <point x="1237.61552593" y="331.305847155" type="curve"/>
    </contour>
  </outline>
</glyph>
<glyph name="AE" format="1">
  <advance width="1958.4112954"/>
  <unicode hex="00C6"/>
  <outline>
    <contour>
      <point x="978.96643397" y="997.199322906" type="move" name="top"/>
    </contour>
    <contour>
      <point x="102.0958692" y="0.0" type="line"/>
      <point x="219.16300126" y="0.0" type="line"/>
      <point x="449.907962419" y="401.268449507" type="line"/>
      <point x="1088.14667751" y="401.268449507" type="line"/>
      <point x="1115.88589125" y="0.0" type="line"/>
      <point x="1820.62127336" y="0.0" type="line"/>
      <point x="1816.14093009" y="132.64526034" type="line"/>
      <point x="1229.87056477" y="132.64526034" type="line"/>
      <point x="1189.47842746" y="674.052724123" type="line"/>
      <point x="1771.79576947" y="674.052724123" type="line"/>
      <point x="1771.79576947" y="807.176411925" type="line"/>
      <point x="1171.69606865" y="807.176411925" type="line"/>
      <point x="1134.34707642" y="1309.5819599" type="line"/>
      <point x="1806.84083036" y="1309.5819599" type="line"/>
      <point x="1802.1428459" y="1442.96643397" type="line"/>
      <point x="956.93286794" y="1442.96643397" type="line"/>
    </contour>
    <contour>
      <point x="520.253123032" y="535.782358807" type="line"/>
      <point x="1006.01341067" y="1325.76603506" type="line"/>
      <point x="1066.9721814" y="535.782358807" type="line"/>
    </contour>
  </outline>
</glyph>
<glyph name="Eth" format="1">
  <advance width="1534.41321121"/>
  <unicode hex="00D0"/>
  <outline>
    <contour>
      <point x="389.176411925" y="125.251207222" type="line"/>
      <point x="389.176411925" y="643.962602351" type="line"/>
      <point x="622.574296662" y="643.962602351" type="line"/>
      <point x="622.574296662" y="753.519656729" type="line"/>
      <point x="389.176411925" y="753.519656729" type="line"/>
      <point x="389.176411925" y="1239.22913605" type="line"/>
      <point x="609.666334243" y="1239.22913605" type="line" smooth="yes"/>
      <point x="986.146677514" y="1239.22913605"/>
      <point x="1253.93861537" y="1112.96643397"/>
      <point x="1253.93861537" y="667.521572538" type="curve" smooth="yes"/>
      <point x="1253.93861537" y="303.253123032"/>
      <point x="1046.06421898" y="125.251207222"/>
      <point x="702.493753937" y="125.251207222" type="curve" smooth="yes"/>
    </contour>
    <contour>
      <point x="256.364318707" y="-0.478427461684" type="line"/>
      <point x="685.015326475" y="-0.478427461684" type="line" smooth="yes"/>
      <point x="1113.3624029" y="-0.478427461684"/>
      <point x="1399.62127336" y="216.694152845"/>
      <point x="1399.62127336" y="673.174496116" type="curve" smooth="yes"/>
      <point x="1399.62127336" y="1204.39596893"/>
      <point x="1055.9252047" y="1365.87248058"/>
      <point x="588.970265589" y="1365.87248058" type="curve" smooth="yes"/>
      <point x="256.364318707" y="1365.87248058" type="line"/>
      <point x="256.364318707" y="754.694152845" type="line"/>
      <point x="150.538814823" y="754.694152845" type="line"/>
      <point x="150.538814823" y="645.137098467" type="line"/>
      <point x="256.364318707" y="645.137098467" type="line"/>
    </contour>
  </outline>
</glyph>
<glyph name="multiply" format="1">
  <advance width="904.200003237"/>
  <unicode hex="00D7"/>
  <outline>
    <contour>
      <point x="203.800001681" y="164.799999654" type="line"/>
      <point x="450.600001872" y="449.799999475" type="line"/>
      <point x="696.60000205" y="164.799999654" type="line"/>
      <point x="793.200002432" y="252.800000191" type="line"/>
      <point x="793.200002432" y="252.800000191"/>
      <point x="530.600003093" y="549.799999237"/>
      <point x="534.000002414" y="549.999999881" type="curve"/>
      <point x="793.200002432" y="847.999999613" type="line"/>
      <point x="699.200002015" y="935.000000119" type="line"/>
      <point x="450.600001872" y="649.200000286" type="line"/>
      <point x="201.400001705" y="935.000000119" type="line"/>
      <point x="107.200001329" y="847.799999624" type="line"/>
      <point x="366.400001317" y="549.999999881" type="line"/>
      <point x="107.200001329" y="253.000000179" type="line"/>
    </contour>
  </outline>
</glyph>
<glyph name="Thorn" format="1">
  <advance width="1227.57238085"/>
  <unicode hex="00DE"/>
  <outline>
    <contour>
      <point x="130.823588075" y="-3.95877073273" type="line"/>
      <point x="276.859069914" y="-3.95877073273" type="line"/>
      <point x="276.859069914" y="319.87056477" type="line"/>
      <point x="261.112192946" y="319.87056477"/>
      <point x="651.87056477" y="311.478427462"/>
      <point x="660.523488348" y="311.478427462" type="curve" smooth="yes"/>
      <point x="987.572380852" y="311.478427462"/>
      <point x="1091.9511075" y="483.568549234"/>
      <point x="1091.9511075" y="720.0" type="curve" smooth="yes"/>
      <point x="1091.9511075" y="1006.3902215"/>
      <point x="923.523488348" y="1102.34516061"/>
      <point x="585.649091959" y="1102.34516061" type="curve" smooth="yes"/>
      <point x="276.859069914" y="1102.34516061" type="line"/>
      <point x="276.859069914" y="1368.87439639" type="line"/>
      <point x="130.823588075" y="1368.87439639" type="line"/>
    </contour>
    <contour>
      <point x="276.380642452" y="436.253123032" type="line"/>
      <point x="276.859069914" y="977.786190426" type="line"/>
      <point x="602.431450766" y="977.786190426" type="line" smooth="yes"/>
      <point x="869.570465043" y="977.786190426"/>
      <point x="957.221472811" y="893.088205963"/>
      <point x="957.221472811" y="708.737297921" type="curve" smooth="yes"/>
      <point x="957.221472811" y="554.692237035"/>
      <point x="886.615525929" y="436.253123032"/>
      <point x="643.694152845" y="436.253123032" type="curve" smooth="yes"/>
    </contour>
  </outline>
</glyph>
<glyph name="germandbls" format="1">
  <advance width="1126.60000035"/>
  <unicode hex="00DF"/>
  <outline>
    <contour>
      <point x="328.400000513" y="0.0" type="line"/>
      <point x="160.399999708" y="0.0" type="line"/>
      <point x="160.399999708" y="944.799999893" type="line" smooth="yes"/>
      <point x="160.399999708" y="1213.99999988"/>
      <point x="281.00000003" y="1377.99999985"/>
      <point x="559.800000012" y="1377.99999985" type="curve" smooth="yes"/>
      <point x="770.600000054" y="1377.99999985"/>
      <point x="914.400000542" y="1265.40000004"/>
      <point x="914.400000542" y="1085.19999969" type="curve" smooth="yes"/>
      <point x="914.400000542" y="883.39999941"/>
      <point x="722.200000823" y="789.599999964"/>
      <point x="722.200000823" y="707.000000119" type="curve" smooth="yes"/>
      <point x="722.200000823" y="601.240600266"/>
      <point x="1073.4000006" y="547.76940031"/>
      <point x="1073.4000006" y="272.400000185" type="curve" smooth="yes"/>
      <point x="1073.4000006" y="93.7999999821"/>
      <point x="956.400000423" y="-19.2000000179"/>
      <point x="765.200000256" y="-19.2000000179" type="curve" smooth="yes"/>
      <point x="650.600000501" y="-19.2000000179"/>
      <point x="535.000000626" y="13.5999998748"/>
      <point x="456.000000298" y="51.5999999344" type="curve"/>
      <point x="500.200000435" y="175.600000441" type="line"/>
      <point x="550.600000322" y="149.000000507"/>
      <point x="642.600000232" y="114.400000572"/>
      <point x="742.399999976" y="114.400000572" type="curve" smooth="yes"/>
      <point x="855.599999607" y="114.400000572"/>
      <point x="907.799999744" y="184.600000173"/>
      <point x="907.799999744" y="270.600000292" type="curve" smooth="yes"/>
      <point x="907.799999744" y="463.92760005"/>
      <point x="564.199999958" y="511.574600064"/>
      <point x="564.199999958" y="691.400000006" type="curve" smooth="yes"/>
      <point x="564.199999958" y="845.00000003"/>
      <point x="754.399999887" y="898.599999934"/>
      <point x="754.999999881" y="1082.59999964" type="curve" smooth="yes"/>
      <point x="755.323399878" y="1180.19999945"/>
      <point x="690.599999845" y="1250.59999925"/>
      <point x="565.400000095" y="1250.59999925" type="curve" smooth="yes"/>
      <point x="393.80000031" y="1250.59999925"/>
      <point x="328.400000513" y="1161.59999922"/>
      <point x="328.400000513" y="948.199999809" type="curve" smooth="yes"/>
    </contour>
  </outline>
</glyph>
<glyph name="ae" format="1">
  <advance width="1643.59999964"/>
  <unicode hex="00E6"/>
  <outline>
    <contour>
      <point x="413.399999917" y="-15.4000000358" type="curve" smooth="yes"/>
      <point x="576.599999964" y="-15.4000000358"/>
      <point x="753.999999762" y="56.9999998808"/>
      <point x="835.799999774" y="147.19999972" type="curve"/>
      <point x="908.399999768" y="41.5999999046"/>
      <point x="1018.39999959" y="-18.0"/>
      <point x="1178.1999996" y="-18.0" type="curve" smooth="yes"/>
      <point x="1329.79999971" y="-18.0"/>
      <point x="1427.19999975" y="17.0"/>
      <point x="1515.99999967" y="75.0000000894" type="curve"/>
      <point x="1466.79999945" y="184.60000062" type="line"/>
      <point x="1375.19999981" y="135.200000733"/>
      <point x="1296.5999997" y="109.200000584"/>
      <point x="1193.59999961" y="109.200000584" type="curve"/>
      <point x="1012.99999985" y="110.000000596"/>
      <point x="897.600000292" y="209.000000358"/>
      <point x="888.200000286" y="458.999999672" type="curve"/>
      <point x="1399.20000005" y="458.999999672"/>
      <point x="1534.39999983" y="550.400000334"/>
      <point x="1534.39999983" y="732.599999905" type="curve" smooth="yes"/>
      <point x="1534.39999983" y="875.634867346"/>
      <point x="1431.09136888" y="1022.00000027"/>
      <point x="1180.79999971" y="1022.00000027" type="curve" smooth="yes"/>
      <point x="1032.99999982" y="1022.00000027"/>
      <point x="881.200000107" y="941.600000411"/>
      <point x="834.999999911" y="805.600000948" type="curve"/>
      <point x="812.799999714" y="959.000000387"/>
      <point x="689.399999976" y="1022.60000026"/>
      <point x="523.800000221" y="1022.60000026" type="curve" smooth="yes"/>
      <point x="393.579490514" y="1022.60000026"/>
      <point x="239.505645689" y="982.399866211"/>
      <point x="154.799999744" y="934.600000173" type="curve"/>
      <point x="204.199999928" y="820.399999678" type="line"/>
      <point x="281.999999762" y="859.399999529"/>
      <point x="417.199999839" y="895.799999654"/>
      <point x="522.199999899" y="895.799999654" type="curve"/>
      <point x="674.799999624" y="893.399999619"/>
      <point x="729.199999481" y="817.599999845"/>
      <point x="729.199999481" y="680.400000066" type="curve" smooth="yes"/>
      <point x="729.199999481" y="573.400000185" type="line"/>
      <point x="583.99999997" y="573.400000185" type="line" smooth="yes"/>
      <point x="271.000000209" y="573.400000185"/>
      <point x="109.199999869" y="494.200000316"/>
      <point x="109.199999869" y="285.000000119" type="curve" smooth="yes"/>
      <point x="109.199999869" y="87.8000003099"/>
      <point x="240.799999744" y="-15.4000000358"/>
    </contour>
    <contour>
      <point x="436.00000003" y="108.600000441" type="curve" smooth="yes"/>
      <point x="333.80000028" y="108.600000441"/>
      <point x="267.000000566" y="163.000000328"/>
      <point x="267.000000566" y="285.199999958" type="curve" smooth="yes"/>
      <point x="267.000000566" y="401.999999672"/>
      <point x="338.000000477" y="460.799999654"/>
      <point x="589.399999738" y="460.799999654" type="curve" smooth="yes"/>
      <point x="731.199999511" y="460.799999654" type="line"/>
      <point x="732.799999535" y="389.399999738"/>
      <point x="749.399999589" y="303.399999797"/>
      <point x="771.799999475" y="249.400000066" type="curve"/>
      <point x="690.599999517" y="168.200000286"/>
      <point x="546.399999797" y="108.600000441"/>
    </contour>
    <contour>
      <point x="891.000000268" y="570.400000215" type="curve"/>
      <point x="912.400000274" y="789.400000334"/>
      <point x="1033.40000036" y="903.199999779"/>
      <point x="1192.19999981" y="903.199999779" type="curve" smooth="yes"/>
      <point x="1329.99999937" y="903.199999779"/>
      <point x="1401.19999921" y="828.800000042"/>
      <point x="1401.19999921" y="733.600000054" type="curve" smooth="yes"/>
      <point x="1401.19999921" y="611.400000393"/>
      <point x="1258.19999975" y="570.400000215"/>
    </contour>
  </outline>
</glyph>
<glyph name="eth" format="1">
  <advance width="1168.59999907"/>
  <unicode hex="00F0"/>
  <outline>
    <contour>
      <point x="584.599999726" y="-22.9999999404" type="curve" smooth="yes"/>
      <point x="894.199999571" y="-22.9999999404"/>
      <point x="1051.79999989" y="180.799999654"/>
      <point x="1051.79999989" y="447.999999762" type="curve"/>
      <point x="1051.39999989" y="574.999999821"/>
      <point x="1022.19999981" y="685.799999893"/>
      <point x="958.399999887" y="803.599999666" type="curve"/>
      <point x="891.799999833" y="920.799999684"/>
      <point x="788.399999917" y="1045.79999951"/>
      <point x="644.000000358" y="1200.5999991" type="curve"/>
      <point x="866.399999946" y="1285.59999898" type="line"/>
      <point x="825.599999726" y="1402.79999951" type="line"/>
      <point x="560.99999997" y="1299.99999955" type="line"/>
      <point x="427.600000262" y="1444.79999933" type="line"/>
      <point x="229.199999362" y="1444.79999933" type="line"/>
      <point x="444.799999058" y="1240.39999929" type="line"/>
      <point x="242.399999499" y="1161.99999943" type="line"/>
      <point x="280.599999726" y="1041.59999895" type="line"/>
      <point x="529.39999947" y="1143.19999883" type="line"/>
      <point x="680.199998289" y="997.199999928"/>
      <point x="769.599998266" y="876.800000131"/>
      <point x="811.799998224" y="798.200000435" type="curve"/>
      <point x="758.599998415" y="835.800000161"/>
      <point x="677.399998754" y="884.799999774"/>
      <point x="553.999999613" y="884.799999774" type="curve" smooth="yes"/>
      <point x="290.199999571" y="884.799999774"/>
      <point x="116.399999529" y="707.199999839"/>
      <point x="116.399999529" y="441.999999911" type="curve" smooth="yes"/>
      <point x="116.399999529" y="192.799999744"/>
      <point x="281.999999851" y="-22.9999999404"/>
    </contour>
    <contour>
      <point x="590.399999738" y="104.600000739" type="curve" smooth="yes"/>
      <point x="381.000000179" y="104.600000739"/>
      <point x="278.000000238" y="267.000000179"/>
      <point x="278.000000238" y="441.199999928" type="curve" smooth="yes"/>
      <point x="278.000000238" y="613.599999756"/>
      <point x="390.00000003" y="757.599999309"/>
      <point x="584.399999738" y="757.599999309" type="curve" smooth="yes"/>
      <point x="788.39999935" y="757.599999309"/>
      <point x="898.999999195" y="595.199999869"/>
      <point x="898.999999195" y="430.0" type="curve" smooth="yes"/>
      <point x="898.999999195" y="247.400000304"/>
      <point x="788.999999374" y="104.600000739"/>
    </contour>
  </outline>
</glyph>
<glyph name="divide" format="1">
  <advance width="1110.4000017"/>
  <unicode hex="00F7"/>
  <outline>
    <contour>
      <point x="457.200000614" y="19.7999999821" type="line"/>
      <point x="625.400001526" y="19.7999999821" type="line"/>
      <point x="625.400001526" y="227.400000513" type="line"/>
      <point x="457.200000614" y="227.400000513" type="line"/>
    </contour>
    <contour>
      <point x="98.2000005543" y="475.799999684" type="line"/>
      <point x="1005.20000136" y="475.799999684" type="line"/>
      <point x="1005.20000136" y="612.000000179" type="line"/>
      <point x="98.2000005543" y="612.000000179" type="line"/>
    </contour>
    <contour>
      <point x="457.200000614" y="853.999999434" type="line"/>
      <point x="657.400001287" y="853.999999434" type="line"/>
      <point x="657.400001287" y="1060.79999986" type="line"/>
      <point x="457.200000614" y="1060.79999986" type="line"/>
    </contour>
  </outline>
</glyph>
<glyph name="oslash" format="1">
  <advance width="1193.49566975"/>
  <unicode hex="00F8"/>
  <outline>
    <contour>
      <point x="596.139014277" y="728.86473861" type="move" name="top"/>
    </contour>
    <contour>
      <point x="305.568549234" y="-260.658671006" type="line"/>
      <point x="421.701816082" y="5.30393134579" type="line"/>
      <point x="472.919457275" y="-14.8705647701"/>
      <point x="531.093953391" y="-25.0882059626"/>
      <point x="594.790022045" y="-25.0882059626" type="curve" smooth="yes"/>
      <point x="890.266533697" y="-25.0882059626"/>
      <point x="1052.57046504" y="225.305847155"/>
      <point x="1052.57046504" y="497.433366576" type="curve" smooth="yes"/>
      <point x="1052.57046504" y="696.605946882"/>
      <point x="977.527319966" y="875.694152845"/>
      <point x="827.048892505" y="962.433366576" type="curve"/>
      <point x="940.399800546" y="1230.35665547" type="line"/>
      <point x="872.96643397" y="1259.05272412" type="line"/>
      <point x="762.093953391" y="992.998084191" type="line"/>
      <point x="713.790022045" y="1009.73729792"/>
      <point x="656.615525929" y="1020.69415284"/>
      <point x="596.572380852" y="1020.69415284" type="curve" smooth="yes"/>
      <point x="297.139014277" y="1020.69415284"/>
      <point x="124.964518161" y="777.300099727"/>
      <point x="124.964518161" y="495.215725383" type="curve" smooth="yes"/>
      <point x="124.964518161" y="299.0"/>
      <point x="206.964518161" y="122.825503884"/>
      <point x="356.790022045" y="35.6078626916" type="curve"/>
      <point x="244.395968927" y="-227.833167122" type="line"/>
    </contour>
    <contour>
      <point x="403.046976695" y="147.466932606" type="line"/>
      <point x="304.954939114" y="223.468848415"/>
      <point x="258.996168381" y="357.125603611"/>
      <point x="258.996168381" y="490.127519421" type="curve" smooth="yes"/>
      <point x="258.996168381" y="692.039313458"/>
      <point x="360.519656729" y="906.962602351"/>
      <point x="595.050808314" y="906.962602351" type="curve" smooth="yes"/>
      <point x="642.399800546" y="906.962602351"/>
      <point x="682.748792778" y="899.48417489"/>
      <point x="718.619357548" y="885.744961159" type="curve"/>
    </contour>
    <contour>
      <point x="596.790022045" y="89.339413185" type="curve" smooth="yes"/>
      <point x="547.527319966" y="89.339413185"/>
      <point x="502.74304535" y="97.5570543775"/>
      <point x="465.176411925" y="113.731550493" type="curve"/>
      <point x="781.488006509" y="854.444861432" type="line"/>
      <point x="880.493753937" y="779.660586815"/>
      <point x="919.017242284" y="641.61169431"/>
      <point x="919.017242284" y="497.782358807" type="curve" smooth="yes"/>
      <point x="919.017242284" y="294.696068654"/>
      <point x="832.32117363" y="89.339413185"/>
    </contour>
  </outline>
</glyph>
<glyph name="Dcroat" format="1">
  <advance width="1450.0"/>
  <unicode hex="0110"/>
  <outline>
    <contour>
      <point x="57.0" y="652.0" type="line"/>
      <point x="251.800002903" y="702.999999493" type="line"/>
      <point x="544.0" y="737.0" type="line"/>
      <point x="349.199997097" y="686.000000507" type="line"/>
    </contour>
    <component base="D"/>
  </outline>
</glyph>
<glyph name="Hbar" format="1">
  <advance width="1465.79999846"/>
  <unicode hex="0126"/>
  <outline>
    <contour>
      <point x="200.5999991" y="0.0" type="line"/>
      <point x="303.400000632" y="616.199993879" type="line"/>
      <point x="250.600001156" y="854.199997425" type="line"/>
      <point x="488.600004703" y="894.399997026" type="line"/>
      <point x="541.400004178" y="656.399993479" type="line"/>
      <point x="644.600005716" y="826.799991786" type="line"/>
      <point x="697.400005192" y="1253.99999815" type="line"/>
      <point x="727.400005639" y="1083.59999985" type="line"/>
      <point x="1240.40000054" y="1138.40000066" type="line"/>
      <point x="1210.4000001" y="1308.79999897" type="line"/>
      <point x="1263.19999957" y="1360.79999974" type="line"/>
      <point x="1159.99999803" y="1190.40000144" type="line"/>
      <point x="1212.19999751" y="1138.40000066" type="line"/>
      <point x="974.199993968" y="1098.20000106" type="line"/>
      <point x="921.999994487" y="1150.20000184" type="line"/>
      <point x="819.199992955" y="534.000007957" type="line"/>
      <point x="766.399993479" y="482.000007182" type="line"/>
      <point x="736.399993032" y="876.80000326" type="line"/>
      <point x="223.399998128" y="822.000002444" type="line"/>
      <point x="253.399998575" y="427.200006366" type="line"/>
    </contour>
    <contour>
      <point x="356.200000107" y="771.800000161" type="line"/>
      <point x="869.199995011" y="883.80000183" type="line"/>
      <point x="1107.19999856" y="1043.40000024" type="line"/>
      <point x="594.200003654" y="931.399998575" type="line"/>
    </contour>
  </outline>
</glyph>
<glyph name="hbar" format="1">
  <advance width="1155.83891455"/>
  <unicode hex="0127"/>
  <outline>
    <contour>
      <point x="226.493753937" y="0.0" type="line"/>
      <point x="352.001915809" y="0.0" type="line"/>
      <point x="352.001915809" y="680.086290153" type="line"/>
      <point x="371.825503884" y="776.913709847"/>
      <point x="505.525404157" y="903.137098467"/>
      <point x="673.96643397" y="903.137098467" type="curve" smooth="yes"/>
      <point x="858.538814823" y="903.137098467"/>
      <point x="889.234883477" y="790.480343271"/>
      <point x="889.234883477" y="551.037397649" type="curve" smooth="yes"/>
      <point x="889.234883477" y="0.0" type="line"/>
      <point x="1014.74304535" y="0.0" type="line"/>
      <point x="1014.74304535" y="601.694152845" type="line" smooth="yes"/>
      <point x="1014.74304535" y="853.253123032"/>
      <point x="935.489922318" y="1020.69415284"/>
      <point x="722.313510393" y="1020.69415284" type="curve" smooth="yes"/>
      <point x="562.092037581" y="1020.69415284"/>
      <point x="438.872480579" y="959.735382112"/>
      <point x="352.001915809" y="851.470764224" type="curve"/>
      <point x="352.001915809" y="1167.13709847" type="line"/>
      <point x="600.174496116" y="1167.13709847" type="line"/>
      <point x="600.174496116" y="1263.78427462" type="line"/>
      <point x="352.001915809" y="1263.78427462" type="line"/>
      <point x="352.001915809" y="1370.73729792" type="line"/>
      <point x="226.493753937" y="1352.73729792" type="line"/>
      <point x="226.493753937" y="1263.78427462" type="line"/>
      <point x="143.146677514" y="1263.78427462" type="line"/>
      <point x="143.146677514" y="1167.13709847" type="line"/>
      <point x="226.493753937" y="1167.13709847" type="line"/>
    </contour>
  </outline>
</glyph>
<glyph name="dotlessi" format="1">
  <advance width="426.200000942"/>
  <unicode hex="0131"/>
  <outline>
    <contour>
      <point x="142.399999946" y="0.0" type="line"/>
      <point x="295.200000972" y="0.0" type="line"/>
      <point x="295.200000972" y="999.200000167" type="line"/>
      <point x="142.399999946" y="999.200000167" type="line"/>
    </contour>
  </outline>
</glyph>
<glyph name="IJ" format="1">
  <advance width="1115.52540416"/>
  <unicode hex="0132"/>
  <outline>
    <contour>
      <point x="622.090121772" y="-176.943444258" type="curve" smooth="yes"/>
      <point x="687.496667017" y="-173.247375604"/>
      <point x="744.792935125" y="-135.998084191"/>
      <point x="728.530233046" y="-58.5445622507" type="curve" smooth="yes"/>
      <point x="967.296268108" y="-58.5445622507"/>
      <point x="954.729634684" y="349.97517321"/>
      <point x="954.729634684" y="548.084453076" type="curve"/>
      <point x="879.623189166" y="1347.17449612" type="line"/>
      <point x="813.093953391" y="1030.05839282" type="line" smooth="yes"/>
      <point x="813.093953391" y="991.722811253"/>
      <point x="806.052724123" y="145.156256561"/>
      <point x="771.628936595" y="145.156256561" type="curve" smooth="yes"/>
      <point x="765.630852404" y="50.5368990132"/>
      <point x="758.634684023" y="-35.429534957"/>
      <point x="606.534983204" y="-33.6040310729" type="curve"/>
      <point x="619.101616628" y="-33.6040310729"/>
      <point x="558.658671006" y="-89.8475750577"/>
      <point x="580.0958692" y="-92.8044299811" type="curve"/>
      <point x="588.180243544" y="-94.6299338652"/>
      <point x="614.266533697" y="-176.943444258"/>
    </contour>
    <contour>
      <point x="138.131351039" y="0.0" type="line"/>
      <point x="279.027818602" y="0.0" type="line"/>
      <point x="279.027818602" y="1347.17449612" type="line"/>
      <point x="138.131351039" y="1347.17449612" type="line"/>
    </contour>
  </outline>
</glyph>
<glyph name="Eng" format="1">
  <advance width="1294.59999952"/>
  <unicode hex="014A"/>
  <outline>
    <contour>
      <point x="770.399999678" y="-297.800000072" type="curve" smooth="yes"/>
      <point x="884.600001961" y="-297.800000072"/>
      <point x="908.200003058" y="-234.399999142"/>
      <point x="806.800004065" y="-108.399997503" type="curve" smooth="yes"/>
      <point x="794.20000419" y="229.000006407" type="line" smooth="yes"/>
      <point x="906.400003076" y="344.200008273"/>
      <point x="841.200002283" y="418.000009388"/>
      <point x="743.000000387" y="418.000009388" type="curve" smooth="yes"/>
      <point x="879.399997622" y="418.000009388"/>
      <point x="820.399996489" y="437.800008535"/>
      <point x="783.199995935" y="578.200006127" type="curve"/>
      <point x="774.399995804" y="1103.80000237" type="line"/>
      <point x="774.399995804" y="1260.40000081"/>
      <point x="628.199994713" y="1310.20000032"/>
      <point x="487.199996114" y="1310.20000032" type="curve"/>
      <point x="326.999997705" y="1310.20000032"/>
      <point x="233.399998635" y="680.999993235"/>
      <point x="178.199999183" y="605.399993986" type="curve"/>
      <point x="293.4000009" y="0.0" type="line"/>
      <point x="255.600001276" y="385.20000574" type="line"/>
      <point x="287.200001746" y="439.600006551"/>
      <point x="346.000002682" y="1286.39999869"/>
      <point x="388.400003314" y="1286.39999869" type="curve" smooth="yes"/>
      <point x="447.20000419" y="1286.39999869"/>
      <point x="508.600004166" y="1255.19999823"/>
      <point x="508.600004166" y="1169.99999696" type="curve" smooth="yes"/>
      <point x="515.800004095" y="745.599993974" type="line" smooth="yes"/>
      <point x="647.200002789" y="815.999991626"/>
      <point x="730.600001693" y="805.999991208"/>
      <point x="768.999999732" y="805.999991208" type="curve" smooth="yes"/>
      <point x="896.599998415" y="805.999991208"/>
      <point x="941.599997371" y="717.599992096"/>
      <point x="925.599997133" y="538.199993908" type="curve"/>
      <point x="933.599997252" y="-27.400002718" type="line"/>
      <point x="947.599997461" y="-192.800001115"/>
      <point x="958.799997747" y="-297.800000072"/>
    </contour>
  </outline>
</glyph>
<glyph name="eng" format="1">
  <advance width="1098.59999943"/>
  <unicode hex="014B"/>
  <outline>
    <contour>
      <point x="589.599999934" y="-275.000000566" type="line"/>
      <point x="653.199999928" y="-275.000000566" type="line" smooth="yes"/>
      <point x="921.000000417" y="-275.000000566"/>
      <point x="961.800000608" y="-134.000000507"/>
      <point x="962.200000614" y="143.599999577" type="curve"/>
      <point x="962.200000614" y="612.400000274" type="line" smooth="yes"/>
      <point x="962.200000614" y="880.200000107"/>
      <point x="862.400000483" y="1019.40000021"/>
      <point x="632.800000429" y="1019.40000021" type="curve" smooth="yes"/>
      <point x="490.000000447" y="1019.40000021"/>
      <point x="386.400000483" y="962.800000161"/>
      <point x="314.800000399" y="855.200000465" type="curve"/>
      <point x="296.200000346" y="998.000000179" type="line"/>
      <point x="150.599999726" y="998.000000179" type="line"/>
      <point x="150.599999726" y="0.0" type="line"/>
      <point x="321.400000572" y="0.0" type="line"/>
      <point x="321.400000572" y="545.799999505" type="line" smooth="yes"/>
      <point x="321.400000572" y="596.999999851"/>
      <point x="324.400000572" y="642.800000131"/>
      <point x="329.60000065" y="686.000000268" type="curve"/>
      <point x="359.600000709" y="800.999999881"/>
      <point x="435.000000775" y="888.999999553"/>
      <point x="600.200000107" y="888.999999553" type="curve" smooth="yes"/>
      <point x="754.999999821" y="888.999999553"/>
      <point x="790.999999762" y="787.999999732"/>
      <point x="791.399999768" y="622.799999893" type="curve"/>
      <point x="791.399999768" y="94.7999995947" type="line" smooth="yes"/>
      <point x="791.399999768" y="-100.000000089"/>
      <point x="775.199999779" y="-127.800000131"/>
      <point x="617.0" y="-127.800000131" type="curve" smooth="yes"/>
      <point x="579.199999779" y="-127.800000131" type="line"/>
    </contour>
  </outline>
</glyph>
<glyph name="OE" format="1">
  <advance width="1863.20000058"/>
  <unicode hex="0152"/>
  <outline>
    <contour>
      <point x="771.999999553" y="-21.1999999583" type="curve" smooth="yes"/>
      <point x="539.600003004" y="-21.1999999583"/>
      <point x="471.000004798" y="170.199998498"/>
      <point x="501.400005251" y="458.199996114" type="curve"/>
      <point x="509.800005168" y="696.399993747"/>
      <point x="657.400003701" y="843.399991661"/>
      <point x="873.400001556" y="843.399991661" type="curve"/>
      <point x="960.400000691" y="843.399991661"/>
      <point x="1377.60000506" y="813.999991953"/>
      <point x="1410.60000473" y="776.199992329" type="curve"/>
      <point x="1417.80000484" y="907.59999305" type="line"/>
      <point x="1477.39999801" y="907.59999305" type="line"/>
      <point x="1469.59999809" y="1004.59999594" type="line"/>
      <point x="1447.40000385" y="1004.59999594" type="line"/>
      <point x="1447.40000385" y="769.200000286" type="line"/>
      <point x="1446.79999831" y="769.200000286" type="line"/>
      <point x="1446.79999831" y="844.400002867" type="line"/>
      <point x="1457.80000401" y="844.400002867" type="line"/>
      <point x="1465.00000411" y="594.600007385" type="line"/>
      <point x="1389.99999642" y="594.600007385" type="line"/>
      <point x="1383.39999649" y="509.400007635" type="line"/>
      <point x="1349.39999598" y="531.000007957"/>
      <point x="993.399998516" y="543.400008142"/>
      <point x="944.599997789" y="543.400008142" type="curve" smooth="yes"/>
      <point x="795.399995565" y="543.400008142"/>
      <point x="682.999993891" y="477.200005919"/>
      <point x="681.799993873" y="318.400003552" type="curve"/>
      <point x="675.199993938" y="134.800001383"/>
      <point x="676.399996638" y="-21.1999999583"/>
    </contour>
    <contour>
      <point x="773.599999517" y="117.400000691" type="curve" smooth="yes"/>
      <point x="724.599997282" y="117.800000697"/>
      <point x="764.399995565" y="248.200001657"/>
      <point x="782.999995381" y="355.800003141" type="curve"/>
      <point x="783.799995393" y="458.200004667"/>
      <point x="840.199996233" y="1190.5999997"/>
      <point x="944.599997789" y="1190.5999997" type="curve" smooth="yes"/>
      <point x="956.59999907" y="1222.39999938"/>
      <point x="932.400000334" y="1229.19999883"/>
      <point x="888.400001407" y="1203.99999845" type="curve"/>
      <point x="695.80000332" y="1203.99999845"/>
      <point x="575.800004512" y="764.199995279"/>
      <point x="569.200004578" y="549.399997413" type="curve"/>
      <point x="544.800004214" y="308.199999273"/>
      <point x="578.000002831" y="121.000000656"/>
    </contour>
    <contour>
      <point x="931.600000292" y="809.399991959" type="move"/>
    </contour>
  </outline>
</glyph>
<glyph name="uni0237" format="1">
  <advance width="455.200001061"/>
  <unicode hex="0237"/>
  <outline>
    <contour>
      <point x="-39.9999996424" y="-420.399999589" type="line"/>
      <point x="14.6000004113" y="-420.399999589" type="line" smooth="yes"/>
      <point x="265.400001079" y="-420.399999589"/>
      <point x="316.600001186" y="-334.199999064"/>
      <point x="316.600001186" y="-90.7999987006" type="curve" smooth="yes"/>
      <point x="316.600001186" y="1009.80000007" type="line"/>
      <point x="135.600000471" y="1009.80000007" type="line"/>
      <point x="135.600000471" y="-77.1999992728" type="line" smooth="yes"/>
      <point x="135.600000471" y="-229.399999201"/>
      <point x="153.200000167" y="-280.59999907"/>
      <point x="-13.5999995768" y="-280.59999907" type="curve" smooth="yes"/>
      <point x="-70.1999996305" y="-280.59999907" type="line"/>
    </contour>
  </outline>
</glyph>
<glyph name="uni02BC" format="1">
  <advance width="494.409379593"/>
  <unicode hex="02BC"/>
  <outline>
    <contour>
      <point x="130.178327735" y="1031.49566975" type="line"/>
      <point x="224.172580307" y="1031.49566975" type="line"/>
      <point x="367.574296662" y="1448.66250262" type="line"/>
      <point x="241.713310938" y="1448.66250262" type="line"/>
    </contour>
  </outline>
</glyph>
<glyph name="circumflex" format="1">
  <advance width="730.399999499"/>
  <unicode hex="02C6"/>
  <outline>
    <contour>
      <point x="101.199999303" y="1137.39999908" type="line"/>
      <point x="217.399999946" y="1137.39999908" type="line"/>
      <point x="364.799999893" y="1385.39999855" type="line"/>
      <point x="510.800000012" y="1137.39999908" type="line"/>
      <point x="628.400000691" y="1137.39999908" type="line"/>
      <point x="459.00000003" y="1490.39999923" type="line"/>
      <point x="280.399999857" y="1490.39999923" type="line"/>
    </contour>
  </outline>
</glyph>
<glyph name="caron" format="1">
  <advance width="729.999999493"/>
  <unicode hex="02C7"/>
  <outline>
    <contour>
      <point x="272.199999988" y="1149.79999927" type="line"/>
      <point x="448.400000125" y="1149.79999927" type="line"/>
      <point x="632.800000757" y="1490.39999923" type="line"/>
      <point x="506.99999997" y="1490.39999923" type="line"/>
      <point x="356.399999976" y="1251.5999999" type="line"/>
      <point x="221.600000024" y="1490.39999923" type="line"/>
      <point x="97.9999992549" y="1490.39999923" type="line"/>
    </contour>
  </outline>
</glyph>
<glyph name="breve" format="1">
  <advance width="689.199999332"/>
  <unicode hex="02D8"/>
  <outline>
    <contour>
      <point x="344.19999972" y="1181.79999921" type="curve" smooth="yes"/>
      <point x="455.200000137" y="1181.79999921"/>
      <point x="572.200000137" y="1246.79999933"/>
      <point x="572.200000137" y="1403.79999942" type="curve"/>
      <point x="469.799999475" y="1403.79999942" type="line"/>
      <point x="469.799999475" y="1316.99999967"/>
      <point x="409.799999803" y="1276.19999984"/>
      <point x="344.19999972" y="1276.19999984" type="curve" smooth="yes"/>
      <point x="278.599999636" y="1276.19999984"/>
      <point x="222.599999934" y="1316.99999967"/>
      <point x="222.599999934" y="1403.79999942" type="curve"/>
      <point x="119.399999291" y="1403.79999942" type="line"/>
      <point x="119.399999291" y="1246.59999934"/>
      <point x="234.199999303" y="1181.79999921"/>
    </contour>
  </outline>
</glyph>
